SplineFontDB: 3.2
FontName: ComputerVision
FullName: ComputerVision
FamilyName: ComputerVision
Weight: Regular
Copyright: Copyright (c) 2023, Simon Thiefes
Version: 001.000
ItalicAngle: 0
UnderlinePosition: -80
UnderlineWidth: 40
Ascent: 692
Descent: 308
InvalidEm: 0
LayerCount: 2
Layer: 0 0 "Hinten" 1
Layer: 1 0 "Vorne" 0
XUID: [1021 694 -516466584 4177015]
FSType: 0
OS2Version: 0
OS2_WeightWidthSlopeOnly: 0
OS2_UseTypoMetrics: 1
CreationTime: 1678365446
ModificationTime: 1696362744
PfmFamily: 17
TTFWeight: 400
TTFWidth: 5
LineGap: 72
VLineGap: 0
OS2TypoAscent: 0
OS2TypoAOffset: 1
OS2TypoDescent: 0
OS2TypoDOffset: 1
OS2TypoLinegap: 72
OS2WinAscent: 0
OS2WinAOffset: 1
OS2WinDescent: 0
OS2WinDOffset: 1
HheadAscent: 0
HheadAOffset: 1
HheadDescent: 0
HheadDOffset: 1
OS2Vendor: 'PfEd'
Lookup: 4 0 1 "liga" { "liga-1"  } ['liga' ('latn' <'dflt' > ) ]
MarkAttachClasses: 1
DEI: 91125
LangName: 1033
Encoding: Custom
UnicodeInterp: none
NameList: AGL For New Fonts
DisplaySize: -48
AntiAlias: 1
FitToEm: 0
BeginPrivate: 0
EndPrivate
BeginChars: 318 313

StartChar: glyph0
Encoding: -1 65 0
Width: 535
VWidth: 0
Flags: HW
LayerCount: 2
Fore
SplineSet
325.014648438 428.916015625 m 2
 325.014648438 443.440429688 322.65625 455.231445312 319.751953125 455.231445312 c 0
 316.846679688 455.231445312 314.48828125 443.440429688 314.48828125 428.916015625 c 2
 314.48828125 296.474609375 l 1
 3.7841796875 244.690429688 l 2
 0.9609375 244.219726562 -1.30078125 232.615234375 -1.30078125 218.388671875 c 0
 -1.30078125 203.551757812 1.1591796875 191.590820312 4.1396484375 192.087890625 c 2
 319.9296875 244.719726562 l 2
 322.752929688 245.190429688 325.014648438 256.794921875 325.014648438 271.020507812 c 2
 325.014648438 428.916015625 l 2
477.646484375 -123.715820312 m 0
 476.54296875 -123.715820312 450.633789062 -129.114257812 414.39453125 -129.114257812 c 0
 344.240234375 -129.114257812 275.033203125 -109.256835938 215.15625 -71.2939453125 c 0
 150.4375 -30.2626953125 101.318359375 27.3369140625 70.9892578125 91.458984375 c 0
 58.5078125 117.84765625 36.1728515625 173.810546875 36.1728515625 236.381835938 c 0
 36.1728515625 260.208984375 39.7216796875 302.0078125 59.044921875 352.994140625 c 0
 63.8701171875 365.727539062 62.0361328125 402.600585938 56.59375 402.600585938 c 0
 55.708984375 402.600585938 54.875 401.505859375 54.142578125 399.57421875 c 0
 44.1748046875 373.271484375 25.646484375 317.538085938 25.646484375 236.381835938 c 0
 25.646484375 60.3916015625 112.194335938 -59.0751953125 213.821289062 -123.505859375 c 0
 238.416992188 -139.099609375 338.939453125 -200.208007812 477.830078125 -176.33203125 c 0
 480.650390625 -175.846679688 482.91015625 -164.248046875 482.91015625 -150.032226562 c 0
 482.91015625 -135.5078125 480.551757812 -123.715820312 477.646484375 -123.715820312 c 0
529.2421875 139.952148438 m 2
 532.49609375 136.698242188 535.541015625 149.161132812 535.541015625 165.7578125 c 0
 535.541015625 178.5078125 533.723632812 189.153320312 531.314453125 191.5625 c 2
 268.15625 454.720703125 l 2
 264.90234375 457.975585938 261.857421875 445.512695312 261.857421875 428.916015625 c 0
 261.857421875 416.165039062 263.674804688 405.520507812 266.083984375 403.111328125 c 2
 529.2421875 139.952148438 l 2
EndSplineSet
EndChar

StartChar: glyph1
Encoding: 0 99 1
Width: 419
VWidth: 0
Flags: HW
LayerCount: 2
Fore
SplineSet
-0.951171875 -93.654296875 m 2
 -4.5166015625 -118.60546875 25.9580078125 -133.751953125 43.701171875 -116.008789062 c 0
 47.8818359375 -111.828125 50.3603515625 -106.5859375 51.1376953125 -101.146484375 c 2
 101.473632812 251.196289062 l 1
 401.865234375 351.327148438 l 2
 420.287109375 357.467773438 425.952148438 381.063476562 412.123046875 394.893554688 c 0
 404.8359375 402.1796875 394.32421875 404.296875 385.1640625 401.243164062 c 2
 69.375 295.98046875 l 2
 66.998046875 295.188476562 53.8779296875 290.146484375 51.681640625 274.768554688 c 2
 -0.951171875 -93.654296875 l 2
255.657226562 46.9921875 m 0
 217.568359375 46.9921875 186.13671875 63.126953125 182.987304688 63.126953125 c 0
 179.1953125 63.126953125 177.802734375 59.5859375 181.077148438 58.2294921875 c 0
 422.42578125 -41.7412109375 449.263671875 342.418945312 255.657226562 342.418945312 c 0
 233.362304688 342.418945312 208.498046875 337.27734375 181.077148438 325.919921875 c 0
 108.231445312 295.745117188 108.231445312 193.666015625 181.077148438 163.491210938 c 0
 185.30078125 161.7421875 189.145507812 166.264648438 184.8984375 168.024414062 c 0
 117.077148438 196.1171875 117.077148438 293.293945312 184.8984375 321.38671875 c 0
 414.663085938 416.55859375 436.287109375 46.9921875 255.657226562 46.9921875 c 0
EndSplineSet
EndChar

StartChar: glyph2
Encoding: 1 65 2
Width: 495
VWidth: 0
Flags: HW
LayerCount: 2
Fore
SplineSet
336.741210938 381.833007812 m 2
 335.006835938 388.194335938 331.553710938 384.466796875 331.553710938 376.284179688 c 0
 331.553710938 374.1796875 331.80078125 372.248046875 332.213867188 370.735351562 c 2
 490.108398438 -208.212890625 l 2
 491.842773438 -214.573242188 495.295898438 -210.845703125 495.295898438 -202.663085938 c 2
 495.295898438 7.86328125 l 2
 495.295898438 19.3466796875 489.448242188 19.3466796875 489.448242188 7.86328125 c 2
 489.448242188 -178.091796875 l 1
 336.741210938 381.833007812 l 2
231.72265625 424.412109375 m 2
 233.5546875 433.572265625 229.217773438 442.78125 226.950195312 434.46484375 c 2
 69.0556640625 -144.482421875 l 2
 66.7939453125 -152.7734375 70.65625 -163.750976562 73.2939453125 -156.499023438 c 2
 152.021484375 60.0029296875 l 1
 121.442382812 -92.896484375 l 2
 119.478515625 -102.716796875 124.485351562 -111.77734375 126.459960938 -101.903320312 c 2
 167.176757812 101.6796875 l 1
 283.8203125 422.44921875 l 2
 285.780273438 427.838867188 284.494140625 437.688476562 281.845703125 437.688476562 c 0
 281.084960938 437.688476562 280.391601562 436.814453125 279.87109375 435.3828125 c 2
 177.751953125 154.556640625 l 1
 231.72265625 424.412109375 l 2
99.4072265625 -60.8916015625 m 1
 206.0390625 330.092773438 l 1
 162.59765625 112.880859375 l 1
 99.4072265625 -60.8916015625 l 1
295.6484375 60.4951171875 m 0
 295.6484375 48.3876953125 291.8984375 32.775390625 282.072265625 17.951171875 c 1
 208.787109375 164.522460938 l 1
 234.45703125 154.543945312 259.178710938 135.486328125 280.6015625 105.1875 c 0
 291.526367188 89.7353515625 295.6484375 73.189453125 295.6484375 60.4951171875 c 0
186.223632812 188.56640625 m 1
 96.3349609375 205.079101562 -0.3955078125 122.314453125 -0.3955078125 21.6826171875 c 0
 -0.3955078125 -38.05859375 32.1591796875 -78.7255859375 70.646484375 -105.938476562 c 0
 72.4775390625 -107.233398438 74.2431640625 -103.05859375 74.2431640625 -97.400390625 c 0
 74.2431640625 -93.2529296875 73.28125 -89.7734375 71.9912109375 -88.861328125 c 0
 44.962890625 -69.7509765625 27.044921875 -48.0966796875 16.759765625 -26.5078125 c 0
 8.48828125 -9.1474609375 5.4521484375 7.248046875 5.4521484375 21.6826171875 c 0
 5.4521484375 104.590820312 101.90234375 194.418945312 196.162109375 168.689453125 c 1
 280.2265625 0.5595703125 l 2
 280.500976562 0.009765625 281.686523438 -2.060546875 283.08984375 -0.076171875 c 0
 294.467773438 16.0166015625 301.497070312 36.3291015625 301.497070312 60.4951171875 c 0
 301.497070312 84.6611328125 294.467773438 104.974609375 283.08984375 121.06640625 c 0
 257.774414062 156.870117188 228.310546875 177.190429688 198.16015625 185.776367188 c 1
 125.5703125 330.958007812 l 2
 122.393554688 337.311523438 119.138671875 322.737304688 122.33203125 316.349609375 c 2
 186.223632812 188.56640625 l 1
EndSplineSet
EndChar

StartChar: tS
Encoding: 2 -1 3
Width: 464
VWidth: 0
Flags: HW
LayerCount: 2
Fore
SplineSet
311.370117188 373.825195312 m 2
 314.375 375.829101562 312.462890625 379.57421875 308.458007812 379.57421875 c 0
 307.340820312 379.57421875 306.321289062 379.259765625 305.545898438 378.744140625 c 2
 147.651367188 273.48046875 l 2
 146.263671875 272.555664062 145.833007812 271.111328125 146.455078125 269.868164062 c 2
 251.717773438 59.3408203125 l 2
 253.733398438 55.310546875 261.951171875 57.6162109375 259.934570312 61.6484375 c 2
 155.7265625 270.063476562 l 1
 311.370117188 373.825195312 l 2
207.505859375 270.413085938 m 2
 208.01171875 272.436523438 205.938476562 274.311523438 203.194335938 274.311523438 c 0
 201.051757812 274.311523438 199.264648438 273.155273438 198.883789062 271.630859375 c 0
 146.176757812 60.802734375 146.176757812 60.802734375 146.176757812 60.4951171875 c 0
 146.176757812 56.548828125 153.907226562 56.01953125 154.874023438 59.8857421875 c 2
 207.505859375 270.413085938 l 2
226.185546875 -95.673828125 m 0
 78.5498046875 -95.673828125 7.044921875 17.3046875 7.044921875 120.2265625 c 0
 7.044921875 204.416992188 53.7978515625 287.999023438 152.1953125 321.282226562 c 0
 156.629882812 322.782226562 153.356445312 327.521484375 148.930664062 326.024414062 c 0
 -77.537109375 249.418945312 -36.2119140625 -81.46484375 202.776367188 -100.016601562 c 0
 514.397460938 -124.204101562 565.455078125 334.124023438 256.590820312 378.861328125 c 0
 256.068359375 378.9375 250.734375 378.916015625 203.194335938 378.916015625 c 0
 198.2734375 378.916015625 198.2734375 373.65234375 203.194335938 373.65234375 c 2
 255.436523438 373.65234375 l 1
 547.317382812 331.00390625 507.25390625 -95.673828125 226.185546875 -95.673828125 c 0
EndSplineSet
Ligature2: "liga-1" t S
EndChar

StartChar: "+IBQA_+IBQA_+IBQA_+IBQA,."
Encoding: 3 -1 4
Width: 525
VWidth: 0
Flags: HW
LayerCount: 2
Fore
SplineSet
105.750976562 435.454101562 m 2
 100.032226562 436.408203125 99.080078125 423.326171875 104.7734375 422.377929688 c 0
 420.806640625 369.705078125 420.806640625 369.705078125 421.052734375 369.705078125 c 0
 426.50390625 369.705078125 426.944335938 381.922851562 421.541992188 382.823242188 c 2
 105.750976562 435.454101562 l 2
EndSplineSet
Ligature2: "liga-1" — _ — _ — _ — , .
EndChar

StartChar: glyph5
Encoding: 4 62 5
Width: 516
VWidth: 0
Flags: HW
LayerCount: 2
Fore
SplineSet
104.876953125 -39.5322265625 m 2
 99.99609375 -40.2294921875 100.73828125 -50.705078125 105.6484375 -50.00390625 c 2
 474.0703125 2.6279296875 l 2
 477.481445312 3.115234375 478.684570312 9.3310546875 475.866210938 12.1494140625 c 2
 265.33984375 222.674804688 l 2
 261.344726562 226.669921875 256.961914062 218.118164062 260.9765625 214.103515625 c 2
 463.396484375 11.6845703125 l 1
 104.876953125 -39.5322265625 l 2
43.01171875 -146.442382812 m 2
 35.1904296875 -149.793945312 41.1923828125 -155.294921875 52.6318359375 -155.294921875 c 0
 56.4267578125 -155.294921875 59.8486328125 -154.650390625 62.2509765625 -153.62109375 c 2
 430.671875 4.2744140625 l 2
 431.813476562 4.7626953125 435.380859375 6.5400390625 433.84765625 9.0947265625 c 2
 275.954101562 272.251953125 l 2
 272.368164062 278.228515625 250.000976562 277.18359375 250.000976562 271.021484375 c 0
 250.000976562 270.39453125 250.000976562 270.39453125 406.606445312 9.384765625 c 1
 43.01171875 -146.442382812 l 2
EndSplineSet
EndChar

StartChar: glyph6
Encoding: 5 59 6
Width: 556
VWidth: 0
Flags: HW
LayerCount: 2
Fore
SplineSet
71.0654296875 280.5546875 m 0
 98.142578125 280.5546875 117.368164062 261.047851562 119.974609375 261.047851562 c 0
 122.962890625 261.047851562 124.166992188 265.608398438 121.678710938 267.565429688 c 0
 54.509765625 320.393554688 -0.408203125 258.860351562 -0.408203125 201.90625 c 0
 -0.408203125 165.831054688 22.0224609375 132.778320312 74.3203125 132.778320312 c 0
 145.205078125 132.778320312 125.28515625 227.427734375 164.548828125 261.7578125 c 0
 291.18359375 372.481445312 381.41796875 416.376953125 442.086914062 416.376953125 c 0
 687.212890625 416.376953125 467.65234375 -300.81640625 265.348632812 -300.81640625 c 0
 197.141601562 -300.81640625 128.439453125 -218.657226562 80.1943359375 8.9951171875 c 0
 79.3408203125 13.01953125 74.1767578125 12.2958984375 74.1767578125 8.138671875 c 0
 74.1767578125 7.84375 74.20703125 7.556640625 74.265625 7.2822265625 c 0
 122.528320312 -220.456054688 192.138671875 -307.940429688 265.348632812 -307.940429688 c 0
 476.305664062 -307.940429688 696.448242188 423.500976562 442.086914062 423.500976562 c 0
 379.028320312 423.500976562 287.91015625 378.520507812 160.891601562 267.461914062 c 0
 118.623046875 230.504882812 140.61328125 139.90234375 74.3203125 139.90234375 c 0
 -32.31640625 139.90234375 -0.0625 280.5546875 71.0654296875 280.5546875 c 0
EndSplineSet
EndChar

StartChar: glyph7
Encoding: 6 165 7
Width: 579
VWidth: 0
Flags: HW
LayerCount: 2
Fore
SplineSet
279.356445312 18.7646484375 m 1
 172.145507812 268.921875 l 1
 225.750976562 286.790039062 l 1
 279.356445312 18.7646484375 l 1
210.52734375 434.178710938 m 0
 202.87109375 434.178710938 196.796875 431.564453125 197.411132812 428.491210938 c 2
 223.182617188 299.633789062 l 1
 149.478515625 275.06640625 l 2
 148.278320312 274.666015625 143.720703125 272.938476562 144.92578125 270.126953125 c 2
 302.8203125 -98.2939453125 l 2
 305.600585938 -104.780273438 330.224609375 -103.575195312 328.904296875 -96.974609375 c 2
 250.501953125 295.041015625 l 1
 482.099609375 372.239257812 l 2
 491.525390625 375.380859375 485.900390625 381.547851562 473.684570312 381.547851562 c 0
 470.485351562 381.547851562 467.55078125 381.08984375 465.268554688 380.329101562 c 2
 247.93359375 307.884765625 l 1
 223.642578125 429.340820312 l 2
 223.1015625 432.046875 217.431640625 434.178710938 210.52734375 434.178710938 c 0
106.170898438 -91.17578125 m 1
 68.83203125 31.2470703125 169.654296875 140.244140625 282.615234375 135.680664062 c 1
 106.170898438 -91.17578125 l 1
419.05078125 -94.9609375 m 0
 417.598632812 -97.3916015625 418.818359375 -101.159179688 421.052734375 -101.159179688 c 0
 421.854492188 -101.159179688 422.572265625 -100.646484375 423.0546875 -99.8388671875 c 0
 467.563476562 -25.3564453125 443.8046875 71.7939453125 369.44140625 116.592773438 c 0
 345.25 131.166015625 320.221679688 139.37890625 295.556640625 142.206054688 c 1
 475.443359375 373.489257812 l 2
 477.23046875 375.787109375 476.079101562 380.043945312 473.684570312 380.043945312 c 0
 473.0078125 380.043945312 472.391601562 379.678710938 471.924804688 379.079101562 c 2
 288.22265625 142.890625 l 1
 167.55859375 151.568359375 58.978515625 33.0888671875 102.884765625 -99.0087890625 c 0
 103.63671875 -101.2734375 105.711914062 -101.880859375 107.022460938 -100.194335938 c 2
 290.116210938 135.211914062 l 1
 315.865234375 133.028320312 342.112304688 124.895507812 367.400390625 109.661132812 c 0
 438.096679688 67.072265625 461.427734375 -24.046875 419.05078125 -94.9609375 c 0
EndSplineSet
EndChar

StartChar: glyph8
Encoding: 7 92 8
Width: 518
VWidth: 0
Flags: HW
LayerCount: 2
Fore
SplineSet
165.77734375 -90.3779296875 m 2
 157.1484375 -86.0634765625 144.736328125 -90.1982421875 144.736328125 -97.3994140625 c 0
 144.736328125 -100.270507812 146.80859375 -102.8203125 150.010742188 -104.420898438 c 2
 255.275390625 -157.052734375 l 2
 263.904296875 -161.3671875 276.31640625 -157.231445312 276.31640625 -150.03125 c 0
 276.31640625 -147.16015625 274.244140625 -144.609375 271.041992188 -143.008789062 c 2
 165.77734375 -90.3779296875 l 2
215.521484375 430.579101562 m 2
 213.344726562 437.109375 203.352539062 433.79296875 205.532226562 427.252929688 c 2
 363.426757812 -46.431640625 l 2
 365.602539062 -52.9609375 375.595703125 -49.6455078125 373.415039062 -43.1044921875 c 2
 215.521484375 430.579101562 l 2
EndSplineSet
EndChar

StartChar: we
Encoding: 8 -1 9
Width: 427
VWidth: 0
Flags: HW
LayerCount: 2
Fore
SplineSet
212.684570312 -106.052734375 m 2
 216.466796875 -107.943359375 217.418945312 -90.6318359375 213.651367188 -88.748046875 c 0
 2.8857421875 16.6357421875 2.8857421875 16.6357421875 2.6416015625 16.6357421875 c 0
 -0.900390625 16.6357421875 -1.32421875 0.9521484375 2.158203125 -0.7890625 c 2
 212.684570312 -106.052734375 l 2
261.278320312 137.6796875 m 0
 261.278320312 55.15234375 306.87890625 -6.9072265625 365.657226562 -35.99609375 c 1
 318.430664062 -35.99609375 l 2
 314.602539062 -35.99609375 314.602539062 -53.5400390625 318.430664062 -53.5400390625 c 2
 423.694335938 -53.5400390625 l 2
 427.4453125 -53.5400390625 427.565429688 -36.4921875 423.823242188 -36.0048828125 c 0
 378.3203125 -30.0791015625 338.23046875 -7.48046875 309.993164062 25.11328125 c 0
 302.594726562 33.6533203125 267.125976562 75.2392578125 267.125976562 137.6796875 c 0
 267.125976562 219.486328125 330.155273438 300.319335938 423.84765625 314.893554688 c 0
 427.663085938 315.487304688 427.37109375 333.009765625 423.541015625 332.4140625 c 0
 371.708007812 324.3515625 327.928710938 296.053710938 298.938476562 256.12109375 c 0
 275.999023438 224.521484375 261.278320312 184.415039062 261.278320312 137.6796875 c 0
EndSplineSet
Ligature2: "liga-1" w e
EndChar

StartChar: /s
Encoding: 9 -1 10
Width: 474
VWidth: 0
Flags: HW
LayerCount: 2
Fore
SplineSet
154.924804688 220.182617188 m 2
 151.909179688 217.166992188 157.834960938 213.568359375 160.86328125 216.596679688 c 2
 263.158203125 318.890625 l 1
 312.8203125 269.228515625 l 2
 315.010742188 267.038085938 319.548828125 268.258789062 319.548828125 271.021484375 c 0
 319.548828125 271.696289062 319.25390625 272.319335938 318.7578125 272.814453125 c 2
 266.127929688 325.446289062 l 2
 264.62109375 326.952148438 261.696289062 326.952148438 260.189453125 325.446289062 c 2
 154.924804688 220.182617188 l 2
EndSplineSet
Ligature2: "liga-1" / s
EndChar

StartChar: 1)
Encoding: 10 -1 11
Width: 435
VWidth: 0
Flags: HW
LayerCount: 2
Fore
SplineSet
293.653320312 342.260742188 m 0
 280.58203125 355.33203125 258.44921875 351.118164062 250.999023438 334.357421875 c 2
 40.47265625 -139.327148438 l 2
 36.177734375 -148.990234375 37.990234375 -160.719726562 45.91015625 -168.639648438 c 0
 58.9814453125 -181.7109375 81.1142578125 -177.497070312 88.5634765625 -160.735351562 c 2
 299.090820312 312.94921875 l 2
 303.384765625 322.612304688 301.572265625 334.341796875 293.653320312 342.260742188 c 0
286.2890625 219.908203125 m 0
 279.40234375 222.418945312 261.887695312 221.319335938 261.887695312 218.389648438 c 0
 261.887695312 217.833984375 262.586914062 217.313476562 263.80078125 216.87109375 c 0
 457.551757812 146.225585938 457.48046875 -130.524414062 263.801757812 -201.14453125 c 0
 242.015625 -209.087890625 222.307617188 -211.797851562 207.306640625 -211.797851562 c 0
 174.887695312 -211.797851562 136.709960938 -199.798828125 104.012695312 -176.116210938 c 0
 63.1240234375 -146.5 33.01171875 -100.541992188 25.0791015625 -44.9658203125 c 1
 182.939453125 165.514648438 182.939453125 165.514648438 182.939453125 165.758789062 c 0
 182.939453125 169.299804688 159.415039062 169.724609375 156.802734375 166.2421875 c 0
 -1.3056640625 -44.5693359375 -1.3056640625 -44.5693359375 -1.2646484375 -44.861328125 c 0
 6.6572265625 -100.948242188 36.79296875 -147.369140625 78.849609375 -177.831054688 c 0
 100.360351562 -193.412109375 142.325195312 -217.646484375 207.306640625 -217.646484375 c 0
 237.059570312 -217.646484375 263.064453125 -212.649414062 286.2890625 -204.181640625 c 0
 485.459960938 -131.55859375 485.400390625 147.307617188 286.2890625 219.908203125 c 0
129.180664062 -151.216796875 m 2
 133.01953125 -149.296875 126.67578125 -147.107421875 117.150390625 -147.107421875 c 0
 111.786132812 -147.107421875 107.16796875 -147.822265625 105.119140625 -148.845703125 c 2
 -0.1435546875 -201.477539062 l 2
 -3.982421875 -203.397460938 2.3603515625 -205.586914062 11.88671875 -205.586914062 c 0
 17.25 -205.586914062 21.869140625 -204.872070312 23.9169921875 -203.848632812 c 2
 129.180664062 -151.216796875 l 2
EndSplineSet
Ligature2: "liga-1" 1 )
EndChar

StartChar: glyph12
Encoding: 11 93 12
Width: 263
VWidth: 0
Flags: HW
LayerCount: 2
Fore
SplineSet
226.611328125 197.55859375 m 1
 233.028320312 202.524414062 236.836914062 210.151367188 236.836914062 218.389648438 c 2
 236.836914062 271.021484375 l 2
 236.836914062 300.069335938 196.000976562 307.358398438 185.87890625 280.252929688 c 1
 71.2392578125 394.892578125 l 2
 60.96875 405.162109375 44.29296875 405.162109375 34.0224609375 394.892578125 c 0
 23.7529296875 384.622070312 23.7529296875 367.946289062 34.0224609375 357.67578125 c 2
 176.037109375 215.661132812 l 1
 131.849609375 -93.654296875 l 2
 128.28515625 -118.60546875 158.758789062 -133.751953125 176.501953125 -116.008789062 c 0
 180.682617188 -111.828125 183.161132812 -106.5859375 183.938476562 -101.146484375 c 2
 226.611328125 197.55859375 l 1
EndSplineSet
EndChar

StartChar: sf
Encoding: 12 -1 13
Width: 520
VWidth: 0
Flags: HW
LayerCount: 2
Fore
SplineSet
276.21484375 -96.98828125 m 2
 274.205078125 -92.9697265625 250.000976562 -93.3369140625 250.000976562 -97.3994140625 c 0
 250.000976562 -97.6064453125 250.000976562 -97.6064453125 302.733398438 -203.07421875 c 0
 304.78515625 -207.178710938 329.688476562 -206.665039062 328.93359375 -202.51171875 c 2
 224.296875 372.994140625 l 1
 263.159179688 372.994140625 l 2
 270.420898438 372.994140625 276.31640625 374.46875 276.31640625 376.284179688 c 0
 276.31640625 378.099609375 270.420898438 379.573242188 263.159179688 379.573242188 c 2
 210.52734375 379.573242188 l 2
 203.047851562 379.573242188 197.041015625 378.01171875 197.3828125 376.1328125 c 2
 287.512695312 -119.583984375 l 1
 276.21484375 -96.98828125 l 2
210.280273438 174.499023438 m 2
 206.4765625 173.547851562 206.947265625 156.059570312 210.771484375 157.015625 c 2
 421.297851562 209.647460938 l 2
 425.102539062 210.598632812 424.631835938 228.086914062 420.806640625 227.130859375 c 2
 210.280273438 174.499023438 l 2
254.662109375 -46.0810546875 m 0
 257.193359375 -51.9873046875 271.930664062 -50.8828125 271.930664062 -44.7685546875 c 0
 271.930664062 -44.0986328125 271.930664062 -44.0986328125 113.758789062 324.965820312 c 0
 111.227539062 330.872070312 96.490234375 329.766601562 96.490234375 323.65234375 c 0
 96.490234375 322.982421875 96.490234375 322.982421875 254.662109375 -46.0810546875 c 0
EndSplineSet
Ligature2: "liga-1" s f
EndChar

StartChar: PA
Encoding: 13 -1 14
Width: 524
VWidth: 0
Flags: HW
LayerCount: 2
Fore
SplineSet
311.404296875 113.126953125 m 0
 311.404296875 96.2939453125 314.009765625 83.791015625 316.744140625 87.4365234375 c 2
 474.639648438 297.963867188 l 2
 476.602539062 300.580078125 478.071289062 311.095703125 478.071289062 323.654296875 c 0
 478.071289062 340.487304688 475.465820312 352.989257812 472.731445312 349.34375 c 2
 314.8359375 138.817382812 l 2
 312.873046875 136.200195312 311.404296875 125.684570312 311.404296875 113.126953125 c 0
49.6962890625 13.751953125 m 2
 41.984375 9.896484375 47.8740234375 -1.8720703125 55.5673828125 1.9755859375 c 2
 266.094726562 107.23828125 l 2
 273.805664062 111.094726562 267.916992188 122.862304688 260.22265625 119.015625 c 2
 49.6962890625 13.751953125 l 2
EndSplineSet
Ligature2: "liga-1" P A
EndChar

StartChar: glyph15
Encoding: 14 187 15
Width: 467
VWidth: 0
Flags: HW
LayerCount: 2
Fore
SplineSet
412.123046875 94.517578125 m 0
 424.836914062 107.231445312 421.263671875 128.678710938 405.291015625 136.665039062 c 2
 89.5029296875 294.561523438 l 2
 79.6474609375 299.489257812 67.3330078125 297.845703125 59.1181640625 289.629882812 c 0
 46.4033203125 276.916015625 49.9765625 255.46875 65.94921875 247.482421875 c 2
 381.737304688 89.5859375 l 2
 391.59375 84.658203125 403.907226562 86.3017578125 412.123046875 94.517578125 c 0
347.7265625 138.537109375 m 0
 321.860351562 145.467773438 303.40234375 113.391601562 322.275390625 94.5185546875 c 0
 325.655273438 91.1376953125 329.729492188 88.8701171875 334.041015625 87.71484375 c 0
 424.1875 63.560546875 437.161132812 -43.4765625 384.266601562 -96.37109375 c 0
 365.319335938 -115.317382812 335.107421875 -129.176757812 308.291015625 -126.924804688 c 1
 260.579101562 16.2138671875 l 2
 254.438476562 34.6357421875 230.841796875 40.30078125 217.012695312 26.4716796875 c 0
 209.725585938 19.1845703125 207.609375 8.6728515625 210.662109375 -0.4873046875 c 2
 263.293945312 -158.381835938 l 2
 264.288085938 -161.364257812 268.672851562 -172.030273438 281.409179688 -175.442382812 c 0
 339.087890625 -190.897460938 393.05859375 -162.010742188 421.482421875 -133.586914062 c 0
 504.1953125 -50.8740234375 475.803710938 104.219726562 347.7265625 138.537109375 c 0
6.4853515625 -63.376953125 m 0
 17.7861328125 -74.677734375 36.537109375 -73.3740234375 46.1640625 -60.5390625 c 2
 361.954101562 360.513671875 l 2
 369.682617188 370.818359375 368.862304688 385.521484375 359.4921875 394.892578125 c 0
 348.190429688 406.193359375 329.439453125 404.889648438 319.8125 392.053710938 c 2
 4.0224609375 -28.998046875 l 2
 -3.7060546875 -39.302734375 -2.8857421875 -54.005859375 6.4853515625 -63.376953125 c 0
EndSplineSet
EndChar

StartChar: glyph16
Encoding: 15 124 16
Width: 104
VWidth: 0
Flags: HW
LayerCount: 2
Fore
SplineSet
56.3916015625 -97.400390625 m 2
 56.3916015625 -92.478515625 48.8720703125 -92.478515625 48.8720703125 -97.400390625 c 2
 48.8720703125 -202.663085938 l 2
 48.8720703125 -207.584960938 56.3916015625 -207.584960938 56.3916015625 -202.663085938 c 2
 56.3916015625 -97.400390625 l 2
EndSplineSet
EndChar

StartChar: |.alt1
Encoding: 16 -1 17
Width: 63
VWidth: 0
Flags: HW
LayerCount: 2
Fore
SplineSet
-1.2958984375 -150.03125 m 2
 -1.2958984375 -155.7734375 11.8623046875 -155.7734375 11.8623046875 -150.03125 c 2
 11.8623046875 231.413085938 l 1
 51.34765625 -202.932617188 l 2
 51.853515625 -208.4921875 64.4931640625 -208.245117188 64.4931640625 -202.663085938 c 2
 64.4931640625 271.021484375 l 2
 64.4931640625 276.762695312 51.3359375 276.762695312 51.3359375 271.021484375 c 2
 51.3359375 -57.7919921875 l 1
 11.849609375 376.552734375 l 2
 11.34375 382.11328125 -1.2958984375 381.865234375 -1.2958984375 376.284179688 c 2
 -1.2958984375 -150.03125 l 2
64.4853515625 270.875 m 2
 64.4853515625 274.97265625 51.74609375 274.7890625 51.34375 271.16796875 c 0
 -1.2958984375 -202.58984375 -1.2958984375 -202.58984375 -1.2958984375 -202.663085938 c 0
 -1.2958984375 -206.404296875 11.439453125 -206.5390625 11.853515625 -202.809570312 c 2
 64.4853515625 270.875 l 2
EndSplineSet
EndChar

StartChar: glyph18
Encoding: 17 52 18
Width: 663
VWidth: 0
Flags: HW
LayerCount: 2
Fore
SplineSet
503.287109375 53.9267578125 m 2
 506.62890625 54.404296875 506.489257812 67.07421875 503.134765625 67.07421875 c 0
 503.05859375 67.07421875 503.05859375 67.07421875 155.946289062 17.486328125 c 1
 609.180664062 370.000976562 l 2
 612.46484375 372.555664062 610.909179688 385.12890625 607.6171875 382.567382812 c 2
 133.931640625 14.146484375 l 2
 131.009765625 11.8740234375 131.797851562 0.857421875 134.866210938 1.294921875 c 2
 503.287109375 53.9267578125 l 2
606.549804688 20.6064453125 m 1
 557.553710938 -160.500976562 329.310546875 -288.579101562 135.467773438 -143.727539062 c 0
 41.3984375 -73.431640625 4.0517578125 16.4521484375 4.0517578125 100.033203125 c 0
 4.0517578125 318.127929688 253.2109375 532.220703125 501.581054688 370.497070312 c 1
 606.549804688 20.6064453125 l 1
503.801757812 382.649414062 m 0
 253.8671875 546.293945312 -1.2119140625 333.02734375 -1.2119140625 100.033203125 c 0
 -1.2119140625 5.7021484375 39.8720703125 -86.02734375 133.959960938 -156.3359375 c 0
 327.448242188 -300.923828125 556.834960938 -176.887695312 609.891601562 9.4658203125 c 1
 658.923828125 -153.973632812 l 2
 660.993164062 -160.872070312 665.202148438 -152.97265625 663.13671875 -146.08984375 c 2
 612.965820312 21.146484375 l 1
 622.374023438 60.056640625 640.08203125 165.65234375 557.005859375 276.825195312 c 0
 553.9765625 280.87890625 551.482421875 269.291015625 554.52734375 265.216796875 c 0
 578.27734375 233.434570312 635.202148438 147.524414062 609.51953125 32.6328125 c 1
 505.241210938 380.2265625 l 2
 504.889648438 381.3984375 504.384765625 382.267578125 503.801757812 382.649414062 c 0
EndSplineSet
EndChar

StartChar: glyph19
Encoding: 18 33 19
Width: 175
VWidth: 0
Flags: HW
LayerCount: 2
Fore
SplineSet
114.489257812 428.916015625 m 2
 114.489257812 432.744140625 103.962890625 432.744140625 103.962890625 428.916015625 c 2
 103.962890625 218.389648438 l 2
 103.962890625 214.561523438 114.489257812 214.561523438 114.489257812 218.389648438 c 2
 114.489257812 428.916015625 l 2
134.0078125 102.263671875 m 1
 197.080078125 18.923828125 162.525390625 -105.635742188 63.6181640625 -144.099609375 c 1
 134.0078125 102.263671875 l 1
59.1923828125 -152.57421875 m 0
 175.829101562 -115.681640625 212.23828125 25.861328125 137.026367188 112.83203125 c 1
 167.119140625 218.15625 167.119140625 218.15625 167.119140625 218.389648438 c 0
 167.119140625 221.944335938 157.658203125 222.350585938 156.658203125 218.850585938 c 2
 128.868164062 121.584960938 l 1
 99.2685546875 151.061523438 58.265625 168.947265625 13.10546875 168.947265625 c 0
 3.0263671875 168.947265625 -1.30078125 168.5625 -1.30078125 165.758789062 c 0
 -1.30078125 164.145507812 1.0576171875 162.834960938 3.9619140625 162.834960938 c 0
 4.6845703125 162.834960938 7.919921875 163.098632812 13.10546875 163.098632812 c 0
 55.93359375 163.098632812 97.25390625 144.201171875 126.096679688 111.883789062 c 1
 51.3310546875 -149.798828125 51.3310546875 -149.798828125 51.3310546875 -150.03125 c 0
 51.3310546875 -152.271484375 55.7080078125 -153.67578125 59.1923828125 -152.57421875 c 0
9.212890625 429.12109375 m 2
 8.736328125 432.9296875 -1.7666015625 432.5390625 -1.2880859375 428.7109375 c 2
 51.34375 7.658203125 l 2
 51.8193359375 3.8486328125 62.3232421875 4.240234375 61.8447265625 8.068359375 c 2
 9.212890625 429.12109375 l 2
EndSplineSet
EndChar

StartChar: ai
Encoding: 19 -1 20
Width: 533
VWidth: 0
Flags: HW
LayerCount: 2
Fore
SplineSet
414.97265625 218.793945312 m 1
 414.97265625 213.100585938 431.333007812 213.653320312 432.416015625 217.985351562 c 0
 485.09765625 428.712890625 485.09765625 428.712890625 485.09765625 428.916015625 c 0
 485.09765625 433.59765625 468.764648438 433.961914062 467.604492188 429.3203125 c 2
 414.97265625 218.793945312 l 1
528.958007812 373.360351562 m 2
 534.69921875 373.360351562 534.69921875 379.208007812 528.958007812 379.208007812 c 2
 423.694335938 379.208007812 l 2
 421.7578125 379.208007812 420.11328125 378.370117188 419.532226562 377.208007812 c 0
 208.782226562 -44.2919921875 208.782226562 -44.2919921875 208.782226562 -44.7685546875 c 0
 208.782226562 -48.05078125 215.775390625 -48.802734375 217.330078125 -45.6923828125 c 2
 426.856445312 373.360351562 l 1
 528.958007812 373.360351562 l 2
1.7177734375 118.12109375 m 2
 -1.91015625 115.9453125 -0.0673828125 105.952148438 3.56640625 108.1328125 c 2
 529.881835938 423.921875 l 2
 533.508789062 426.098632812 531.666992188 436.090820312 528.033203125 433.91015625 c 2
 1.7177734375 118.12109375 l 2
EndSplineSet
Ligature2: "liga-1" a i
EndChar

StartChar: ai.alt1
Encoding: 20 -1 21
Width: 533
VWidth: 0
Flags: HW
LayerCount: 2
Fore
SplineSet
414.97265625 218.793945312 m 1
 414.97265625 213.100585938 431.333007812 213.653320312 432.416015625 217.985351562 c 0
 485.09765625 428.712890625 485.09765625 428.712890625 485.09765625 428.916015625 c 0
 485.09765625 433.59765625 468.764648438 433.961914062 467.604492188 429.3203125 c 2
 414.97265625 218.793945312 l 1
528.958007812 373.360351562 m 2
 534.69921875 373.360351562 534.69921875 379.208007812 528.958007812 379.208007812 c 2
 423.694335938 379.208007812 l 2
 421.7578125 379.208007812 420.11328125 378.370117188 419.532226562 377.208007812 c 0
 208.782226562 -44.2919921875 208.782226562 -44.2919921875 208.782226562 -44.7685546875 c 0
 208.782226562 -48.05078125 215.775390625 -48.802734375 217.330078125 -45.6923828125 c 2
 426.856445312 373.360351562 l 1
 528.958007812 373.360351562 l 2
1.7177734375 118.12109375 m 2
 -1.91015625 115.9453125 -0.0673828125 105.952148438 3.56640625 108.1328125 c 2
 529.881835938 423.921875 l 2
 533.508789062 426.098632812 531.666992188 436.090820312 528.033203125 433.91015625 c 2
 1.7177734375 118.12109375 l 2
EndSplineSet
EndChar

StartChar: |.alt2
Encoding: 21 -1 22
Width: 344
VWidth: 0
Flags: HW
LayerCount: 2
Fore
SplineSet
79.5830078125 -144.291015625 m 2
 73.8974609375 -169.876953125 105.411132812 -187.099609375 123.872070312 -168.638671875 c 0
 127.5390625 -164.971679688 129.896484375 -160.487304688 130.9453125 -155.770507812 c 2
 236.20703125 317.913085938 l 2
 241.892578125 343.499023438 210.377929688 360.721679688 191.91796875 342.260742188 c 0
 188.250976562 338.59375 185.892578125 334.110351562 184.844726562 329.392578125 c 2
 79.5830078125 -144.291015625 l 2
266.08203125 113.126953125 m 2
 266.08203125 127.651367188 264.771484375 139.442382812 263.158203125 139.442382812 c 0
 261.543945312 139.442382812 260.234375 127.651367188 260.234375 113.126953125 c 2
 260.234375 60.4951171875 l 2
 260.234375 45.970703125 261.543945312 34.1796875 263.158203125 34.1796875 c 0
 264.771484375 34.1796875 266.08203125 45.970703125 266.08203125 60.4951171875 c 2
 266.08203125 113.126953125 l 2
EndSplineSet
EndChar

StartChar: \.alt1
Encoding: 22 -1 23
Width: 421
VWidth: 0
Flags: HW
LayerCount: 2
Fore
SplineSet
160.338867188 378.236328125 m 2
 159.2734375 383.564453125 155.262695312 382.022460938 155.262695312 376.284179688 c 0
 155.262695312 375.594726562 155.329101562 374.936523438 155.450195312 374.333007812 c 2
 260.713867188 -151.983398438 l 2
 261.993164062 -158.379882812 266.881835938 -154.475585938 265.602539062 -148.080078125 c 2
 160.338867188 378.236328125 l 2
EndSplineSet
EndChar

StartChar: glyph24
Encoding: 23 113 24
Width: 423
VWidth: 0
Flags: HW
LayerCount: 2
Fore
SplineSet
314.68359375 316.443359375 m 0
 318.989257812 312.137695312 325.004882812 305.154296875 325.114257812 305.044921875 c 0
 335.384765625 294.775390625 352.060546875 294.775390625 362.331054688 305.044921875 c 0
 372.041992188 314.756835938 372.5703125 330.196289062 363.915039062 340.53125 c 0
 284.776367188 435.024414062 139.51171875 435.02734375 60.3720703125 340.530273438 c 0
 -78.8740234375 174.262695312 39.9580078125 -39.033203125 211.549804688 -69.900390625 c 0
 330.514648438 -91.30078125 413.462890625 -12.2421875 414.9609375 -10.7451171875 c 0
 422.633789062 -3.0712890625 424.57421875 8.177734375 420.78125 17.6591796875 c 2
 315.51953125 280.81640625 l 2
 308.5546875 298.23046875 285.849609375 302.997070312 272.482421875 289.62890625 c 0
 264.809570312 281.956054688 262.869140625 270.70703125 266.662109375 261.225585938 c 2
 364.55859375 16.482421875 l 1
 231.83203125 -78.5341796875 77.26953125 22.126953125 54.5859375 148.224609375 c 0
 45.5029296875 198.71875 56.6611328125 254.12109375 100.7578125 306.775390625 c 0
 156.059570312 372.80859375 255.291015625 375.834960938 314.68359375 316.443359375 c 0
133.196289062 -123.720703125 m 2
 109.828125 -123.720703125 98.11328125 -152.165039062 114.587890625 -168.639648438 c 0
 119.72265625 -173.774414062 126.458984375 -176.341796875 133.196289062 -176.341796875 c 2
 396.353515625 -176.341796875 l 2
 410.893554688 -176.341796875 422.6640625 -164.571289062 422.6640625 -150.03125 c 2
 422.6640625 323.654296875 l 2
 422.6640625 347.022460938 394.219726562 358.736328125 377.74609375 342.26171875 c 0
 372.610351562 337.126953125 370.04296875 330.390625 370.04296875 323.654296875 c 0
 370.04296875 -123.720703125 370.04296875 -123.720703125 370.04296875 -123.720703125 c 1
 133.196289062 -123.720703125 l 2
264.255859375 65.6865234375 m 2
 262.337890625 75.275390625 255.270507812 82.8955078125 246.1328125 85.6689453125 c 1
 211.348632812 224.803710938 l 2
 210.231445312 229.2734375 207.926757812 233.504882812 204.435546875 236.997070312 c 2
 99.171875 342.259765625 l 2
 88.90234375 352.530273438 72.2265625 352.53125 61.95703125 342.260742188 c 0
 51.6865234375 331.991210938 51.6865234375 315.315429688 61.95703125 305.044921875 c 0
 95.326171875 271.67578125 128.6953125 238.3046875 162.064453125 204.935546875 c 1
 265.568359375 -209.077148438 l 2
 270.49609375 -228.788085938 295.259765625 -235.709960938 309.69921875 -221.270507812 c 0
 316.16015625 -214.809570312 318.556640625 -205.813476562 316.887695312 -197.471679688 c 2
 264.255859375 65.6865234375 l 2
EndSplineSet
EndChar

StartChar: C)
Encoding: 24 -1 25
Width: 649
VWidth: 0
Flags: HW
LayerCount: 2
Fore
SplineSet
47.5263671875 7.86328125 m 2
 47.5263671875 13.6044921875 37 13.6044921875 37 7.86328125 c 2
 37 -44.7685546875 l 2
 37 -48.048828125 41.1884765625 -50.1611328125 44.6650390625 -48.6708984375 c 2
 413.0859375 109.22265625 l 2
 419.219726562 111.8515625 414.401367188 119.651367188 408.282226562 117.028320312 c 2
 47.5263671875 -37.580078125 l 1
 47.5263671875 7.86328125 l 2
412.67578125 432.9765625 m 0
 409.237304688 434.149414062 405.420898438 432.036132812 405.420898438 428.916015625 c 0
 405.420898438 427.08203125 406.774414062 425.509765625 408.692382812 424.854492188 c 0
 815.36328125 286.069335938 618.420898438 -229.114257812 311.094726562 -229.114257812 c 0
 244.44140625 -229.114257812 171.97265625 -205.0234375 98.51953125 -146.8515625 c 0
 -59.185546875 -21.9580078125 4.0537109375 230.875 201.284179688 266.736328125 c 0
 207.997070312 267.95703125 205.78125 276.534179688 199.033203125 275.306640625 c 0
 -6.9052734375 237.862304688 -72.2705078125 -23.6943359375 91.2705078125 -153.209960938 c 0
 512.630859375 -486.909179688 921.166015625 259.442382812 412.67578125 432.9765625 c 0
EndSplineSet
Ligature2: "liga-1" C )
EndChar

StartChar: YD
Encoding: 25 -1 26
Width: 593
VWidth: 0
Flags: HW
LayerCount: 2
Fore
SplineSet
104.806640625 269.454101562 m 0
 108.854492188 273.586914062 96.3154296875 277.600585938 79.2431640625 277.600585938 c 0
 66.880859375 277.600585938 56.4970703125 275.46484375 53.6806640625 272.58984375 c 0
 -18.9248046875 198.4609375 -19.0263671875 80.5263671875 53.6806640625 6.294921875 c 0
 113.037109375 -54.3046875 184.725585938 -89.86328125 277.84375 -89.86328125 c 0
 371.258789062 -89.86328125 439.203125 -53.7705078125 486.541015625 -12.0830078125 c 0
 608.834960938 95.61328125 651.883789062 297.010742188 472.627929688 431.001953125 c 0
 469.13671875 433.611328125 459.2734375 435.495117188 447.6640625 435.495117188 c 0
 433.778320312 435.495117188 422.390625 432.80078125 421.416015625 429.390625 c 0
 316.084960938 60.7333984375 316.084960938 60.7333984375 316.084960938 60.4951171875 c 0
 316.084960938 56.8642578125 327.876953125 53.916015625 342.401367188 53.916015625 c 0
 356.287109375 53.916015625 367.674804688 56.6103515625 368.649414062 60.0205078125 c 2
 463.340820312 391.44140625 l 1
 623.349609375 228.024414062 509.106445312 -3.966796875 343.915039062 -63.8330078125 c 0
 317.586914062 -73.3740234375 294.245117188 -76.7060546875 277.84375 -76.7060546875 c 0
 262.213867188 -76.7060546875 238.768554688 -73.755859375 210.68359375 -62.9091796875 c 0
 176.231445312 -49.603515625 139.491210938 -25.9814453125 104.805664062 9.4306640625 c 0
 34.3662109375 81.34765625 34.1376953125 197.303710938 104.806640625 269.454101562 c 0
EndSplineSet
Ligature2: "liga-1" Y D
EndChar

StartChar: glyph27
Encoding: 26 48 27
Width: 477
VWidth: 0
Flags: HW
LayerCount: 2
Fore
SplineSet
273.706054688 348.294921875 m 1
 445.409179688 317.934570312 459.715820312 119.661132812 368.670898438 28.6162109375 c 0
 333.895507812 -6.1591796875 283.443359375 -27.201171875 215.1328125 -18.662109375 c 0
 31.1962890625 4.330078125 14.7265625 209.971679688 107.654296875 302.899414062 c 0
 131.244140625 326.48828125 162.045898438 343.758789062 200.7421875 349.762695312 c 1
 87.9765625 236.997070312 l 2
 77.7060546875 226.727539062 77.7060546875 210.05078125 87.9765625 199.78125 c 0
 98.24609375 189.510742188 114.922851562 189.510742188 125.192382812 199.78125 c 2
 273.706054688 348.294921875 l 1
208.560546875 -70.875 m 0
 458.583984375 -102.127929688 552.3203125 194.315429688 410.53515625 336.100585938 c 0
 375.986328125 370.649414062 328.020507812 394.858398438 267.765625 402.390625 c 0
 17.72265625 433.634765625 -75.9853515625 137.190429688 65.791015625 -4.5849609375 c 0
 100.33984375 -39.1337890625 148.305664062 -63.3427734375 208.560546875 -70.875 c 0
230.771484375 -133.455078125 m 1
 119.77734375 -89.056640625 l 1
 126.573242188 -70.935546875 l 1
 230.771484375 -133.455078125 l 1
109.836914062 -32.5458984375 m 2
 104.115234375 -29.11328125 97.8125 -35.451171875 97.8125 -44.7685546875 c 0
 97.8125 -50.306640625 100.098632812 -55.05078125 103.331054688 -56.990234375 c 2
 110.140625 -61.076171875 l 1
 98.93359375 -90.962890625 l 2
 96.126953125 -98.447265625 98.8173828125 -107.9140625 104.321289062 -110.115234375 c 0
 368.5859375 -215.821289062 368.5859375 -215.821289062 369.7421875 -215.821289062 c 0
 379.305664062 -215.821289062 381.875 -195.76953125 372.994140625 -190.44140625 c 2
 135.250976562 -47.794921875 l 1
 272.12890625 317.216796875 l 2
 275.395507812 325.926757812 271.1796875 336.811523438 264.478515625 336.811523438 c 0
 261.1953125 336.811523438 258.331054688 334.100585938 256.827148438 330.090820312 c 2
 118.818359375 -37.935546875 l 1
 109.836914062 -32.5458984375 l 2
150.443359375 60.4951171875 m 2
 150.443359375 53.2333984375 154.374023438 47.3369140625 159.215820312 47.3369140625 c 0
 164.056640625 47.3369140625 167.987304688 53.2333984375 167.987304688 60.4951171875 c 2
 167.987304688 81.3642578125 l 1
 248.240234375 -39.0146484375 l 1
 51.1796875 -137.545898438 l 2
 41.849609375 -142.2109375 44.10546875 -163.189453125 53.9521484375 -163.189453125 c 0
 54.9208984375 -163.189453125 55.8525390625 -162.953125 56.724609375 -162.517578125 c 2
 267.250976562 -57.25390625 l 2
 273.389648438 -54.185546875 275.3046875 -42.4033203125 270.6796875 -35.4658203125 c 2
 165.416992188 122.428710938 l 2
 159.909179688 130.69140625 150.443359375 124.776367188 150.443359375 113.126953125 c 2
 150.443359375 60.4951171875 l 2
EndSplineSet
EndChar

StartChar: glyph28
Encoding: 27 123 28
Width: 315
VWidth: 0
Flags: HW
LayerCount: 2
Fore
SplineSet
128.802734375 -85.6240234375 m 2
 120.817382812 -69.6513671875 99.3701171875 -66.078125 86.6552734375 -78.7919921875 c 0
 78.4404296875 -87.0078125 76.796875 -99.3212890625 81.724609375 -109.176757812 c 2
 134.35546875 -214.440429688 l 2
 146.634765625 -238.999023438 184.205078125 -230.245117188 184.205078125 -202.663085938 c 2
 184.205078125 54.28125 l 1
 188.319335938 46.0537109375 188.88671875 44.91796875 191.91796875 41.8876953125 c 0
 202.1875 31.6171875 218.864257812 31.6171875 229.133789062 41.8876953125 c 0
 237.349609375 50.1025390625 238.993164062 62.416015625 234.065429688 72.271484375 c 2
 181.434570312 177.53515625 l 2
 169.155273438 202.09375 131.583984375 193.33984375 131.583984375 165.7578125 c 2
 131.583984375 -91.185546875 l 1
 128.802734375 -85.6240234375 l 2
EndSplineSet
EndChar

StartChar: y,
Encoding: 28 -1 29
Width: 263
VWidth: 0
Flags: HW
LayerCount: 2
Fore
SplineSet
38.9453125 -40.2734375 m 0
 16.3681640625 -43.0302734375 26.275390625 -50.03125 52.6318359375 -50.03125 c 0
 57.6435546875 -50.03125 62.3291015625 -49.7509765625 66.318359375 -49.263671875 c 0
 92.30078125 -46.0908203125 110.956054688 -40.208984375 127.911132812 -32.5185546875 c 0
 243.3671875 19.849609375 275.736328125 176.192382812 183.737304688 272.018554688 c 0
 181.405273438 274.447265625 170.713867188 276.284179688 157.893554688 276.284179688 c 0
 141.383789062 276.284179688 128.935546875 273.268554688 132.049804688 270.024414062 c 0
 223.163085938 175.12109375 188.681640625 21.1396484375 79.7275390625 -28.2802734375 c 0
 64.4462890625 -35.2109375 48.6083984375 -39.0927734375 38.9453125 -40.2734375 c 0
EndSplineSet
Ligature2: "liga-1" y ,
EndChar

StartChar: glyph30
Encoding: 29 55 30
Width: 211
VWidth: 0
Flags: HW
LayerCount: 2
Fore
SplineSet
160.526367188 271.020507812 m 0
 160.526367188 286.54296875 159.184570312 298.759765625 157.629882812 297.205078125 c 2
 52.3671875 191.94140625 l 2
 51.0390625 190.61328125 50 179.388671875 50 165.7578125 c 0
 50 150.235351562 51.341796875 138.018554688 52.896484375 139.573242188 c 2
 158.159179688 244.836914062 l 2
 159.487304688 246.165039062 160.526367188 257.389648438 160.526367188 271.020507812 c 0
EndSplineSet
EndChar

StartChar: >.alt1
Encoding: 30 -1 31
Width: 452
VWidth: 0
Flags: HW
LayerCount: 2
Fore
SplineSet
220.317382812 -209.987304688 m 0
 176.70703125 -209.987304688 136.499023438 -199.373046875 135.640625 -199.373046875 c 0
 130.6796875 -199.373046875 129.594726562 -204.6796875 134.318359375 -205.799804688 c 0
 552 -304.86328125 533.544921875 309.892578125 220.5625 309.892578125 c 0
 178.62890625 309.892578125 131.852539062 298.793945312 80.619140625 273.780273438 c 0
 -0.7783203125 234.038085938 -25.99609375 131.463867188 26.51953125 58.9287109375 c 0
 29.2626953125 55.138671875 36.9697265625 58.2822265625 34.2333984375 62.060546875 c 0
 -16.4931640625 132.125 8.60546875 230.770507812 85.3955078125 268.262695312 c 0
 480.970703125 461.392578125 581.215820312 -209.987304688 220.317382812 -209.987304688 c 0
35.4833984375 8.5029296875 m 2
 33.81640625 11.8369140625 23.595703125 10.5732421875 25.2705078125 7.2236328125 c 2
 77.900390625 -98.0390625 l 2
 79.5673828125 -101.373046875 89.7880859375 -100.108398438 88.11328125 -96.759765625 c 2
 35.4833984375 8.5029296875 l 2
EndSplineSet
EndChar

StartChar: >.alt2
Encoding: 31 -1 32
Width: 549
VWidth: 0
Flags: HW
LayerCount: 2
Fore
SplineSet
427.466796875 -17.6591796875 m 2
 447.177734375 -12.7314453125 454.100585938 12.03125 439.661132812 26.470703125 c 0
 432.8828125 33.2490234375 423.314453125 35.5537109375 414.638671875 33.384765625 c 2
 204.111328125 -19.24609375 l 2
 184.400390625 -24.173828125 177.478515625 -48.9375 191.91796875 -63.376953125 c 0
 198.696289062 -70.1552734375 208.264648438 -72.458984375 216.940429688 -70.291015625 c 2
 427.466796875 -17.6591796875 l 2
106.92578125 431.829101562 m 2
 104.262695312 434.936523438 100.926757812 429.122070312 103.600585938 426.002929688 c 2
 419.390625 57.58203125 l 2
 421.1015625 55.5859375 423.684570312 57.33984375 423.684570312 60.4951171875 c 0
 423.684570312 61.6689453125 423.306640625 62.71875 422.715820312 63.408203125 c 2
 106.92578125 431.829101562 l 2
EndSplineSet
EndChar

StartChar: \.alt2
Encoding: 32 -1 33
Width: 368
VWidth: 0
Flags: HW
LayerCount: 2
Fore
SplineSet
185.00390625 1.44921875 m 2
 189.931640625 -18.26171875 214.694335938 -25.1845703125 229.133789062 -10.7451171875 c 0
 235.912109375 -3.966796875 238.216796875 5.6015625 236.047851562 14.27734375 c 2
 183.416992188 224.8046875 l 2
 178.489257812 244.515625 153.7265625 251.4375 139.287109375 236.998046875 c 0
 132.508789062 230.219726562 130.204101562 220.651367188 132.373046875 211.975585938 c 2
 185.00390625 1.44921875 l 2
EndSplineSet
EndChar

StartChar: glyph34
Encoding: 33 47 34
Width: 367
VWidth: 0
Flags: HW
LayerCount: 2
Fore
SplineSet
80.3056640625 -141.6796875 m 2
 71.5859375 -167.838867188 104.415039062 -188.095703125 123.872070312 -168.638671875 c 0
 126.85546875 -165.655273438 128.971679688 -162.131835938 130.221679688 -158.380859375 c 2
 288.116210938 315.302734375 l 2
 290.30859375 321.879882812 289.834960938 329.153320312 286.697265625 335.4296875 c 2
 234.06640625 440.692382812 l 2
 226.080078125 456.665039062 204.6328125 460.23828125 191.918945312 447.524414062 c 0
 183.703125 439.30859375 182.059570312 426.995117188 186.987304688 417.139648438 c 2
 234.7421875 321.629882812 l 1
 80.3056640625 -141.6796875 l 2
EndSplineSet
EndChar

StartChar: \.alt3
Encoding: 34 -1 35
Width: 169
VWidth: 0
Flags: HW
LayerCount: 2
Fore
SplineSet
115.197265625 -35.4658203125 m 2
 112.416992188 -29.90625 107.838867188 -30.4306640625 105.390625 -36.595703125 c 1
 9.490234375 123.239257812 l 2
 5.224609375 130.349609375 -1.2958984375 124.229492188 -1.2958984375 113.126953125 c 0
 -1.2958984375 109.064453125 -0.373046875 105.4296875 1.0751953125 103.014648438 c 2
 158.969726562 -160.143554688 l 2
 163.236328125 -167.254882812 169.756835938 -161.133789062 169.756835938 -150.032226562 c 0
 169.756835938 -146.400390625 169.01953125 -143.111328125 167.828125 -140.729492188 c 2
 115.197265625 -35.4658203125 l 2
EndSplineSet
EndChar

StartChar: ~~
Encoding: 35 -1 36
Width: 322
VWidth: 0
Flags: HW
LayerCount: 2
Fore
SplineSet
52.1513671875 111.741210938 m 2
 53.318359375 107.076171875 58.5625 108.204101562 58.5625 113.126953125 c 0
 58.5625 113.841796875 58.5625 113.841796875 7.9443359375 316.317382812 c 1
 317.833007812 161.37109375 317.833007812 161.37109375 318.430664062 161.37109375 c 0
 322.055664062 161.37109375 322.977539062 168.168945312 319.583984375 169.865234375 c 0
 3.240234375 328.040039062 3.240234375 328.040039062 2.6416015625 328.040039062 c 0
 0.39453125 328.040039062 -1.185546875 325.090820312 -0.4794921875 322.267578125 c 2
 52.1513671875 111.741210938 l 2
EndSplineSet
Ligature2: "liga-1" ~ ~
EndChar

StartChar: glyph37
Encoding: 36 50 37
Width: 500
VWidth: 0
Flags: HW
LayerCount: 2
Fore
SplineSet
86.6552734375 252.413085938 m 0
 99.3701171875 239.69921875 120.817382812 243.272460938 128.802734375 259.244140625 c 2
 181.434570312 364.5078125 l 2
 187.901367188 377.442382812 182.690429688 393.314453125 169.671875 399.823242188 c 2
 64.408203125 452.455078125 l 2
 54.552734375 457.3828125 42.23828125 455.739257812 34.0224609375 447.524414062 c 0
 21.30859375 434.809570312 24.8818359375 413.36328125 40.8544921875 405.376953125 c 2
 122.58203125 364.512695312 l 1
 81.724609375 282.797851562 l 2
 76.796875 272.942382812 78.4404296875 260.627929688 86.6552734375 252.413085938 c 0
118.184570312 429.520507812 m 0
 60.2978515625 371.6328125 70.6865234375 285.7890625 116.04296875 240.431640625 c 0
 188.423828125 168.051757812 329.435546875 200.825195312 341.95703125 320.904296875 c 0
 344.520507812 345.481445312 314.578125 359.657226562 297.181640625 342.260742188 c 0
 292.74609375 337.825195312 290.2265625 332.1953125 289.622070312 326.401367188 c 0
 281.515625 248.669921875 192.616210938 238.291015625 153.258789062 277.6484375 c 0
 142.055664062 288.8515625 133.716796875 304.487304688 131.431640625 326.401367188 c 0
 120.374023438 432.423828125 317.7109375 489.704101562 397.043945312 312.8671875 c 0
 476.47265625 135.814453125 350.853515625 -64.9208984375 157.048828125 -71.103515625 c 0
 134.100585938 -71.8349609375 123.0859375 -99.8095703125 139.286132812 -116.008789062 c 0
 144.635742188 -121.358398438 151.723632812 -123.921875 158.739257812 -123.697265625 c 0
 389.979492188 -116.3203125 539.69921875 123.484375 445.061523438 334.44140625 c 0
 369.4140625 503.060546875 197.5390625 508.874023438 118.184570312 429.520507812 c 0
38.048828125 135.036132812 m 2
 24.2421875 125.831054688 22.2890625 106.252929688 34.0234375 94.517578125 c 0
 43.0400390625 85.5009765625 56.9931640625 84.400390625 67.21484375 91.21484375 c 2
 365.0703125 289.788085938 l 1
 402.444335938 252.4140625 l 2
 412.71484375 242.143554688 429.390625 242.143554688 439.661132812 252.4140625 c 0
 449.930664062 262.684570312 449.930664062 279.360351562 439.661132812 289.629882812 c 2
 387.029296875 342.26171875 l 2
 378.012695312 351.278320312 364.059570312 352.37890625 353.837890625 345.564453125 c 2
 38.048828125 135.036132812 l 2
EndSplineSet
EndChar

StartChar: \.alt4
Encoding: 37 -1 38
Width: 166
VWidth: 0
Flags: HW
LayerCount: 2
Fore
SplineSet
161.500976562 -71.0263671875 m 2
 164.55078125 -72.04296875 167.119140625 -59.9423828125 167.119140625 -44.76953125 c 0
 167.119140625 -30.841796875 164.950195312 -19.42578125 162.2109375 -18.5126953125 c 0
 4.1396484375 34.181640625 4.1396484375 34.181640625 3.9619140625 34.181640625 c 0
 1.0576171875 34.181640625 -1.30078125 22.3896484375 -1.30078125 7.8662109375 c 0
 -1.30078125 -6.0625 0.8681640625 -17.4775390625 3.607421875 -18.390625 c 2
 161.500976562 -71.0263671875 l 2
6.9755859375 345.227539062 m 2
 3.5068359375 357.3671875 -1.30078125 344.876953125 -1.30078125 323.654296875 c 0
 -1.30078125 314.731445312 -0.4111328125 306.83984375 0.9482421875 302.080078125 c 2
 79.42578125 27.4111328125 l 1
 5.474609375 138.337890625 l 2
 2.1142578125 143.377929688 -1.30078125 130.770507812 -1.30078125 113.126953125 c 0
 -1.30078125 101.231445312 0.2802734375 91.1689453125 2.44921875 87.916015625 c 2
 107.712890625 -69.9794921875 l 2
 111.073242188 -75.01953125 114.489257812 -62.412109375 114.489257812 -44.7685546875 c 0
 114.489257812 -35.845703125 113.598632812 -27.955078125 112.239257812 -23.1953125 c 2
 6.9755859375 345.227539062 l 2
59.3681640625 164.833007812 m 2
 60.578125 168.461914062 55.0302734375 170.313476562 53.8193359375 166.681640625 c 0
 1.0380859375 8.33984375 1.0380859375 8.33984375 1.0380859375 7.86328125 c 0
 1.0380859375 4.5810546875 5.7001953125 3.8291015625 6.7373046875 6.939453125 c 2
 59.3681640625 164.833007812 l 2
EndSplineSet
EndChar

StartChar: glyph39
Encoding: 38 79 39
Width: 315
VWidth: 0
Flags: HW
LayerCount: 2
Fore
SplineSet
92.33984375 56.693359375 m 0
 92.33984375 112.124023438 136.024414062 159.720703125 189.759765625 159.720703125 c 0
 220.744140625 159.720703125 249.331054688 143.358398438 260.40234375 112.150390625 c 0
 298.005859375 6.15234375 213.234375 -41.16796875 139.557617188 -31.8330078125 c 1
 109.479492188 -11.8017578125 92.33984375 21.900390625 92.33984375 56.693359375 c 0
46.1572265625 63.3349609375 m 0
 46.1572265625 88.5126953125 55.5556640625 112.620117188 55.5556640625 113.126953125 c 0
 55.5556640625 116.377929688 50.9609375 117.165039062 49.875 114.103515625 c 0
 17.3935546875 22.5458984375 72.8310546875 -28.5126953125 137.422851562 -37.4296875 c 0
 146.807617188 -43.51953125 156.666015625 -47.6923828125 157.893554688 -47.6923828125 c 0
 161.078125 -47.6923828125 161.938476562 -43.2431640625 158.983398438 -42.0546875 c 0
 156.411132812 -41.01953125 153.905273438 -39.8974609375 151.46484375 -38.6943359375 c 1
 225.451171875 -41.859375 302.999023438 9.5703125 265.915039062 114.103515625 c 0
 253.912109375 147.9375 222.774414062 165.569335938 189.759765625 165.569335938 c 0
 132.84375 165.569335938 86.4921875 115.399414062 86.4921875 56.693359375 c 0
 86.4921875 23.8369140625 100.99609375 -8.123046875 126.823242188 -29.6220703125 c 1
 82.7861328125 -19.8427734375 46.1572265625 11.25 46.1572265625 63.3349609375 c 0
EndSplineSet
EndChar

StartChar: glyph40
Encoding: 39 97 40
Width: 541
VWidth: 0
Flags: HW
LayerCount: 2
Fore
SplineSet
479.265625 372.506835938 m 0
 482.592773438 369.280273438 488.192382812 371.662109375 488.192382812 376.284179688 c 0
 488.192382812 377.765625 487.579101562 379.104492188 486.592773438 380.061523438 c 0
 396.583984375 467.3828125 253.485351562 467.381835938 163.475585938 380.061523438 c 0
 -70.044921875 153.517578125 181.7890625 -227.481445312 480.427734375 -104.166015625 c 1
 530.849609375 -205.01171875 l 2
 533.315429688 -209.944335938 540.823242188 -208.166992188 540.823242188 -202.663085938 c 0
 540.823242188 -201.819335938 540.624023438 -201.022460938 540.270507812 -200.314453125 c 2
 487.639648438 -95.0517578125 l 2
 486.388671875 -92.548828125 483.405273438 -91.466796875 480.85546875 -92.5615234375 c 0
 191.020507812 -217.079101562 -55.6923828125 152.77734375 170.802734375 372.506835938 c 0
 256.725585938 455.862304688 393.33984375 455.8671875 479.265625 372.506835938 c 0
488.790039062 139.561523438 m 0
 488.790039062 96.6279296875 477.666015625 61.2939453125 477.666015625 60.4951171875 c 0
 477.666015625 54.447265625 486.365234375 53.259765625 487.997070312 59.0703125 c 0
 559.012695312 311.879882812 281.822265625 519.659179688 59.09765625 380.75390625 c 0
 26.689453125 360.541992188 -0.234375 328.688476562 -0.234375 293.508789062 c 0
 -0.234375 262.778320312 30.2158203125 200.595703125 93.8984375 200.595703125 c 0
 174.669921875 200.595703125 255.159179688 299.631835938 170.76953125 380.09375 c 0
 165.786132812 384.844726562 158.516601562 377.234375 163.508789062 372.475585938 c 0
 241.3671875 298.241210938 164.224609375 211.122070312 93.8984375 211.122070312 c 0
 35.04296875 211.122070312 10.291015625 269.689453125 10.291015625 293.508789062 c 0
 10.291015625 323.146484375 33.8232421875 352.5859375 64.65625 371.815429688 c 0
 256.16015625 491.25 488.790039062 344.76171875 488.790039062 139.561523438 c 0
211.05078125 -203.067382812 m 2
 212.26953125 -207.9453125 229.720703125 -207.166992188 228.494140625 -202.258789062 c 2
 175.860351562 8.267578125 l 2
 174.641601562 13.1455078125 157.190429688 12.3671875 158.416992188 7.458984375 c 2
 211.05078125 -203.067382812 l 2
EndSplineSet
EndChar

StartChar: \.alt5
Encoding: 40 -1 41
Width: 789
VWidth: 0
Flags: HW
LayerCount: 2
Fore
SplineSet
528.866210938 215.170898438 m 2
 530.737304688 222.657226562 525.646484375 229.133789062 523.764648438 221.607421875 c 2
 420.943359375 -189.682617188 l 1
 265.65234375 379.717773438 l 2
 264.116210938 385.348632812 260.234375 382.866210938 260.234375 376.284179688 c 2
 260.234375 323.654296875 l 2
 260.234375 315.041015625 266.08203125 315.041015625 266.08203125 323.654296875 c 2
 266.08203125 352.984375 l 1
 418.55859375 -206.09765625 l 2
 419.725585938 -210.375976562 422.510742188 -210.251953125 423.603515625 -205.881835938 c 2
 528.866210938 215.170898438 l 2
EndSplineSet
EndChar

StartChar: "+IBQAfgAA"
Encoding: 41 -1 42
Width: 368
VWidth: 0
Flags: HW
LayerCount: 2
Fore
SplineSet
262.452148438 100.201171875 m 2
 267.293945312 96.9736328125 268.689453125 122.8359375 263.865234375 126.052734375 c 0
 105.620117188 231.546875 105.620117188 231.546875 105.262695312 231.546875 c 0
 100.759765625 231.546875 100.146484375 208.403320312 104.555664062 205.463867188 c 2
 262.452148438 100.201171875 l 2
52.849609375 126.262695312 m 2
 47.5224609375 126.262695312 47.8046875 100.913085938 52.4140625 99.9912109375 c 0
 315.6796875 47.3369140625 315.6796875 47.3369140625 315.7890625 47.3369140625 c 0
 317.864257812 47.3369140625 319.548828125 53.2333984375 319.548828125 60.4951171875 c 0
 319.548828125 67.501953125 317.98046875 73.236328125 316.006835938 73.6318359375 c 2
 52.849609375 126.262695312 l 2
EndSplineSet
Ligature2: "liga-1" — ~
EndChar

StartChar: glyph43
Encoding: 42 121 43
Width: 287
VWidth: 0
Flags: HW
LayerCount: 2
Fore
SplineSet
167.149414062 165.7578125 m 2
 167.149414062 158.495117188 168.329101562 152.599609375 169.78125 152.599609375 c 0
 171.233398438 152.599609375 172.413085938 158.495117188 172.413085938 165.7578125 c 2
 172.413085938 218.388671875 l 2
 172.413085938 227.0390625 170.766601562 233.323242188 169.102539062 231.104492188 c 2
 11.2080078125 20.578125 l 2
 7.88671875 16.1494140625 9.2314453125 -9.2978515625 12.5654296875 -4.8515625 c 2
 167.149414062 201.259765625 l 1
 167.149414062 165.7578125 l 2
12.4052734375 441.818359375 m 2
 10.77734375 443.4453125 9.2548828125 437.213867188 9.2548828125 428.916015625 c 0
 9.2548828125 422.541015625 10.1640625 417.21875 11.369140625 416.013671875 c 2
 149.825195312 277.556640625 l 1
 11.7099609375 231.517578125 l 2
 10.33984375 231.060546875 9.2548828125 225.353515625 9.2548828125 218.388671875 c 0
 9.2548828125 210.9375 10.49609375 204.942382812 11.9931640625 205.2421875 c 2
 275.151367188 257.874023438 l 2
 276.5546875 258.154296875 277.676757812 263.9375 277.676757812 271.020507812 c 0
 277.676757812 278.471679688 276.436523438 284.467773438 274.938476562 284.16796875 c 2
 171.950195312 263.5703125 l 1
 173.021484375 271.350585938 172.137695312 282.084960938 170.299804688 283.923828125 c 2
 12.4052734375 441.818359375 l 2
129.51953125 419.932617188 m 2
 132.620117188 436.984375 126.290039062 455.231445312 117.149414062 455.231445312 c 0
 111.46484375 455.231445312 106.6171875 448.005859375 104.779296875 437.899414062 c 2
 -0.4833984375 -141.047851562 l 2
 -4.521484375 -163.258789062 7.1953125 -184.147460938 17.7578125 -173.584960938 c 2
 280.916992188 89.57421875 l 2
 293.248046875 101.905273438 288.803710938 139.442382812 275.044921875 139.442382812 c 0
 272.935546875 139.442382812 270.94140625 138.448242188 269.173828125 136.6796875 c 2
 35.541015625 -96.953125 l 1
 129.51953125 419.932617188 l 2
EndSplineSet
EndChar

StartChar: /.alt1
Encoding: 43 -1 44
Width: 114
VWidth: 0
Flags: HW
LayerCount: 2
Fore
SplineSet
9.669921875 271.020507812 m 2
 9.669921875 274.848632812 0.8974609375 274.848632812 0.8974609375 271.020507812 c 2
 0.8974609375 -97.400390625 l 2
 0.8974609375 -101.227539062 9.669921875 -101.227539062 9.669921875 -97.400390625 c 2
 9.669921875 271.020507812 l 2
106.16015625 7.86328125 m 2
 106.16015625 4.03515625 114.932617188 4.03515625 114.932617188 7.86328125 c 2
 114.932617188 165.7578125 l 2
 114.932617188 169.5859375 106.16015625 169.5859375 106.16015625 165.7578125 c 2
 106.16015625 7.86328125 l 2
-1.2958984375 -202.663085938 m 2
 -1.2958984375 -207.584960938 11.8623046875 -207.584960938 11.8623046875 -202.663085938 c 2
 11.8623046875 -150.248046875 l 1
 64.4931640625 112.91015625 64.4931640625 112.91015625 64.4931640625 113.126953125 c 0
 64.4931640625 117.79296875 52.302734375 118.1796875 51.37890625 113.557617188 c 0
 -1.2958984375 -149.814453125 -1.2958984375 -149.814453125 -1.2958984375 -150.03125 c 2
 -1.2958984375 -202.663085938 l 2
EndSplineSet
EndChar

StartChar: glyph45
Encoding: 44 111 45
Width: 488
VWidth: 0
Flags: HW
LayerCount: 2
Fore
SplineSet
380.599609375 -99.7978515625 m 0
 385.083984375 -98.373046875 381.974609375 -93.580078125 377.498046875 -95.0029296875 c 0
 -102.627929688 -247.581054688 -87.0625 477.84765625 257.48828125 477.84765625 c 0
 307.440429688 477.84765625 364.891601562 462.65625 429.345703125 426.854492188 c 0
 450.826171875 414.921875 468.71875 397.091796875 480.806640625 375.33203125 c 0
 482.58984375 372.122070312 489.600585938 374.026367188 487.817382812 377.236328125 c 0
 475.334960938 399.70703125 456.763671875 418.340820312 434.014648438 430.978515625 c 0
 -39.7353515625 694.131835938 -165.061523438 -121.416015625 253.53125 -121.416015625 c 0
 291.575195312 -121.416015625 333.885742188 -114.643554688 380.599609375 -99.7978515625 c 0
387.8203125 -44.7685546875 m 2
 387.8203125 -39.84765625 370.276367188 -39.84765625 370.276367188 -44.7685546875 c 2
 370.276367188 -97.400390625 l 2
 370.276367188 -97.9248046875 370.528320312 -98.4248046875 370.981445312 -98.8779296875 c 2
 423.61328125 -151.509765625 l 2
 428.138671875 -156.034179688 444.267578125 -153.073242188 439.747070312 -148.552734375 c 2
 387.8203125 -96.626953125 l 1
 387.8203125 -44.7685546875 l 2
EndSplineSet
EndChar

StartChar: glyph46
Encoding: 45 76 46
Width: 421
VWidth: 0
Flags: HW
LayerCount: 2
Fore
SplineSet
368.420898438 -228.973632812 m 2
 391.7890625 -228.974609375 403.50390625 -200.530273438 387.029296875 -184.055664062 c 0
 381.893554688 -178.919921875 375.157226562 -176.352539062 368.420898438 -176.352539062 c 2
 95.21484375 -176.3515625 l 1
 234.06640625 101.349609375 l 2
 238.994140625 111.205078125 237.350585938 123.51953125 229.134765625 131.734375 c 0
 216.420898438 144.448242188 194.973632812 140.875 186.987304688 124.903320312 c 2
 29.0927734375 -190.885742188 l 2
 20.4111328125 -208.248046875 33.009765625 -228.97265625 52.6318359375 -228.973632812 c 2
 368.420898438 -228.973632812 l 2
EndSplineSet
EndChar

StartChar: IS
Encoding: 46 -1 47
Width: 374
VWidth: 0
Flags: HW
LayerCount: 2
Fore
SplineSet
131.458007812 -95.4453125 m 2
 119.125976562 -91.3349609375 81.5888671875 -92.81640625 81.5888671875 -97.40234375 c 0
 81.5888671875 -98.10546875 82.583984375 -98.7705078125 84.3525390625 -99.359375 c 2
 242.247070312 -151.990234375 l 2
 254.579101562 -156.100585938 292.116210938 -154.619140625 292.116210938 -150.033203125 c 0
 292.116210938 -149.330078125 291.12109375 -148.665039062 289.352539062 -148.076171875 c 2
 131.458007812 -95.4453125 l 2
370.140625 -153.641601562 m 2
 372.236328125 -154.33984375 374.3515625 -152.540039062 374.3515625 -150.032226562 c 0
 374.3515625 -148.322265625 373.3515625 -146.877929688 371.983398438 -146.421875 c 0
 55.7451171875 -41.0087890625 55.7451171875 -41.0087890625 55.2734375 -41.0087890625 c 0
 53.4580078125 -41.0087890625 51.9833984375 -42.693359375 51.9833984375 -44.7685546875 c 2
 51.9833984375 -90.580078125 l 1
 5.9052734375 324.131835938 l 2
 5.3955078125 328.71875 -0.6474609375 328.291992188 -0.6474609375 323.654296875 c 0
 -0.6474609375 323.413085938 -0.6474609375 323.413085938 52.009765625 -150.508789062 c 0
 52.51953125 -155.096679688 58.5625 -154.669921875 58.5625 -150.032226562 c 2
 58.5625 -49.78125 l 1
 370.140625 -153.641601562 l 2
368.204101562 -151.892578125 m 2
 370.34375 -156.171875 376.053710938 -152.4375 373.920898438 -148.170898438 c 0
 332.862304688 -66.052734375 321.1953125 -42.390625 320.314453125 -41.6865234375 c 2
 57.15625 168.838867188 l 2
 54.98828125 170.573242188 51.9833984375 168.7890625 51.9833984375 165.7578125 c 0
 51.9833984375 164.482421875 52.5400390625 163.35546875 53.3896484375 162.67578125 c 2
 315.940429688 -47.3642578125 l 1
 368.204101562 -151.892578125 l 2
EndSplineSet
Ligature2: "liga-1" I S
EndChar

StartChar: glyph48
Encoding: 47 60 48
Width: 315
VWidth: 0
Flags: HW
LayerCount: 2
Fore
SplineSet
142.479492188 60.4951171875 m 1
 176.502929688 94.5185546875 l 2
 186.7734375 104.788085938 186.7734375 121.463867188 176.502929688 131.734375 c 0
 166.232421875 142.004882812 149.556640625 142.004882812 139.287109375 131.734375 c 2
 86.6552734375 79.103515625 l 2
 76.3857421875 68.8330078125 76.3857421875 52.1572265625 86.6552734375 41.8876953125 c 2
 191.918945312 -63.3759765625 l 2
 202.188476562 -73.6455078125 218.86328125 -73.646484375 229.133789062 -63.376953125 c 0
 239.404296875 -53.1064453125 239.404296875 -36.4306640625 229.133789062 -26.16015625 c 0
 200.249023438 2.724609375 171.365234375 31.6103515625 142.479492188 60.4951171875 c 1
EndSplineSet
EndChar

StartChar: 19
Encoding: 48 -1 49
Width: 621
VWidth: 0
Flags: HW
LayerCount: 2
Fore
SplineSet
49.1396484375 439.620117188 m 2
 41.6904296875 456.380859375 19.556640625 460.595703125 6.4853515625 447.524414062 c 0
 -1.43359375 439.604492188 -3.24609375 427.875 1.048828125 418.211914062 c 2
 206.5234375 -44.1064453125 l 1
 159.448242188 -138.254882812 l 2
 154.520507812 -148.110351562 156.1640625 -160.423828125 164.379882812 -168.639648438 c 0
 177.09375 -181.353515625 198.541015625 -177.780273438 206.52734375 -161.80859375 c 2
 259.16015625 -56.5458984375 l 2
 262.677734375 -49.509765625 262.846679688 -41.220703125 259.666015625 -34.064453125 c 2
 49.1396484375 439.620117188 l 2
231.005859375 35.845703125 m 2
 239.55078125 29.4375 248.778320312 42.103515625 248.778320312 60.4951171875 c 0
 248.778320312 71.7724609375 245.223632812 81.4033203125 240.234375 85.14453125 c 2
 29.7080078125 243.0390625 l 2
 21.1630859375 249.447265625 11.935546875 236.780273438 11.935546875 218.388671875 c 0
 11.935546875 207.111328125 15.490234375 197.481445312 20.4794921875 193.739257812 c 2
 231.005859375 35.845703125 l 2
364.853515625 -164.502929688 m 0
 234.405273438 -164.502929688 133.502929688 -18.4521484375 130.357421875 -18.4521484375 c 0
 128.541992188 -18.4521484375 127.068359375 -30.244140625 127.068359375 -44.7685546875 c 0
 127.068359375 -57.919921875 128.276367188 -68.83203125 129.853515625 -70.7763671875 c 0
 214.831054688 -175.578125 294.961914062 -217.133789062 364.853515625 -217.133789062 c 0
 448.9296875 -217.133789062 518.155273438 -157.124023438 563.322265625 -74.1494140625 c 0
 585.483398438 -33.4375 610.5078125 28.642578125 618.966796875 110.983398438 c 0
 622.98828125 150.125 624.918945312 213.203125 613.12890625 269.788085938 c 0
 606.374023438 302.2109375 595.900390625 329.944335938 581.114257812 354.200195312 c 0
 524.146484375 447.651367188 408.899414062 475.80078125 235.444335938 402.563476562 c 0
 217.509765625 394.991210938 181.077148438 373.643554688 169.184570312 322.2890625 c 0
 166.249023438 309.615234375 164.584960938 293.748046875 164.584960938 274.055664062 c 0
 164.584960938 233.649414062 171.413085938 211.327148438 182.295898438 192.657226562 c 0
 184.340820312 189.149414062 186.27734375 201.638671875 186.27734375 218.388671875 c 0
 186.27734375 231.014648438 185.1640625 241.575195312 183.680664062 244.12109375 c 0
 179.301757812 251.6328125 174.45703125 261.993164062 171.9296875 274.099609375 c 1
 174.932617188 288.223632812 180.678710938 300.0234375 186.762695312 309.293945312 c 0
 198.104492188 326.576171875 214.782226562 341.1328125 235.795898438 350.005859375 c 0
 304.213867188 378.893554688 362.276367188 391.510742188 410.883789062 391.510742188 c 0
 492.3828125 391.510742188 547.342773438 355.864257812 579.787109375 302.640625 c 0
 594.198242188 279.000976562 604.1328125 251.586914062 609.750976562 224.622070312 c 0
 614.361328125 202.497070312 615.478515625 184.010742188 615.478515625 172.640625 c 0
 615.478515625 149.810546875 611.590820312 120.950195312 605.551757812 94.2265625 c 0
 575.297851562 -39.66015625 485.469726562 -164.502929688 364.853515625 -164.502929688 c 0
EndSplineSet
Ligature2: "liga-1" 1 9
EndChar

StartChar: glyph50
Encoding: 49 125 50
Width: 156
VWidth: 0
Flags: HW
LayerCount: 2
Fore
SplineSet
105.928710938 103.331054688 m 2
 112.89453125 85.9169921875 135.598632812 81.1513671875 148.965820312 94.5185546875 c 0
 156.638671875 102.19140625 158.579101562 113.440429688 154.786132812 122.921875 c 2
 49.5224609375 386.080078125 l 2
 42.5576171875 403.493164062 19.853515625 408.259765625 6.4853515625 394.892578125 c 0
 1.3505859375 389.756835938 -1.2158203125 383.020507812 -1.2158203125 376.284179688 c 0
 -1.2177734375 7.86328125 -1.2177734375 7.86328125 -1.2177734375 7.86328125 c 2
 -1.2177734375 -15.5048828125 27.2265625 -27.2197265625 43.701171875 -10.7451171875 c 0
 48.8359375 -5.609375 51.4033203125 1.126953125 51.4033203125 7.86328125 c 2
 51.404296875 239.640625 l 1
 105.928710938 103.331054688 l 2
EndSplineSet
EndChar

StartChar: glyph51
Encoding: 50 41 51
Width: 210
VWidth: 0
Flags: HW
LayerCount: 2
Fore
SplineSet
128.802734375 440.692382812 m 2
 120.81640625 456.665039062 99.369140625 460.23828125 86.6552734375 447.524414062 c 0
 78.439453125 439.30859375 76.7958984375 426.995117188 81.7236328125 417.139648438 c 2
 127.521484375 325.54296875 l 1
 30.7216796875 180.33984375 l 2
 23.9072265625 170.118164062 25.0078125 156.165039062 34.0234375 147.149414062 c 0
 45.759765625 135.413085938 65.3388671875 137.368164062 74.54296875 151.174804688 c 2
 179.8046875 309.0703125 l 2
 185.06640625 316.961914062 185.608398438 327.079101562 181.43359375 335.4296875 c 2
 128.802734375 440.692382812 l 2
EndSplineSet
EndChar

StartChar: \.alt6
Encoding: 51 -1 52
Width: 473
VWidth: 0
Flags: HW
LayerCount: 2
Fore
SplineSet
313.759765625 -55.8447265625 m 2
 316.24609375 -61.4384765625 319.548828125 -55.154296875 319.548828125 -44.7685546875 c 0
 319.548828125 -40.12109375 318.858398438 -36.033203125 317.818359375 -33.6923828125 c 2
 140.33984375 365.634765625 l 1
 367.02734375 48.2734375 l 2
 369.478515625 44.83984375 372.180664062 51.1787109375 372.180664062 60.4951171875 c 0
 372.180664062 66.0341796875 371.200195312 70.77734375 369.814453125 72.7177734375 c 2
 106.65625 441.138671875 l 2
 102.49609375 446.963867188 99.44140625 426.372070312 103.233398438 417.83984375 c 2
 313.759765625 -55.8447265625 l 2
EndSplineSet
EndChar

StartChar: /.alt2
Encoding: 52 -1 53
Width: 208
VWidth: 0
Flags: HW
LayerCount: 2
Fore
SplineSet
6.4853515625 -221.271484375 m 0
 18.595703125 -233.381835938 38.8876953125 -230.83203125 47.6689453125 -216.196289062 c 2
 205.564453125 46.962890625 l 2
 211.629882812 57.0732421875 210.307617188 70.392578125 201.596679688 79.103515625 c 0
 189.486328125 91.2138671875 169.194335938 88.6640625 160.413085938 74.0283203125 c 2
 2.5185546875 -189.130859375 l 2
 -3.5478515625 -199.241210938 -2.2255859375 -212.560546875 6.4853515625 -221.271484375 c 0
EndSplineSet
EndChar

StartChar: Ly
Encoding: 53 -1 54
Width: 459
VWidth: 0
Flags: HW
LayerCount: 2
Fore
SplineSet
-1.310546875 271.020507812 m 0
 -1.310546875 267.608398438 3.8828125 267.557617188 3.9521484375 270.966796875 c 0
 5.68359375 356.022460938 74.21484375 424.552734375 159.270507812 426.28515625 c 0
 162.630859375 426.353515625 165.958984375 426.387695312 169.254882812 426.387695312 c 0
 602.29296875 426.387695312 488.8359375 -159.663085938 184.971679688 -159.663085938 c 0
 130.036132812 -159.663085938 68.638671875 -140.583007812 2.8115234375 -95.2314453125 c 0
 -0.0185546875 -93.2822265625 -3.013671875 -97.609375 -0.169921875 -99.568359375 c 0
 438.8828125 -402.053710938 691.982421875 442.396484375 159.161132812 431.546875 c 0
 71.2900390625 429.7578125 0.478515625 358.947265625 -1.310546875 271.020507812 c 0
161.076171875 427.055664062 m 2
 163.51171875 429.491210938 159.79296875 433.213867188 157.35546875 430.776367188 c 2
 52.091796875 325.514648438 l 2
 51.826171875 325.248046875 51.2109375 324.499023438 51.3369140625 323.360351562 c 2
 103.96875 -150.325195312 l 2
 104.34765625 -153.73828125 109.581054688 -153.172851562 109.19921875 -149.73828125 c 2
 56.7080078125 322.688476562 l 1
 161.076171875 427.055664062 l 2
315.249023438 163.896484375 m 2
 317.684570312 161.461914062 321.408203125 165.1796875 318.970703125 167.618164062 c 2
 266.338867188 220.25 l 2
 263.903320312 222.684570312 260.1796875 218.966796875 262.618164062 216.528320312 c 2
 315.249023438 163.896484375 l 2
EndSplineSet
Ligature2: "liga-1" L y
EndChar

StartChar: y.alt1
Encoding: 54 -1 55
Width: 157
VWidth: 0
Flags: HW
LayerCount: 2
Fore
SplineSet
96.7978515625 147.612304688 m 0
 180.848632812 231.663085938 177.154296875 366.703125 96.333984375 447.524414062 c 0
 86.0634765625 457.793945312 69.3876953125 457.793945312 59.1181640625 447.524414062 c 0
 48.8701171875 437.276367188 48.84765625 420.651367188 59.0498046875 410.375976562 c 0
 119.833984375 349.15625 122.970703125 248.142578125 59.1181640625 184.366210938 c 0
 48.84765625 174.096679688 48.84765625 157.419921875 59.1181640625 147.150390625 c 0
 68.0517578125 138.215820312 84.5341796875 135.348632812 96.7978515625 147.612304688 c 0
25.0927734375 385.056640625 m 0
 9.4521484375 385.056640625 -2.798828125 380.518554688 -1.0615234375 375.306640625 c 2
 51.5732421875 217.411132812 l 2
 53.0341796875 213.029296875 64.1943359375 209.6171875 77.7265625 209.6171875 c 0
 93.3671875 209.6171875 105.618164062 214.154296875 103.880859375 219.3671875 c 2
 51.24609375 377.26171875 l 2
 49.78515625 381.64453125 38.625 385.056640625 25.0927734375 385.056640625 c 0
EndSplineSet
EndChar

StartChar: \.alt7
Encoding: 55 -1 56
Width: 474
VWidth: 0
Flags: HW
LayerCount: 2
Fore
SplineSet
166.545898438 377.009765625 m 2
 164.805664062 382.233398438 149.122070312 381.59765625 149.122070312 376.28515625 c 0
 149.122070312 375.918945312 149.122070312 375.918945312 218.604492188 167.470703125 c 1
 214.90234375 171.828125 201.754882812 170.490234375 201.754882812 165.758789062 c 2
 201.754882812 -202.662109375 l 2
 201.754882812 -208.404296875 219.298828125 -208.404296875 219.298828125 -202.662109375 c 2
 219.298828125 121.4609375 l 1
 307.1875 -98.263671875 l 2
 309.3984375 -103.791015625 326.306640625 -102.268554688 324.44140625 -96.6748046875 c 2
 166.545898438 377.009765625 l 2
EndSplineSet
EndChar

StartChar: /.alt3
Encoding: 56 -1 57
Width: 276
VWidth: 0
Flags: HW
LayerCount: 2
Fore
SplineSet
-1.0439453125 -148.998046875 m 2
 -2.2392578125 -151.388671875 0.908203125 -153.790039062 5.283203125 -153.790039062 c 0
 8.287109375 -153.790039062 10.8232421875 -152.637695312 11.609375 -151.064453125 c 0
 275.01953125 375.754882812 275.01953125 375.754882812 275.01953125 376.284179688 c 0
 275.01953125 380.594726562 264.181640625 381.454101562 262.11328125 377.317382812 c 2
 -1.0439453125 -148.998046875 l 2
119.318359375 60.4951171875 m 2
 119.318359375 63.9404296875 101.774414062 63.9404296875 101.774414062 60.4951171875 c 2
 101.774414062 7.86328125 l 2
 101.774414062 4.7607421875 116.840820312 4.265625 119.104492188 7.2841796875 c 0
 277.211914062 218.095703125 277.211914062 218.095703125 277.211914062 218.389648438 c 0
 277.211914062 221.4921875 262.145507812 221.987304688 259.881835938 218.96875 c 2
 119.318359375 31.5498046875 l 1
 119.318359375 60.4951171875 l 2
208.282226562 -151.381835938 m 2
 212.836914062 -153.659179688 224.58203125 -152.677734375 224.58203125 -150.03125 c 0
 224.58203125 -149.537109375 224.126953125 -149.075195312 223.336914062 -148.6796875 c 2
 120.776367188 -97.400390625 l 1
 223.336914062 -46.1201171875 l 2
 229.229492188 -43.173828125 214.20703125 -40.455078125 208.282226562 -43.41796875 c 2
 103.018554688 -96.048828125 l 2
 102.5625 -96.27734375 100.447265625 -97.4658203125 103.018554688 -98.7509765625 c 2
 208.282226562 -151.381835938 l 2
EndSplineSet
EndChar

StartChar: \.alt8
Encoding: 57 -1 58
Width: 426
VWidth: 0
Flags: HW
LayerCount: 2
Fore
SplineSet
424.080078125 213.153320312 m 2
 428.9609375 213.850585938 428.21875 224.326171875 423.30859375 223.625 c 2
 56.302734375 171.1953125 l 1
 4.8232421875 222.674804688 l 2
 0.8271484375 226.669921875 -3.5556640625 218.118164062 0.4599609375 214.103515625 c 2
 53.091796875 161.471679688 l 2
 53.5380859375 161.024414062 54.4375 160.346679688 55.658203125 160.521484375 c 2
 424.080078125 213.153320312 l 2
EndSplineSet
EndChar

StartChar: glyph59
Encoding: 58 126 59
Width: 103
VWidth: 0
Flags: HW
LayerCount: 2
Fore
SplineSet
77.7265625 -53.5400390625 m 0
 95.70703125 -53.5400390625 108.346679688 -47.642578125 102.69921875 -41.99609375 c 2
 50.064453125 10.6357421875 l 2
 46.580078125 14.1201171875 36.7099609375 16.6357421875 25.0927734375 16.6357421875 c 0
 7.1123046875 16.6357421875 -5.52734375 10.73828125 0.1201171875 5.0908203125 c 2
 52.7548828125 -47.541015625 l 2
 56.2392578125 -51.025390625 66.109375 -53.5400390625 77.7265625 -53.5400390625 c 0
EndSplineSet
EndChar

StartChar: |.alt3
Encoding: 59 -1 60
Width: 161
VWidth: 0
Flags: HW
LayerCount: 2
Fore
SplineSet
56.0947265625 58.3134765625 m 2
 58.0927734375 62.30859375 53.81640625 66.69140625 51.8095703125 62.6767578125 c 2
 3.951171875 -33.0380859375 l 1
 3.951171875 323.654296875 l 2
 3.951171875 328.575195312 -1.3115234375 328.575195312 -1.3115234375 323.654296875 c 2
 -1.3115234375 -44.7685546875 l 2
 -1.3115234375 -48.396484375 1.98046875 -49.9150390625 3.462890625 -46.9501953125 c 2
 56.0947265625 58.3134765625 l 2
108.7265625 5.681640625 m 2
 109.573242188 7.375 109.294921875 9.7412109375 108.090820312 10.9453125 c 2
 2.826171875 116.208984375 l 2
 0.43359375 118.6015625 -2.5224609375 114.34375 -0.8232421875 110.9453125 c 2
 77.0341796875 -44.7685546875 l 1
 51.8095703125 -95.21875 l 2
 49.8115234375 -99.2138671875 54.0869140625 -103.596679688 56.0947265625 -99.58203125 c 2
 80.267578125 -51.2353515625 l 1
 157.073242188 -204.844726562 l 2
 159.078125 -208.85546875 163.359375 -204.481445312 161.359375 -200.481445312 c 2
 83.501953125 -44.7685546875 l 1
 108.7265625 5.681640625 l 2
12.3759765625 97.482421875 m 1
 102.8984375 6.9599609375 l 1
 80.267578125 -38.30078125 l 1
 12.3759765625 97.482421875 l 1
EndSplineSet
EndChar

StartChar: glyph61
Encoding: 60 45 61
Width: 645
VWidth: 0
Flags: HW
LayerCount: 2
Fore
SplineSet
285.875 -205.274414062 m 0
 289.956054688 -205.274414062 289.491210938 -200.420898438 286.53125 -200.051757812 c 0
 -58.443359375 -157.055664062 -98.77734375 326.889648438 234.325195312 426.39453125 c 0
 545.971679688 519.489257812 776.33984375 135.674804688 547.490234375 -95.548828125 c 0
 545.068359375 -97.9970703125 548.805664062 -101.701171875 551.23046875 -99.2509765625 c 0
 783.838867188 135.770507812 549.72265625 526.103515625 232.818359375 431.438476562 c 0
 -105.638671875 330.333984375 -64.6494140625 -161.5859375 285.875 -205.274414062 c 0
EndSplineSet
EndChar

StartChar: glyph62
Encoding: 61 89 62
Width: 389
VWidth: 0
Flags: HW
LayerCount: 2
Fore
SplineSet
51.9873046875 377.916015625 m 0
 -78.63671875 223.446289062 75.6572265625 -4.955078125 271.625976562 57.2060546875 c 0
 364.2734375 86.5927734375 410.751953125 184.247070312 380.155273438 271.760742188 c 0
 378.623046875 276.14453125 367.125 275.505859375 367.125 271.021484375 c 0
 367.125 270.477539062 376.3671875 247.249023438 376.3671875 216.862304688 c 0
 376.3671875 148.056640625 331.815429688 84.896484375 265.25390625 63.7841796875 c 0
 83.6435546875 6.1787109375 -61.40234375 226.54296875 63.841796875 374.651367188 c 0
 67.580078125 379.072265625 55.7431640625 382.357421875 51.9873046875 377.916015625 c 0
63.630859375 163.896484375 m 2
 67.892578125 168.158203125 56.482421875 171.903320312 52.1982421875 167.619140625 c 2
 -0.43359375 114.98828125 l 2
 -4.6943359375 110.7265625 6.71484375 106.981445312 10.9990234375 111.265625 c 2
 63.630859375 163.896484375 l 2
189.494140625 376.283203125 m 2
 189.494140625 378.704101562 177.702148438 380.668945312 163.177734375 380.668945312 c 0
 148.654296875 380.668945312 136.862304688 378.704101562 136.862304688 376.283203125 c 2
 136.862304688 -202.665039062 l 2
 136.862304688 -205.0859375 148.654296875 -207.05078125 163.177734375 -207.05078125 c 0
 177.702148438 -207.05078125 189.494140625 -205.0859375 189.494140625 -202.665039062 c 2
 189.494140625 376.283203125 l 2
EndSplineSet
EndChar

StartChar: glyph63
Encoding: 62 105 63
Width: 269
VWidth: 0
Flags: HW
LayerCount: 2
Fore
SplineSet
264.180664062 -101.051757812 m 2
 267.357421875 -104.228515625 270.612304688 -96.94140625 267.418945312 -93.748046875 c 2
 110.828125 62.841796875 l 1
 110.828125 271.020507812 l 2
 110.828125 276.762695312 104.98046875 276.762695312 104.98046875 271.020507812 c 2
 104.98046875 60.4951171875 l 2
 104.98046875 58.97265625 105.499023438 57.6298828125 106.28515625 56.8427734375 c 2
 264.180664062 -101.051757812 l 2
214.787109375 162.10546875 m 2
 217.9765625 165.294921875 214.729492188 172.58984375 211.548828125 169.409179688 c 2
 57.1044921875 14.96484375 l 1
 5.478515625 324.719726562 l 2
 4.654296875 329.666015625 -0.2822265625 328.765625 -0.2822265625 323.654296875 c 0
 -0.2822265625 323.110351562 -0.2822265625 323.110351562 52.4365234375 6.7978515625 c 0
 52.923828125 3.876953125 55.2109375 2.529296875 56.892578125 4.2119140625 c 2
 214.787109375 162.10546875 l 2
210.293945312 7.0517578125 m 2
 210.997070312 1.42578125 216.749023438 3.0166015625 216.041992188 8.67578125 c 2
 205.275390625 94.806640625 l 1
 210.30859375 59.5732421875 l 2
 210.590820312 57.5947265625 211.764648438 56.109375 213.16796875 56.109375 c 2
 265.799804688 56.109375 l 2
 269.627929688 56.109375 269.627929688 64.880859375 265.799804688 64.880859375 c 2
 215.532226562 64.880859375 l 1
 163.395507812 429.837890625 l 2
 162.60546875 435.368164062 156.963867188 433.694335938 157.662109375 428.104492188 c 2
 210.293945312 7.0517578125 l 2
EndSplineSet
EndChar

StartChar: we.alt1
Encoding: 63 -1 64
Width: 366
VWidth: 0
Flags: HW
LayerCount: 2
Fore
SplineSet
148.96484375 79.103515625 m 2
 138.6953125 89.373046875 122.018554688 89.373046875 111.749023438 79.103515625 c 0
 101.478515625 68.8330078125 101.478515625 52.1572265625 111.749023438 41.8876953125 c 2
 217.012695312 -63.376953125 l 2
 235.272460938 -81.63671875 266.502929688 -65.0048828125 261.41796875 -39.578125 c 2
 208.786132812 223.580078125 l 2
 203.91015625 247.95703125 170.575195312 252.41796875 159.44921875 230.166015625 c 2
 106.818359375 124.903320312 l 2
 101.890625 115.047851562 103.534179688 102.733398438 111.75 94.5185546875 c 0
 124.463867188 81.8037109375 145.911132812 85.376953125 153.897460938 101.349609375 c 2
 172.228515625 138.013671875 l 1
 192.772460938 35.2958984375 l 1
 148.96484375 79.103515625 l 2
100.16796875 46.5263671875 m 1
 165.7734375 131.255859375 274.102539062 75.228515625 288.887695312 0.4443359375 c 0
 293.780273438 -24.3017578125 289.306640625 -52.1298828125 267.181640625 -81.630859375 c 0
 191.731445312 -182.229492188 55.4619140625 -92.71875 77.7685546875 1.7275390625 c 1
 100.16796875 46.5263671875 l 1
291.927734375 -133.293945312 m 0
 356.868164062 -68.3544921875 361.719726562 26.341796875 296.323242188 91.7392578125 c 0
 235.651367188 152.41015625 125.846679688 168.514648438 56.654296875 76.265625 c 0
 43.3193359375 58.486328125 34.1494140625 39.95703125 28.7451171875 21.3916015625 c 1
 1.5537109375 -32.9921875 l 2
 -8.5009765625 -53.1005859375 9.9326171875 -75.9794921875 31.83203125 -70.20703125 c 1
 67.9765625 -168.333007812 203.265625 -221.95703125 291.927734375 -133.293945312 c 0
33.4443359375 138.084960938 m 2
 14.3291015625 144.456054688 -4.6708984375 127.776367188 -0.703125 107.935546875 c 2
 51.9287109375 -155.22265625 l 2
 56.412109375 -177.63671875 85.7939453125 -184.017578125 99.1572265625 -165.309570312 c 2
 229.544921875 17.234375 l 1
 332.534179688 -17.0947265625 l 2
 358.693359375 -25.814453125 378.94921875 7.0146484375 359.4921875 26.4716796875 c 0
 356.509765625 29.455078125 352.985351562 31.5712890625 349.235351562 32.8212890625 c 2
 261.5546875 62.0478515625 l 1
 362.314453125 203.112304688 l 2
 369.655273438 213.388671875 368.713867188 227.776367188 359.4921875 236.998046875 c 0
 348.009765625 248.48046875 328.912109375 246.912109375 319.452148438 233.66796875 c 2
 209.306640625 79.4638671875 l 1
 33.4443359375 138.084960938 l 2
91.615234375 -85.3046875 m 1
 59.791015625 73.8193359375 l 1
 177.297851562 34.650390625 l 1
 91.615234375 -85.3046875 l 1
EndSplineSet
EndChar

StartChar: "+IKwA."
Encoding: 64 -1 65
Width: 614
VWidth: 0
Flags: HW
LayerCount: 2
Fore
SplineSet
566.2421875 -53.0908203125 m 1
 559.053710938 -56.5986328125 534.486328125 -67.869140625 512.204101562 -45.5859375 c 0
 486.673828125 -20.0556640625 474.236328125 49.77734375 545.106445312 52.7646484375 c 0
 548.514648438 52.908203125 551.7578125 52.2685546875 554.676757812 51.001953125 c 1
 566.2421875 -53.0908203125 l 1
471.22265625 71.609375 m 0
 416.580078125 16.966796875 451.935546875 -91.8974609375 527.607421875 -105.110351562 c 0
 570.670898438 -112.62890625 606.173828125 -84.427734375 608.203125 -82.3974609375 c 0
 613.493164062 -77.107421875 615.754882812 -69.927734375 614.98828125 -63.021484375 c 2
 606.764648438 10.9912109375 l 1
 609.4375 13.2607421875 614.724609375 18.876953125 615.111328125 28.0556640625 c 0
 615.856445312 45.70703125 609.932617188 61.998046875 599.698242188 74.5849609375 c 1
 567.629882812 363.196289062 l 2
 565.447265625 382.837890625 541.3359375 391.284179688 527.358398438 377.306640625 c 0
 522.067382812 372.015625 519.805664062 364.8359375 520.573242188 357.9296875 c 2
 549.225585938 100.0625 l 1
 544.25 100.287109375 500.946289062 101.333984375 471.22265625 71.609375 c 0
540.200195312 69.703125 m 0
 556.15625 11.2294921875 562.935546875 -23.4287109375 541.659179688 -55.5087890625 c 0
 223.220703125 -535.6640625 8.3232421875 -158.326171875 8.3232421875 151.811523438 c 0
 8.3232421875 407.095703125 152.926757812 612.336914062 495.129882812 302.072265625 c 0
 495.397460938 301.829101562 496.516601562 300.838867188 497.91796875 301.734375 c 1
 505.34765625 223.204101562 519.501953125 145.561523438 540.200195312 69.703125 c 0
501.473632812 454.748046875 m 0
 501.473632812 471.21484375 492.272460938 470.569335938 492.01171875 455.809570312 c 0
 491.42578125 422.625976562 491.833984375 378.486328125 495.788085938 326.661132812 c 1
 141.09765625 646.515625 -1.1484375 414.55859375 -1.1484375 151.811523438 c 0
 -1.1484375 -178.366210938 221.741210938 -565.546875 546.541015625 -75.80078125 c 0
 558.970703125 -57.0595703125 564.525390625 -33.8505859375 564.525390625 -8.927734375 c 0
 564.525390625 24.326171875 555.5859375 55.333984375 548.015625 83.078125 c 0
 515.272460938 203.080078125 499.235351562 328.0703125 501.473632812 454.748046875 c 0
381.11328125 204.467773438 m 0
 319.633789062 68.3203125 394.376953125 -135.525390625 591.563476562 -124.84765625 c 0
 594.12890625 -124.708984375 596.194335938 -119.458007812 596.194335938 -113.010742188 c 0
 596.194335938 -106.4765625 594.072265625 -101.171875 591.458984375 -101.171875 c 0
 591.134765625 -101.171875 585.15625 -101.567382812 576.986328125 -101.567382812 c 0
 409.416015625 -101.567382812 332.280273438 64.6982421875 387.389648438 186.739257812 c 0
 430.029296875 281.166015625 528.197265625 303.350585938 567.780273438 303.350585938 c 0
 581.337890625 303.350585938 590.76953125 301.366210938 591.458984375 301.366210938 c 0
 597.466796875 301.366210938 597.762695312 324.008789062 591.782226562 325.017578125 c 0
 584.67578125 326.217773438 566.56640625 328.864257812 543.77734375 325.017578125 c 0
 461.857421875 311.190429688 408.393554688 264.880859375 381.11328125 204.467773438 c 0
EndSplineSet
Ligature2: "liga-1" € .
EndChar

StartChar: "+IBgA-J"
Encoding: 65 -1 66
Width: 524
VWidth: 0
Flags: HW
LayerCount: 2
Fore
SplineSet
118.580078125 84.0341796875 m 2
 102.607421875 76.048828125 99.0341796875 54.6015625 111.749023438 41.8876953125 c 0
 119.963867188 33.671875 132.278320312 32.0283203125 142.133789062 36.9560546875 c 2
 314.573242188 123.17578125 l 1
 314.57421875 -44.7685546875 l 2
 314.57421875 -68.13671875 343.018554688 -79.8515625 359.4921875 -63.376953125 c 0
 364.627929688 -58.2412109375 367.1953125 -51.5048828125 367.1953125 -44.7685546875 c 2
 367.194335938 165.758789062 l 2
 367.194335938 185.379882812 346.469726562 197.978515625 329.107421875 189.297851562 c 2
 118.580078125 84.0341796875 l 2
495.852539062 297.504882812 m 2
 520.498046875 294.765625 534.84375 324.803710938 517.38671875 342.260742188 c 0
 512.99609375 346.651367188 507.435546875 349.165039062 501.705078125 349.801757812 c 2
 28.0205078125 402.432617188 l 2
 6.8095703125 404.7890625 -8.1162109375 382.202148438 1.986328125 363.681640625 c 2
 317.775390625 -215.265625 l 2
 326.149414062 -230.6171875 347.05859375 -233.705078125 359.4921875 -221.271484375 c 0
 367.938476562 -212.825195312 369.4375 -200.045898438 363.991210938 -190.060546875 c 2
 72.3818359375 344.556640625 l 1
 495.852539062 297.504882812 l 2
399.928710938 298.130859375 m 2
 419.639648438 303.05859375 426.5625 327.821289062 412.123046875 342.260742188 c 0
 405.344726562 349.0390625 395.776367188 351.34375 387.100585938 349.174804688 c 2
 176.57421875 296.54296875 l 2
 156.86328125 291.615234375 149.94140625 266.852539062 164.380859375 252.413085938 c 0
 171.159179688 245.634765625 180.727539062 243.330078125 189.403320312 245.499023438 c 2
 399.928710938 298.130859375 l 2
EndSplineSet
Ligature2: "liga-1" ‘ J
EndChar

StartChar: \.alt9
Encoding: 66 -1 67
Width: 736
VWidth: 0
Flags: HW
LayerCount: 2
Fore
SplineSet
263.159179688 455.2265625 m 2
 239.791015625 455.2265625 228.076171875 426.782226562 244.55078125 410.307617188 c 0
 249.685546875 405.172851562 256.421875 402.60546875 263.159179688 402.60546875 c 2
 473.684570312 402.60546875 l 2
 497.052734375 402.60546875 508.767578125 431.049804688 492.29296875 447.524414062 c 0
 487.157226562 452.659179688 480.420898438 455.2265625 473.684570312 455.2265625 c 2
 263.159179688 455.2265625 l 2
413.749023438 160.900390625 m 2
 418.54296875 153.708984375 429.82421875 157.149414062 429.82421875 165.7578125 c 0
 429.82421875 167.552734375 429.284179688 169.223632812 428.356445312 170.614257812 c 2
 323.092773438 328.510742188 l 2
 316.713867188 338.080078125 302.124023438 328.338867188 308.485351562 318.796875 c 2
 413.749023438 160.900390625 l 2
EndSplineSet
EndChar

StartChar: \.alt10
Encoding: 67 -1 68
Width: 736
VWidth: 0
Flags: HW
LayerCount: 2
Fore
SplineSet
263.159179688 455.2265625 m 2
 239.791015625 455.2265625 228.076171875 426.782226562 244.55078125 410.307617188 c 0
 249.685546875 405.172851562 256.421875 402.60546875 263.159179688 402.60546875 c 2
 473.684570312 402.60546875 l 2
 497.052734375 402.60546875 508.767578125 431.049804688 492.29296875 447.524414062 c 0
 487.157226562 452.659179688 480.420898438 455.2265625 473.684570312 455.2265625 c 2
 263.159179688 455.2265625 l 2
413.749023438 160.900390625 m 2
 418.54296875 153.708984375 429.82421875 157.149414062 429.82421875 165.7578125 c 0
 429.82421875 167.552734375 429.284179688 169.223632812 428.356445312 170.614257812 c 2
 323.092773438 328.510742188 l 2
 316.713867188 338.080078125 302.124023438 328.338867188 308.485351562 318.796875 c 2
 413.749023438 160.900390625 l 2
EndSplineSet
EndChar

StartChar: A.alt1
Encoding: 68 -1 69
Width: 526
VWidth: 0
Flags: HW
LayerCount: 2
Fore
SplineSet
191.91796875 -116.008789062 m 0
 204.290039062 -128.380859375 225.083007812 -125.396484375 233.536132812 -110.1796875 c 2
 496.6953125 363.504882812 l 2
 502.256835938 373.515625 500.7890625 386.395507812 492.29296875 394.892578125 c 0
 482.022460938 405.162109375 465.346679688 405.162109375 455.076171875 394.892578125 c 2
 301.0078125 240.823242188 l 1
 42.8359375 137.5546875 l 2
 25.4228515625 130.588867188 20.65625 107.884765625 34.0234375 94.517578125 c 0
 41.697265625 86.84375 52.9462890625 84.904296875 62.427734375 88.6962890625 c 2
 325.584960938 193.959960938 l 2
 330.571289062 195.955078125 330.571289062 195.955078125 359.416015625 224.799804688 c 1
 187.515625 -84.62109375 l 2
 181.954101562 -94.6318359375 183.421875 -107.512695312 191.91796875 -116.008789062 c 0
447.465820312 -204.864257812 m 2
 449.318359375 -227.096679688 476.528320312 -237.036132812 492.29296875 -221.271484375 c 0
 497.987304688 -215.577148438 500.524414062 -207.912109375 499.903320312 -200.461914062 c 2
 447.271484375 431.1171875 l 2
 445.293945312 454.8515625 414.9296875 463.911132812 400.26171875 445.052734375 c 2
 31.8408203125 -28.6318359375 l 2
 23.814453125 -38.9521484375 24.5419921875 -53.89453125 34.0234375 -63.376953125 c 0
 45.1884765625 -74.5419921875 63.6796875 -73.4326171875 73.4228515625 -60.9052734375 c 2
 400.431640625 359.536132812 l 1
 447.465820312 -204.864257812 l 2
EndSplineSet
EndChar

StartChar: /.alt4
Encoding: 69 -1 70
Width: 261
VWidth: 0
Flags: HW
LayerCount: 2
Fore
SplineSet
6.4853515625 -116.008789062 m 0
 17.544921875 -127.068359375 35.83203125 -126.10546875 45.6611328125 -113.8203125 c 2
 256.1875 149.338867188 l 2
 264.450195312 159.666992188 263.796875 174.796875 254.227539062 184.366210938 c 0
 243.16796875 195.42578125 224.880859375 194.462890625 215.051757812 182.177734375 c 2
 4.525390625 -80.9814453125 l 2
 -3.7373046875 -91.3095703125 -3.083984375 -106.439453125 6.4853515625 -116.008789062 c 0
EndSplineSet
EndChar

StartChar: glyph71
Encoding: 70 118 71
Width: 526
VWidth: 0
Flags: HW
LayerCount: 2
Fore
SplineSet
482.950195312 -16.771484375 m 2
 500.73828125 -10.1015625 505.831054688 12.9326171875 492.29296875 26.470703125 c 0
 484.76171875 34.0009765625 473.787109375 36.009765625 464.419921875 32.4970703125 c 2
 43.3671875 -125.396484375 l 2
 25.578125 -132.06640625 20.4853515625 -155.100585938 34.0234375 -168.638671875 c 0
 41.5546875 -176.168945312 52.529296875 -178.177734375 61.8974609375 -174.665039062 c 2
 482.950195312 -16.771484375 l 2
387.029296875 289.629882812 m 0
 373.853515625 302.805664062 351.518554688 298.399414062 344.236328125 281.407226562 c 2
 206.611328125 -39.7177734375 l 1
 75.20703125 179.290039062 l 2
 66.42578125 193.92578125 46.1337890625 196.475585938 34.0234375 184.365234375 c 0
 25.3125 175.654296875 23.990234375 162.334960938 30.056640625 152.224609375 c 2
 187.950195312 -110.93359375 l 2
 198.970703125 -129.299804688 226.307617188 -127.392578125 234.7109375 -107.78515625 c 2
 392.60546875 260.637695312 l 2
 396.720703125 270.23828125 394.861328125 281.797851562 387.029296875 289.629882812 c 0
EndSplineSet
EndChar

StartChar: glyph72
Encoding: 71 44 72
Width: 391
VWidth: 0
Flags: HW
LayerCount: 2
Fore
SplineSet
182.323242188 386.080078125 m 2
 175.358398438 403.493164062 152.654296875 408.259765625 139.287109375 394.892578125 c 0
 131.61328125 387.21875 129.673828125 375.969726562 133.465820312 366.48828125 c 2
 238.729492188 103.331054688 l 2
 245.6953125 85.9169921875 268.399414062 81.1513671875 281.766601562 94.5185546875 c 0
 289.440429688 102.19140625 291.379882812 113.440429688 287.587890625 122.921875 c 2
 182.323242188 386.080078125 l 2
209.109375 -214.173828125 m 2
 211.044921875 -219.01171875 213.450195312 -212.685546875 213.450195312 -202.663085938 c 0
 213.450195312 -197.713867188 212.841796875 -193.399414062 211.943359375 -191.153320312 c 2
 106.6796875 72.005859375 l 2
 104.745117188 76.8427734375 102.338867188 70.517578125 102.338867188 60.4951171875 c 0
 102.338867188 55.5458984375 102.947265625 51.2314453125 103.845703125 48.984375 c 2
 209.109375 -214.173828125 l 2
EndSplineSet
EndChar

StartChar: glyph73
Encoding: 72 51 73
Width: 763
VWidth: 0
Flags: HW
LayerCount: 2
Fore
SplineSet
314.990234375 283.787109375 m 2
 310.822265625 279.619140625 312.40234375 254.068359375 316.588867188 258.254882812 c 2
 409.2734375 350.939453125 l 1
 260.936523438 -192.962890625 l 2
 258.37890625 -202.340820312 260.791015625 -219.244140625 264.103515625 -215.268554688 c 2
 527.260742188 100.521484375 l 2
 530.84375 104.821289062 530.063476562 126.28515625 526.315429688 126.28515625 c 0
 525.987304688 126.28515625 525.669921875 126.091796875 525.370117188 125.732421875 c 2
 275.962890625 -173.557617188 l 1
 423.274414062 366.583984375 l 2
 425.772460938 375.744140625 423.534179688 392.33203125 420.252929688 389.05078125 c 2
 314.990234375 283.787109375 l 2
369.126953125 467.422851562 m 0
 472.220703125 467.422851562 594.461914062 363.55859375 513.477539062 219.547851562 c 0
 501.142578125 197.611328125 481.264648438 182.474609375 461.186523438 175.403320312 c 0
 415.958007812 159.473632812 379.40625 186.224609375 368.126953125 195.942382812 c 0
 346.9296875 214.206054688 332.081054688 240.920898438 328.935546875 271.243164062 c 0
 328.64453125 274.044921875 322.865234375 276.284179688 315.7890625 276.284179688 c 0
 308.330078125 276.284179688 302.33203125 273.798828125 302.642578125 270.799804688 c 0
 305.903320312 239.375 321.016601562 211.532226562 344.244140625 191.51953125 c 0
 359.657226562 178.239257812 388.899414062 159.88671875 432.79296875 159.88671875 c 0
 449.467773438 159.88671875 465.0546875 162.743164062 478.564453125 167.500976562 c 0
 505.470703125 176.977539062 526.180664062 194.163085938 539.15234375 217.231445312 c 0
 622.444335938 365.344726562 498.021484375 477.94921875 369.126953125 477.94921875 c 0
 295.909179688 477.94921875 212.845703125 441.055664062 197.387695312 323.934570312 c 0
 196.98828125 320.913085938 203.01171875 318.390625 210.52734375 318.390625 c 0
 217.552734375 318.390625 223.299804688 320.59765625 223.666015625 323.372070312 c 0
 232.876953125 393.158203125 267.799804688 434.90234375 308.370117188 454.068359375 c 0
 328.538085938 463.595703125 349.190429688 467.422851562 369.126953125 467.422851562 c 0
EndSplineSet
EndChar

StartChar: rt
Encoding: 73 -1 74
Width: 290
VWidth: 0
Flags: HW
LayerCount: 2
Fore
SplineSet
263.20703125 60.4951171875 m 2
 263.20703125 45.970703125 269.103515625 34.1796875 276.365234375 34.1796875 c 0
 283.626953125 34.1796875 289.5234375 45.970703125 289.5234375 60.4951171875 c 2
 289.5234375 218.388671875 l 2
 289.5234375 232.913085938 283.626953125 244.705078125 276.365234375 244.705078125 c 0
 269.103515625 244.705078125 263.20703125 232.913085938 263.20703125 218.388671875 c 2
 263.20703125 60.4951171875 l 2
26.2236328125 327.520507812 m 0
 23.7841796875 360.59765625 57.8447265625 398.041992188 102.403320312 402.444335938 c 1
 87.3505859375 251.91796875 l 1
 68.189453125 259.528320312 51.4912109375 272.17578125 40.5732421875 287.936523438 c 0
 31.490234375 301.049804688 27.18359375 314.502929688 26.2236328125 327.520507812 c 0
118.962890625 455.213867188 m 0
 48.75 460.391601562 -5.609375 398.419921875 0.1904296875 319.787109375 c 0
 2.50390625 288.419921875 12.525390625 263.524414062 25.1953125 245.233398438 c 0
 40.296875 223.431640625 60.2470703125 208.444335938 82.1494140625 199.913085938 c 1
 52.6806640625 -94.7734375 52.6806640625 -94.7734375 52.6806640625 -97.400390625 c 0
 52.6806640625 -111.923828125 58.5771484375 -123.715820312 65.8388671875 -123.715820312 c 0
 72.21484375 -123.715820312 77.537109375 -114.627929688 78.7412109375 -102.581054688 c 2
 108.288085938 192.88671875 l 1
 130.381835938 189.435546875 191.600585938 186.620117188 231.888671875 250.373046875 c 0
 241.638671875 265.803710938 236.112304688 297.336914062 223.733398438 297.336914062 c 0
 220.654296875 297.336914062 217.821289062 295.216796875 215.579101562 291.66796875 c 0
 193.733398438 257.098632812 153.740234375 239.428710938 113.5 244.999023438 c 1
 131.62890625 426.2890625 131.62890625 426.2890625 131.62890625 428.916015625 c 0
 131.62890625 443.110351562 125.997070312 454.6953125 118.962890625 455.213867188 c 0
EndSplineSet
Ligature2: "liga-1" r t
EndChar

StartChar: glyph75
Encoding: 74 85 75
Width: 338
VWidth: 0
Flags: HW
LayerCount: 2
Fore
SplineSet
155.288085938 63.6494140625 m 0
 61.2470703125 63.6494140625 -30.0380859375 168.377929688 23.73828125 276.606445312 c 0
 46.1875 321.788085938 91.9365234375 358.776367188 157.068359375 363.129882812 c 0
 159.442382812 363.288085938 161.354492188 369.122070312 161.354492188 376.284179688 c 0
 161.354492188 383.649414062 159.333007812 389.603515625 156.869140625 389.438476562 c 0
 90.810546875 385.024414062 43.724609375 348.516601562 18.8603515625 298.475585938 c 0
 6.48828125 273.577148438 -1.0537109375 243.729492188 -1.0537109375 210.665039062 c 0
 -1.0537109375 147.783203125 26.9296875 79.6650390625 103.725585938 47.46484375 c 0
 199.607421875 7.2607421875 338.821289062 90.5595703125 338.821289062 239.747070312 c 0
 338.821289062 274.232421875 331.18359375 306.283203125 317.32421875 334.543945312 c 0
 314.4296875 340.446289062 310.477539062 334.186523438 310.477539062 323.654296875 c 0
 310.477539062 319.127929688 311.240234375 315.131835938 312.40234375 312.763671875 c 0
 325.16796875 286.733398438 330.048828125 261.525390625 330.048828125 239.747070312 c 0
 330.048828125 174.689453125 286.721679688 102.241210938 209.060546875 73.5537109375 c 0
 191.715820312 67.1474609375 173.438476562 63.6494140625 155.288085938 63.6494140625 c 0
EndSplineSet
EndChar

StartChar: glyph76
Encoding: 75 71 76
Width: 460
VWidth: 0
Flags: HW
LayerCount: 2
Fore
SplineSet
234.337890625 -172.875 m 0
 55.591796875 -175.829101562 -3.0771484375 106.081054688 107.537109375 216.6953125 c 0
 148.629882812 257.7890625 215.45703125 279.014648438 320.954101562 245.920898438 c 0
 347.0390625 237.73828125 366.751953125 270.34765625 347.469726562 289.629882812 c 0
 344.369140625 292.73046875 340.684570312 294.895507812 336.768554688 296.124023438 c 0
 218.416992188 333.250976562 127.708984375 311.299804688 70.3203125 253.912109375 c 0
 -73.166015625 110.424804688 7.3486328125 -229.255859375 235.21484375 -225.489257812 c 0
 284.1328125 -224.680664062 337.791015625 -207.912109375 395.299804688 -172.440429688 c 0
 439.448242188 -145.208007812 465.1328125 -95.1435546875 460.326171875 -42.365234375 c 0
 459.787109375 -36.4501953125 457.255859375 -30.68359375 452.732421875 -26.16015625 c 2
 347.46875 79.103515625 l 2
 337.198242188 89.373046875 320.522460938 89.373046875 310.252929688 79.103515625 c 0
 299.982421875 68.8330078125 299.982421875 52.1572265625 310.252929688 41.8876953125 c 2
 408.264648438 -56.125 l 1
 408.114257812 -66.4072265625 404.962890625 -104.629882812 367.686523438 -127.623046875 c 0
 316.14453125 -159.4140625 271.59765625 -172.258789062 234.337890625 -172.875 c 0
347.469726562 289.629882812 m 0
 337.200195312 299.900390625 320.5234375 299.900390625 310.25390625 289.629882812 c 0
 299.983398438 279.360351562 299.983398438 262.684570312 310.252929688 252.4140625 c 2
 415.516601562 147.151367188 l 2
 434.228515625 128.438476562 466.0859375 146.41015625 459.645507812 172.172851562 c 2
 407.015625 382.698242188 l 2
 402.087890625 402.409179688 377.325195312 409.33203125 362.885742188 394.892578125 c 0
 356.107421875 388.114257812 353.802734375 378.545898438 355.971679688 369.870117188 c 2
 385.55078125 251.547851562 l 1
 372.857421875 264.2421875 360.1640625 276.936523438 347.469726562 289.629882812 c 0
EndSplineSet
EndChar

StartChar: glyph77
Encoding: 76 63 77
Width: 332
VWidth: 0
Flags: HW
LayerCount: 2
Fore
SplineSet
184.734375 349.90625 m 0
 160.569335938 351.500976562 147.326171875 322.099609375 164.380859375 305.044921875 c 0
 169.072265625 300.353515625 175.099609375 297.805664062 181.243164062 297.400390625 c 0
 287.120117188 290.412109375 303.504882812 169.396484375 249.860351562 115.751953125 c 0
 234.16015625 100.052734375 212.02734375 88.7802734375 181.243164062 86.748046875 c 0
 137.430664062 83.8564453125 101.086914062 120.200195312 103.978515625 164.012695312 c 0
 105.57421875 188.176757812 76.1728515625 201.420898438 59.1181640625 184.366210938 c 0
 54.4267578125 179.674804688 51.8779296875 173.647460938 51.47265625 167.50390625 c 0
 46.484375 91.9345703125 109.165039062 29.25390625 184.734375 34.2421875 c 0
 333.891601562 44.0849609375 374.560546875 218.127929688 287.076171875 305.612304688 c 0
 262.181640625 330.506835938 227.328125 347.094726562 184.734375 349.90625 c 0
6.4853515625 -221.271484375 m 0
 18.220703125 -233.006835938 37.7998046875 -231.053710938 47.0048828125 -217.24609375 c 2
 152.267578125 -59.3515625 l 2
 159.08203125 -49.1298828125 157.981445312 -35.1767578125 148.96484375 -26.16015625 c 0
 137.229492188 -14.42578125 117.651367188 -16.3779296875 108.446289062 -30.185546875 c 2
 3.18359375 -188.080078125 l 2
 -3.630859375 -198.301757812 -2.5302734375 -212.254882812 6.4853515625 -221.271484375 c 0
EndSplineSet
EndChar

StartChar: glyph78
Encoding: 77 49 78
Width: 185
VWidth: 0
Flags: HW
LayerCount: 2
Fore
SplineSet
184.174804688 -0.4873046875 m 2
 192.89453125 25.671875 160.065429688 45.9287109375 140.608398438 26.4716796875 c 0
 137.625 23.48828125 135.508789062 19.96484375 134.2578125 16.2138671875 c 2
 81.625 -141.680664062 l 2
 72.9052734375 -167.83984375 105.734375 -188.096679688 125.19140625 -168.639648438 c 0
 128.174804688 -165.65625 130.291992188 -162.1328125 131.541992188 -158.3828125 c 2
 184.174804688 -0.4873046875 l 2
158.698242188 266.719726562 m 2
 162.081054688 265.592773438 163.106445312 274.197265625 159.734375 275.321289062 c 0
 1.5830078125 328.040039062 1.5830078125 328.040039062 1.3203125 328.040039062 c 0
 -1.818359375 328.040039062 -2.265625 320.375976562 0.8017578125 319.353515625 c 2
 158.698242188 266.719726562 l 2
104.282226562 -147.90625 m 2
 102.61328125 -152.912109375 107.208984375 -157.189453125 108.88671875 -152.157226562 c 2
 161.518554688 5.73828125 l 2
 163.186523438 10.7431640625 158.591796875 15.021484375 156.9140625 9.9892578125 c 2
 104.282226562 -147.90625 l 2
EndSplineSet
EndChar

StartChar: glyph79
Encoding: 79 86 79
Width: 421
VWidth: 0
Flags: HW
LayerCount: 2
Fore
SplineSet
369.641601562 210.6171875 m 2
 372.6953125 215.961914062 370.24609375 231.4921875 367.200195312 226.161132812 c 2
 158.4296875 -139.1875 l 1
 54.5380859375 224.436523438 l 2
 52.904296875 230.15234375 50 226.255859375 50 218.388671875 c 2
 50 7.86328125 l 2
 50 -3.6201171875 55.263671875 -3.6201171875 55.263671875 7.86328125 c 2
 55.263671875 196.461914062 l 1
 155.989257812 -156.079101562 l 2
 156.03515625 -156.240234375 157.375 -160.849609375 159.115234375 -157.803710938 c 2
 369.641601562 210.6171875 l 2
EndSplineSet
EndChar

StartChar: Cf
Encoding: 80 -1 80
Width: 436
VWidth: 0
Flags: HW
LayerCount: 2
Fore
SplineSet
377.150390625 9.87109375 m 0
 375.288085938 8.291015625 376.418945312 5.2314453125 378.8515625 5.2314453125 c 0
 379.499023438 5.2314453125 380.092773438 5.466796875 380.551757812 5.85546875 c 0
 474.03125 85.1376953125 443.780273438 236.306640625 327.018554688 273.528320312 c 0
 -72.2177734375 400.803710938 -106.752929688 -222.288085938 225.547851562 -222.288085938 c 0
 256.305664062 -222.288085938 290.12890625 -216.931640625 327.018554688 -205.170898438 c 0
 328.081054688 -204.833007812 328.8515625 -203.836914062 328.8515625 -202.663085938 c 2
 328.8515625 165.7578125 l 2
 328.8515625 169.202148438 323.587890625 169.202148438 323.587890625 165.7578125 c 2
 323.587890625 -200.735351562 l 1
 -66.3408203125 -323.11328125 -98.322265625 285.381835938 225.546875 285.381835938 c 0
 255.681640625 285.381835938 288.971679688 280.1328125 325.419921875 268.512695312 c 0
 438.28515625 232.533203125 467.4765625 86.478515625 377.150390625 9.87109375 c 0
433.927734375 270.044921875 m 2
 434.614257812 271.76171875 433.346679688 273.65234375 431.483398438 273.65234375 c 0
 430.375 273.65234375 429.426757812 272.966796875 429.0390625 271.997070312 c 0
 323.587890625 8.37109375 323.587890625 8.37109375 323.587890625 7.86328125 c 0
 323.587890625 4.994140625 327.598632812 4.2236328125 328.6640625 6.8876953125 c 2
 433.927734375 270.044921875 l 2
EndSplineSet
Ligature2: "liga-1" C f
EndChar

StartChar: \.alt11
Encoding: 81 -1 81
Width: 684
VWidth: 0
Flags: HW
LayerCount: 2
Fore
SplineSet
461.461914062 163.806640625 m 2
 467.859375 157.409179688 492.301757812 161.314453125 485.90625 167.709960938 c 2
 222.749023438 430.8671875 l 2
 217.420898438 436.196289062 197.369140625 434.654296875 197.369140625 428.916015625 c 0
 197.369140625 428.2265625 197.701171875 427.567382812 198.3046875 426.963867188 c 2
 461.461914062 163.806640625 l 2
EndSplineSet
EndChar

StartChar: 2.alt1
Encoding: 82 -1 82
Width: 237
VWidth: 0
Flags: HW
LayerCount: 2
Fore
SplineSet
59.009765625 270.6015625 m 2
 59.009765625 276.325195312 52.015625 275.749023438 51.537109375 271.439453125 c 0
 -1.1181640625 -202.453125 -1.1181640625 -202.453125 -1.1181640625 -202.663085938 c 0
 -1.1181640625 -207.3359375 5.86328125 -207.712890625 6.3779296875 -203.083007812 c 2
 59.009765625 270.6015625 l 2
107.06640625 -93.734375 m 0
 78.5380859375 -100.245117188 57.087890625 -93.640625 55.2734375 -93.640625 c 0
 54.2353515625 -93.640625 53.2958984375 -94.0615234375 52.615234375 -94.7421875 c 2
 -0.0166015625 -147.374023438 l 2
 -3.4951171875 -150.852539062 1.81640625 -156.171875 5.298828125 -152.689453125 c 2
 56.4755859375 -101.512695312 l 1
 66.2724609375 -103.573242188 85.435546875 -106.384765625 108.743164062 -101.065429688 c 0
 280.458984375 -61.87109375 280.459960938 182.861328125 108.744140625 222.0546875 c 0
 103.940429688 223.150390625 102.275390625 215.817382812 107.06640625 214.723632812 c 0
 271.127929688 177.278320312 271.126953125 -56.2880859375 107.06640625 -93.734375 c 0
EndSplineSet
EndChar

StartChar: \.alt12
Encoding: 83 -1 83
Width: 113
VWidth: 0
Flags: HW
LayerCount: 2
Fore
SplineSet
104.364257812 -205.189453125 m 2
 106.556640625 -211.766601562 114.48828125 -209.78515625 114.48828125 -202.663085938 c 0
 114.48828125 -201.768554688 114.344726562 -200.915039062 114.0859375 -200.137695312 c 2
 9.5576171875 113.448242188 l 1
 61.857421875 322.645507812 61.857421875 322.645507812 61.857421875 323.654296875 c 0
 61.857421875 331.107421875 53.345703125 332.719726562 51.5693359375 325.616210938 c 0
 -1.30078125 114.135742188 -1.30078125 114.135742188 -1.30078125 113.126953125 c 0
 -1.30078125 112.232421875 -1.158203125 111.37890625 -0.8984375 110.600585938 c 2
 104.364257812 -205.189453125 l 2
61.060546875 274.500976562 m 2
 58.271484375 280.080078125 51.3310546875 277.575195312 51.3310546875 271.020507812 c 0
 51.3310546875 269.743164062 51.623046875 268.55078125 52.1279296875 267.541015625 c 2
 96.2255859375 179.34375 l 1
 4.978515625 224.967773438 4.978515625 224.967773438 3.9619140625 224.967773438 c 0
 -1.775390625 224.967773438 -3.318359375 214.942382812 2.0107421875 212.278320312 c 0
 108.208984375 159.178710938 108.208984375 159.178710938 109.225585938 159.178710938 c 0
 113.350585938 159.178710938 115.868164062 164.883789062 113.69140625 169.237304688 c 2
 61.060546875 274.500976562 l 2
EndSplineSet
EndChar

StartChar: o.alt1
Encoding: 84 -1 84
Width: 343
VWidth: 0
Flags: HW
LayerCount: 2
Fore
SplineSet
287.25 36.9697265625 m 1
 270.484375 -36.861328125 157.09765625 -88.3701171875 90.533203125 -29.384765625 c 0
 74.5458984375 -15.21875 61.607421875 5.7744140625 54.314453125 31.3974609375 c 0
 51.8330078125 40.1171875 48.8720703125 27.439453125 48.8720703125 7.86328125 c 0
 48.8720703125 -2.4267578125 49.7177734375 -11.345703125 50.94921875 -15.6708984375 c 0
 90.8681640625 -155.9375 249.223632812 -116.874023438 285.69140625 -25.58203125 c 0
 289.1484375 -16.9267578125 295.487304688 0.763671875 295.487304688 36.8486328125 c 0
 295.487304688 77.8046875 287.907226562 107.353515625 263.85546875 138.990234375 c 0
 219.247070312 197.665039062 131.493164062 179.19140625 108.795898438 114.227539062 c 0
 104.33984375 101.473632812 101.502929688 84.0888671875 101.502929688 60.4951171875 c 0
 101.502929688 45.970703125 103.1875 34.1796875 105.262695312 34.1796875 c 0
 107.080078125 34.1796875 108.598632812 43.228515625 108.947265625 55.2353515625 c 1
 112.254882812 73.7333984375 122.993164062 87.294921875 128.278320312 93.05859375 c 0
 162.106445312 129.950195312 226.6640625 134.349609375 262.4609375 87.263671875 c 0
 272.594726562 73.9345703125 282.883789062 56.556640625 287.25 36.9697265625 c 1
EndSplineSet
EndChar

StartChar: |.alt4
Encoding: 85 -1 85
Width: 208
VWidth: 0
Flags: HW
LayerCount: 2
Fore
SplineSet
-1.2177734375 -97.400390625 m 2
 -1.2177734375 -120.768554688 27.2265625 -132.483398438 43.701171875 -116.008789062 c 0
 48.8359375 -110.874023438 51.4033203125 -104.13671875 51.4033203125 -97.400390625 c 2
 51.404296875 113.125976562 l 2
 51.404296875 136.494140625 22.9599609375 148.208984375 6.4853515625 131.734375 c 0
 1.3505859375 126.599609375 -1.216796875 119.86328125 -1.216796875 113.125976562 c 2
 -1.2177734375 -97.400390625 l 2
156.463867188 221.676757812 m 2
 153.760742188 243.299804688 127.169921875 252.418945312 111.75 236.998046875 c 0
 105.778320312 231.026367188 103.278320312 222.888671875 104.251953125 215.104492188 c 2
 156.881835938 -205.94921875 l 2
 159.584960938 -227.573242188 186.17578125 -236.692382812 201.595703125 -221.271484375 c 0
 207.567382812 -215.299804688 210.067382812 -207.162109375 209.09375 -199.376953125 c 2
 156.463867188 221.676757812 l 2
74.6435546875 9.3701171875 m 2
 72.9091796875 7.6357421875 74.693359375 5.2314453125 77.7255859375 5.2314453125 c 0
 79 5.2314453125 80.1279296875 5.6767578125 80.8076171875 6.3564453125 c 2
 186.069335938 111.620117188 l 2
 188.884765625 114.435546875 182.735351562 117.462890625 179.90625 114.6328125 c 2
 74.6435546875 9.3701171875 l 2
EndSplineSet
EndChar

StartChar: \.alt13
Encoding: 86 -1 86
Width: 210
VWidth: 0
Flags: HW
LayerCount: 2
Fore
SplineSet
53.267578125 231.234375 m 2
 49.52734375 234.975585938 48.2646484375 209.275390625 51.99609375 205.543945312 c 0
 157.571289062 99.96875 157.571289062 99.96875 157.89453125 99.96875 c 0
 161.345703125 99.96875 161.890625 122.612304688 158.53125 125.971679688 c 2
 53.267578125 231.234375 l 2
EndSplineSet
EndChar

StartChar: 2.alt2
Encoding: 87 -1 87
Width: 421
VWidth: 0
Flags: HW
LayerCount: 2
Fore
SplineSet
139.287109375 184.366210938 m 0
 126.572265625 171.65234375 130.145507812 150.205078125 146.118164062 142.21875 c 2
 356.643554688 36.955078125 l 2
 366.499023438 32.02734375 378.813476562 33.6708984375 387.029296875 41.88671875 c 0
 399.743164062 54.6005859375 396.169921875 76.0478515625 380.197265625 84.033203125 c 2
 169.671875 189.297851562 l 2
 159.81640625 194.225585938 147.501953125 192.58203125 139.287109375 184.366210938 c 0
80.3056640625 -141.6796875 m 0
 71.5859375 -167.838867188 104.415039062 -188.095703125 123.872070312 -168.638671875 c 0
 126.85546875 -165.655273438 128.971679688 -162.131835938 130.221679688 -158.380859375 c 2
 182.033203125 -2.9443359375 l 1
 391.276367188 363.23046875 l 2
 400.297851562 379.016601562 390.853515625 399.221679688 372.774414062 402.234375 c 2
 56.984375 454.866210938 l 2
 31.8232421875 459.060546875 16.064453125 428.266601562 34.0224609375 410.307617188 c 0
 38.0478515625 406.283203125 43.056640625 403.8359375 48.27734375 402.965820312 c 2
 326.823242188 356.541015625 l 1
 135.038085938 20.9169921875 l 2
 133.754882812 18.671875 133.754882812 18.671875 80.3056640625 -141.6796875 c 0
EndSplineSet
EndChar

StartChar: |.alt5
Encoding: 88 -1 88
Width: 320
VWidth: 0
Flags: HW
LayerCount: 2
Fore
SplineSet
6.328125 324.39453125 m 0
 5.451171875 328.77734375 -1.1181640625 328.137695312 -1.1181640625 323.654296875 c 0
 -1.1181640625 323.278320312 -1.1181640625 323.278320312 104.21875 -203.403320312 c 0
 105.094726562 -207.786132812 111.6640625 -207.146484375 111.6640625 -202.663085938 c 0
 111.6640625 -202.288085938 111.6640625 -202.288085938 6.328125 324.39453125 c 0
186.528320312 -145.645507812 m 1
 143.236328125 -145.645507812 l 1
 167.974609375 -139.4609375 l 1
 186.528320312 -145.645507812 l 1
55.91015625 -93.1181640625 m 2
 52.1689453125 -91.87109375 50.90625 -100.438476562 54.6376953125 -101.681640625 c 2
 152.727539062 -134.37890625 l 1
 107.420898438 -145.705078125 l 2
 103.938476562 -146.576171875 104.362304688 -154.41796875 107.904296875 -154.41796875 c 2
 213.16796875 -154.41796875 l 2
 216.619140625 -154.41796875 217.163085938 -146.870117188 213.803710938 -145.75 c 2
 183.381835938 -135.609375 l 1
 318.9140625 -101.7265625 l 2
 322.677734375 -100.78515625 321.733398438 -92.126953125 317.947265625 -93.07421875 c 2
 168.134765625 -130.52734375 l 1
 55.91015625 -93.1181640625 l 2
EndSplineSet
EndChar

StartChar: glyph89
Encoding: 89 90 89
Width: 426
VWidth: 0
Flags: HW
LayerCount: 2
Fore
SplineSet
251.10546875 274.14453125 m 0
 121.25390625 274.14453125 19.62109375 163.737304688 19.62109375 34.1787109375 c 0
 19.62109375 -34.1796875 47.943359375 -102.6171875 104.987304688 -151.690429688 c 0
 106.373046875 -152.881835938 108.91015625 -152.994140625 110.497070312 -151.936523438 c 2
 426.286132812 58.58984375 l 2
 429.849609375 60.9658203125 424.66796875 64.7783203125 421.102539062 62.4013671875 c 2
 108.275390625 -146.150390625 l 1
 54.3125 -98.42578125 27.1396484375 -32.1611328125 27.1396484375 34.1787109375 c 0
 27.1396484375 160.4765625 125.573242188 268.881835938 251.10546875 268.881835938 c 0
 259.477539062 268.881835938 265.192382812 268.389648438 265.799804688 268.389648438 c 0
 267.875 268.389648438 269.559570312 269.568359375 269.559570312 271.021484375 c 0
 269.559570312 272.90234375 269.559570312 274.14453125 251.10546875 274.14453125 c 0
373.975585938 269.358398438 m 2
 375.971679688 271.069335938 374.217773438 273.65234375 371.0625 273.65234375 c 0
 369.887695312 273.65234375 368.838867188 273.275390625 368.149414062 272.68359375 c 2
 13.2529296875 -31.513671875 l 1
 215.061523438 372.103515625 l 1
 421.512695312 268.877929688 l 2
 425.5078125 266.880859375 429.890625 271.15625 425.875976562 273.1640625 c 2
 215.349609375 378.426757812 l 2
 213.309570312 379.447265625 210.442382812 378.798828125 209.619140625 377.153320312 c 0
 -1.1181640625 -44.3203125 -1.1181640625 -44.3203125 -1.1181640625 -44.7685546875 c 0
 -1.1181640625 -47.224609375 3.3251953125 -48.341796875 5.5546875 -46.431640625 c 2
 373.975585938 269.358398438 l 2
EndSplineSet
EndChar

StartChar: glyph90
Encoding: 90 98 90
Width: 210
VWidth: 0
Flags: HW
LayerCount: 2
Fore
SplineSet
78.9423828125 323.653320312 m 2
 78.9423828125 347.021484375 50.498046875 358.735351562 34.0234375 342.260742188 c 0
 28.888671875 337.125976562 26.3212890625 330.389648438 26.3212890625 323.653320312 c 2
 26.3212890625 -44.7685546875 l 2
 26.3212890625 -64.3896484375 47.0458984375 -76.9892578125 64.4091796875 -68.3076171875 c 2
 169.670898438 -15.67578125 l 2
 185.643554688 -7.689453125 189.215820312 13.7578125 176.501953125 26.4716796875 c 2
 78.9423828125 124.03125 l 1
 78.9423828125 323.653320312 l 2
113.46484375 15.076171875 m 1
 78.9423828125 -2.185546875 l 1
 78.9423828125 49.5986328125 l 1
 113.46484375 15.076171875 l 1
EndSplineSet
EndChar

StartChar: \.alt14
Encoding: 91 -1 91
Width: 366
VWidth: 0
Flags: HW
LayerCount: 2
Fore
SplineSet
266.821289062 45.2177734375 m 2
 276.28125 31.974609375 295.377929688 30.404296875 306.860351562 41.8876953125 c 0
 316.083007812 51.109375 317.0234375 65.4970703125 309.68359375 75.7734375 c 0
 45.2568359375 445.969726562 45.2568359375 445.969726562 43.7021484375 447.524414062 c 0
 33.431640625 457.793945312 16.755859375 457.793945312 6.4853515625 447.524414062 c 0
 -2.736328125 438.301757812 -3.677734375 423.9140625 3.6630859375 413.637695312 c 2
 266.821289062 45.2177734375 l 2
367.194335938 376.284179688 m 2
 367.194335938 399.65234375 338.75 411.3671875 322.275390625 394.892578125 c 0
 317.140625 389.756835938 314.573242188 383.020507812 314.573242188 376.284179688 c 2
 314.573242188 60.494140625 l 2
 314.573242188 37.1259765625 343.017578125 25.412109375 359.4921875 41.88671875 c 0
 364.626953125 47.021484375 367.194335938 53.7578125 367.194335938 60.494140625 c 0
 367.194335938 376.284179688 367.194335938 376.284179688 367.194335938 376.284179688 c 2
EndSplineSet
EndChar

StartChar: a)
Encoding: 92 -1 92
Width: 263
VWidth: 0
Flags: HW
LayerCount: 2
Fore
SplineSet
53.4306640625 125.892578125 m 2
 51.361328125 127.962890625 49.341796875 121.690429688 49.341796875 113.126953125 c 0
 49.341796875 106.967773438 50.40234375 101.791015625 51.83203125 100.361328125 c 0
 210.119140625 -57.92578125 210.119140625 -57.92578125 210.526367188 -57.92578125 c 0
 214.360351562 -57.92578125 215.03515625 -35.7119140625 211.325195312 -32.001953125 c 2
 53.4306640625 125.892578125 l 2
154.66796875 -150.6796875 m 2
 155.510742188 -154.889648438 161.966796875 -153.618164062 161.119140625 -149.383789062 c 2
 108.48828125 113.774414062 l 2
 107.645507812 117.984375 101.189453125 116.712890625 102.036132812 112.479492188 c 2
 154.66796875 -150.6796875 l 2
EndSplineSet
Ligature2: "liga-1" a )
EndChar

StartChar: glyph93
Encoding: 93 82 93
Width: 323
VWidth: 0
Flags: HW
LayerCount: 2
Fore
SplineSet
321.53125 1.662109375 m 2
 325.58984375 9.779296875 319.392578125 22.1904296875 315.330078125 14.0654296875 c 2
 264.93359375 -86.7265625 l 1
 109.861328125 68.345703125 l 2
 106.966796875 71.2412109375 103.518554688 67.0146484375 103.518554688 60.4951171875 c 0
 103.518554688 57.060546875 104.5078125 54.083984375 105.947265625 52.64453125 c 2
 263.841796875 -105.250976562 l 2
 264.0234375 -105.432617188 266.701171875 -107.998046875 268.899414062 -103.6015625 c 2
 321.53125 1.662109375 l 2
52.349609375 60.4951171875 m 2
 52.349609375 58.349609375 53.0634765625 56.501953125 54.087890625 55.6826171875 c 2
 317.24609375 -154.84375 l 2
 320.299804688 -157.287109375 322.884765625 -149.862304688 320.30078125 -145.987304688 c 2
 58.197265625 247.170898438 l 1
 58.197265625 376.284179688 l 2
 58.197265625 383.174804688 52.349609375 383.174804688 52.349609375 376.284179688 c 2
 52.349609375 255.942382812 l 1
 4.51171875 327.69921875 l 2
 2.6162109375 330.54296875 -0.2822265625 328.094726562 -0.2822265625 323.654296875 c 0
 -0.2822265625 322.029296875 0.1279296875 320.575195312 0.771484375 319.609375 c 2
 52.349609375 242.2421875 l 1
 52.349609375 60.4951171875 l 2
300.416015625 -129.859375 m 1
 58.197265625 63.916015625 l 1
 58.197265625 233.470703125 l 1
 300.416015625 -129.859375 l 1
55.2734375 455.231445312 m 0
 53.6591796875 455.231445312 52.349609375 443.440429688 52.349609375 428.916015625 c 0
 52.349609375 414.98828125 53.5546875 403.572265625 55.076171875 402.659179688 c 2
 285.396484375 264.466796875 l 1
 160.209960938 139.28125 l 2
 158.75 137.8203125 157.612304688 126.659179688 157.612304688 113.126953125 c 0
 157.612304688 97.486328125 159.125 85.2353515625 160.862304688 86.97265625 c 2
 318.756835938 244.8671875 l 2
 320.216796875 246.328125 321.354492188 257.48828125 321.354492188 271.020507812 c 0
 321.354492188 284.94921875 320.149414062 296.364257812 318.627929688 297.27734375 c 0
 55.3720703125 455.231445312 55.3720703125 455.231445312 55.2734375 455.231445312 c 0
EndSplineSet
EndChar

StartChar: O)
Encoding: 95 -1 94
Width: 604
VWidth: 0
Flags: HW
LayerCount: 2
Fore
SplineSet
106.813476562 129.506835938 m 0
 114.875 137.568359375 126.5234375 146.961914062 126.7109375 147.150390625 c 0
 136.981445312 157.419921875 136.981445312 174.096679688 126.7109375 184.366210938 c 0
 117.1953125 193.881835938 102.1796875 194.581054688 91.8564453125 186.462890625 c 0
 -54.2578125 71.5625 -20.9189453125 -157.93359375 150.88671875 -227.072265625 c 0
 230.705078125 -259.19140625 304.780273438 -262.974609375 368.732421875 -245.422851562 c 0
 596.6171875 -182.877929688 684.111328125 142.993164062 516.500976562 310.602539062 c 0
 470.452148438 356.65234375 405.884765625 389.71484375 322.584960938 402.297851562 c 0
 317.270507812 403.100585938 311.756835938 402.275390625 306.852539062 399.823242188 c 2
 96.3251953125 294.560546875 l 2
 80.3525390625 286.57421875 76.779296875 265.126953125 89.494140625 252.413085938 c 0
 97.708984375 244.198242188 110.0234375 242.553710938 119.87890625 247.481445312 c 2
 322.826171875 348.955078125 l 1
 597.2734375 301.801757812 598.193359375 4.755859375 462.08984375 -131.34765625 c 0
 418.536132812 -174.901367188 322.502929688 -239.390625 170.579101562 -178.254882812 c 0
 42.69140625 -126.790039062 13.95703125 36.6513671875 106.813476562 129.506835938 c 0
EndSplineSet
Ligature2: "liga-1" O )
EndChar

StartChar: "+AH4gGAAA"
Encoding: 96 -1 95
Width: 263
VWidth: 0
Flags: HW
LayerCount: 2
Fore
SplineSet
118.028320312 -149.231445312 m 2
 113.860351562 -145.064453125 88.310546875 -146.64453125 92.49609375 -150.830078125 c 2
 145.127929688 -203.462890625 l 2
 149.295898438 -207.629882812 174.845703125 -206.049804688 170.66015625 -201.864257812 c 2
 118.028320312 -149.231445312 l 2
EndSplineSet
Ligature2: "liga-1" ~ ‘
EndChar

StartChar: (/
Encoding: 97 -1 96
Width: 609
VWidth: 0
Flags: HW
LayerCount: 2
Fore
SplineSet
149.2578125 366.510742188 m 0
 176.477539062 393.729492188 197.653320312 405.969726562 201.9921875 410.307617188 c 0
 212.26171875 420.578125 212.26171875 437.25390625 201.9921875 447.524414062 c 0
 192.880859375 456.634765625 178.729492188 457.663085938 168.48046875 450.610351562 c 0
 -81.037109375 278.891601562 -49.2080078125 -98.6533203125 224.877929688 -226.51171875 c 0
 315.291015625 -268.688476562 419.897460938 -268.6875 510.311523438 -226.51171875 c 0
 526.755859375 -218.83984375 530.708984375 -196.983398438 517.78125 -184.055664062 c 0
 509.743164062 -176.016601562 497.779296875 -174.270507812 488.03515625 -178.815429688 c 0
 411.639648438 -214.452148438 323.547851562 -214.453125 247.153320312 -178.815429688 c 0
 28.822265625 -76.966796875 -10.890625 206.361328125 149.2578125 366.510742188 c 0
390.189453125 -88.09765625 m 2
 386.884765625 -96.359375 389.250976562 -110.557617188 393.91015625 -110.557617188 c 0
 395.36328125 -110.557617188 396.678710938 -109.083984375 397.630859375 -106.702148438 c 2
 608.157226562 419.614257812 l 2
 611.461914062 427.875976562 609.095703125 442.07421875 604.436523438 442.07421875 c 0
 602.984375 442.07421875 601.66796875 440.599609375 600.715820312 438.21875 c 2
 390.189453125 -88.09765625 l 2
EndSplineSet
Ligature2: "liga-1" ( /
EndChar

StartChar: Y.alt1
Encoding: 98 -1 97
Width: 482
VWidth: 0
Flags: HW
LayerCount: 2
Fore
SplineSet
268.58984375 220.814453125 m 2
 265.741210938 222.950195312 262.787109375 218.111328125 265.650390625 215.963867188 c 2
 476.176757812 58.0703125 l 2
 479.025390625 55.93359375 481.979492188 60.7734375 479.116210938 62.9208984375 c 2
 268.58984375 220.814453125 l 2
161.501953125 -18.3935546875 m 2
 164.55078125 -19.41015625 167.119140625 -7.3095703125 167.119140625 7.86328125 c 0
 167.119140625 21.7919921875 164.951171875 33.20703125 162.2109375 34.1201171875 c 0
 4.1396484375 86.810546875 4.1396484375 86.810546875 3.9619140625 86.810546875 c 0
 1.056640625 86.810546875 -1.30078125 75.01953125 -1.30078125 60.4951171875 c 0
 -1.30078125 48.876953125 0.2080078125 39.0078125 2.298828125 35.5234375 c 2
 160.193359375 -227.635742188 l 2
 163.581054688 -233.283203125 167.119140625 -220.64453125 167.119140625 -202.663085938 c 0
 167.119140625 -191.045898438 165.610351562 -181.17578125 163.51953125 -177.69140625 c 2
 44.5517578125 20.58984375 l 1
 161.501953125 -18.3935546875 l 2
482.91015625 271.020507812 m 2
 482.91015625 285.544921875 480.551757812 297.336914062 477.646484375 297.336914062 c 0
 474.7421875 297.336914062 472.383789062 285.544921875 472.383789062 271.020507812 c 2
 472.383789062 60.4951171875 l 2
 472.383789062 45.970703125 474.7421875 34.1796875 477.646484375 34.1796875 c 0
 480.551757812 34.1796875 482.91015625 45.970703125 482.91015625 60.4951171875 c 2
 482.91015625 271.020507812 l 2
EndSplineSet
EndChar

StartChar: VA
Encoding: 99 -1 98
Width: 292
VWidth: 0
Flags: HW
LayerCount: 2
Fore
SplineSet
-1.2177734375 7.86328125 m 2
 -1.2177734375 -15.5048828125 27.2265625 -27.2197265625 43.701171875 -10.7451171875 c 0
 48.8359375 -5.609375 51.4033203125 1.126953125 51.4033203125 7.86328125 c 2
 51.404296875 165.7578125 l 2
 51.404296875 189.125976562 22.9609375 200.840820312 6.4853515625 184.366210938 c 0
 1.3505859375 179.231445312 -1.216796875 172.495117188 -1.216796875 165.758789062 c 2
 -1.2177734375 7.86328125 l 2
21.1376953125 -201.525390625 m 2
 18.658203125 -204.624023438 26.560546875 -206.911132812 29.05078125 -203.797851562 c 2
 239.576171875 59.3583984375 l 2
 240.962890625 61.0927734375 238.849609375 63.126953125 235.619140625 63.126953125 c 0
 233.876953125 63.126953125 232.370117188 62.515625 231.663085938 61.630859375 c 2
 21.1376953125 -201.525390625 l 2
288.252929688 163.126953125 m 2
 293.994140625 163.126953125 293.994140625 168.390625 288.252929688 168.390625 c 2
 130.357421875 168.390625 l 2
 124.615234375 168.390625 124.615234375 163.126953125 130.357421875 163.126953125 c 2
 288.252929688 163.126953125 l 2
EndSplineSet
Ligature2: "liga-1" V A
EndChar

StartChar: LY
Encoding: 100 -1 99
Width: 471
VWidth: 0
Flags: HW
LayerCount: 2
Fore
SplineSet
103.874023438 425.990234375 m 2
 106.61328125 450.635742188 76.5751953125 464.981445312 59.1181640625 447.524414062 c 0
 54.7275390625 443.133789062 52.2138671875 437.573242188 51.5771484375 431.842773438 c 2
 -1.0556640625 -41.841796875 l 2
 -3.365234375 -62.6318359375 18.3603515625 -77.5625 36.869140625 -68.3076171875 c 2
 457.922851562 142.217773438 l 2
 460.248046875 143.379882812 472.45703125 150.224609375 472.45703125 165.7578125 c 2
 472.45703125 323.653320312 l 2
 472.45703125 347.021484375 444.012695312 358.735351562 427.538085938 342.260742188 c 0
 422.403320312 337.125976562 419.8359375 330.389648438 419.8359375 323.653320312 c 2
 419.8359375 182.029296875 l 1
 56.5859375 0.4052734375 l 1
 103.874023438 425.990234375 l 2
EndSplineSet
Ligature2: "liga-1" L Y
EndChar

StartChar: glyph100
Encoding: 101 104 100
Width: 156
VWidth: 0
Flags: HW
LayerCount: 2
Fore
SplineSet
50.890625 328.844726562 m 2
 46.7939453125 349.330078125 21.30859375 357.084960938 6.4853515625 342.26171875 c 0
 1.3505859375 337.126953125 -1.216796875 330.390625 -1.216796875 323.654296875 c 2
 -1.216796875 -150.03125 l 2
 -1.216796875 -173.399414062 27.2275390625 -185.114257812 43.7021484375 -168.639648438 c 0
 48.8369140625 -163.504882812 51.404296875 -156.767578125 51.404296875 -150.03125 c 2
 51.404296875 57.92578125 l 1
 104.560546875 -207.854492188 l 2
 108.658203125 -228.33984375 134.143554688 -236.09375 148.965820312 -221.271484375 c 0
 154.9375 -215.299804688 157.436523438 -207.162109375 156.463867188 -199.376953125 c 2
 103.83203125 221.676757812 l 2
 101.700195312 238.728515625 84.009765625 249.133789062 68.083984375 242.879882812 c 1
 50.890625 328.844726562 l 2
EndSplineSet
EndChar

StartChar: glyph101
Encoding: 102 46 101
Width: 164
VWidth: 0
Flags: HW
LayerCount: 2
Fore
SplineSet
51.7236328125 -151.768554688 m 2
 53.3486328125 -158.266601562 60.44921875 -154.80078125 58.822265625 -148.294921875 c 2
 31.0234375 -37.0986328125 l 1
 51.8642578125 -99.62109375 l 2
 53.947265625 -105.869140625 60.7607421875 -101.416015625 58.681640625 -95.1787109375 c 2
 6.0498046875 62.716796875 l 2
 4.0634765625 68.67578125 -2.4580078125 64.9580078125 -0.908203125 58.7578125 c 2
 51.7236328125 -151.768554688 l 2
156.150390625 113.125976562 m 2
 156.150390625 108.8203125 164.922851562 108.8203125 164.922851562 113.125976562 c 2
 164.922851562 165.7578125 l 2
 164.922851562 170.063476562 156.150390625 170.063476562 156.150390625 165.7578125 c 2
 156.150390625 113.125976562 l 2
EndSplineSet
EndChar

StartChar: bi
Encoding: 103 -1 102
Width: 556
VWidth: 0
Flags: HW
LayerCount: 2
Fore
SplineSet
334.397460938 252.413085938 m 2
 344.66796875 262.68359375 344.66796875 279.359375 334.397460938 289.62890625 c 0
 324.127929688 299.899414062 307.452148438 299.899414062 297.181640625 289.62890625 c 2
 220.141601562 212.588867188 l 1
 129.69140625 438.711914062 l 2
 121.31640625 459.650390625 91.8310546875 460.907226562 81.7236328125 440.692382812 c 2
 29.0927734375 335.4296875 l 2
 24.1650390625 325.57421875 25.80859375 313.259765625 34.0234375 305.044921875 c 0
 46.73828125 292.331054688 68.185546875 295.904296875 76.1708984375 311.876953125 c 2
 102.59375 364.721679688 l 1
 186.09765625 155.962890625 l 2
 193.063476562 138.548828125 215.767578125 133.783203125 229.134765625 147.150390625 c 2
 334.397460938 252.413085938 l 2
202.17578125 -177.705078125 m 2
 183.75390625 -183.845703125 178.088867188 -207.44140625 191.918945312 -221.271484375 c 0
 199.205078125 -228.55859375 209.716796875 -230.674804688 218.877929688 -227.62109375 c 2
 376.771484375 -174.989257812 l 2
 395.193359375 -168.848632812 400.858398438 -145.252929688 387.029296875 -131.423828125 c 0
 379.7421875 -124.13671875 369.23046875 -122.01953125 360.0703125 -125.073242188 c 2
 202.17578125 -177.705078125 l 2
524.345703125 -157.053710938 m 2
 527.783203125 -163.928710938 531.741210938 -149.916015625 528.287109375 -143.009765625 c 2
 425.123046875 63.3173828125 l 1
 476.692382812 372.728515625 l 2
 477.686523438 378.694335938 475.94921875 385.451171875 473.4765625 385.0390625 c 2
 157.686523438 332.408203125 l 2
 153.399414062 331.694335938 153.794921875 314.181640625 158.102539062 314.899414062 c 2
 468.474609375 366.626953125 l 1
 418.044921875 64.05078125 l 2
 417.431640625 60.3701171875 417.836914062 55.9638671875 419.08203125 53.4736328125 c 2
 524.345703125 -157.053710938 l 2
EndSplineSet
Ligature2: "liga-1" b i
EndChar

StartChar: |.alt6
Encoding: 104 -1 103
Width: 263
VWidth: 0
Flags: HW
LayerCount: 2
Fore
SplineSet
157.893554688 -47.69140625 m 0
 165.3046875 -47.69140625 171.28125 -46.328125 171.044921875 -44.673828125 c 2
 118.413085938 323.748046875 l 2
 118.189453125 325.318359375 112.381835938 326.577148438 105.26171875 326.577148438 c 0
 98 326.577148438 92.1044921875 325.267578125 92.1044921875 323.653320312 c 2
 92.1044921875 -202.663085938 l 2
 92.1044921875 -204.27734375 98 -205.586914062 105.26171875 -205.586914062 c 0
 112.524414062 -205.586914062 118.419921875 -204.27734375 118.419921875 -202.663085938 c 2
 118.419921875 139.396484375 l 1
 144.743164062 -44.8623046875 l 2
 144.966796875 -46.4326171875 150.7734375 -47.69140625 157.893554688 -47.69140625 c 0
EndSplineSet
EndChar

StartChar: |.alt7
Encoding: 105 -1 104
Width: 189
VWidth: 0
Flags: HW
LayerCount: 2
Fore
SplineSet
155.315429688 -0.4873046875 m 2
 164.034179688 25.671875 131.206054688 45.9287109375 111.749023438 26.4716796875 c 0
 108.765625 23.48828125 106.6484375 19.9638671875 105.3984375 16.2138671875 c 2
 91.6640625 -24.9892578125 l 1
 51.2734375 378.920898438 l 2
 49.07421875 400.913085938 22.111328125 410.517578125 6.4853515625 394.892578125 c 0
 0.6796875 389.0859375 -1.84375 381.233398438 -1.0849609375 373.647460938 c 2
 51.546875 -152.66796875 l 2
 54.3427734375 -180.633789062 93.8173828125 -184.982421875 102.68359375 -158.381835938 c 2
 155.315429688 -0.4873046875 l 2
180.805664062 268.877929688 m 2
 184.801757812 266.880859375 189.184570312 271.15625 185.168945312 273.1640625 c 2
 79.9072265625 325.795898438 l 2
 75.912109375 327.793945312 71.529296875 323.517578125 75.5439453125 321.510742188 c 2
 180.805664062 268.877929688 l 2
176.409179688 218.388671875 m 2
 176.409179688 203.865234375 179.357421875 192.073242188 182.98828125 192.073242188 c 0
 186.619140625 192.073242188 189.567382812 203.865234375 189.567382812 218.388671875 c 2
 189.567382812 376.284179688 l 2
 189.567382812 390.80859375 186.619140625 402.600585938 182.98828125 402.600585938 c 0
 179.357421875 402.600585938 176.409179688 390.80859375 176.409179688 376.284179688 c 2
 176.409179688 218.388671875 l 2
EndSplineSet
EndChar

StartChar: glyph105
Encoding: 106 64 105
Width: 591
VWidth: 0
Flags: HW
LayerCount: 2
Fore
SplineSet
10.015625 86.810546875 m 0
 10.015625 228.461914062 108.252929688 367.947265625 298.291015625 367.947265625 c 0
 646.360351562 367.947265625 688.756835938 -146.340820312 332.73046875 -193.919921875 c 0
 325.880859375 -194.834960938 326.6953125 -212.327148438 333.58203125 -211.407226562 c 0
 702.822265625 -162.061523438 660.540039062 385.491210938 298.291015625 385.491210938 c 0
 105.323242188 385.491210938 -0.5107421875 242.521484375 -0.5107421875 86.810546875 c 0
 -0.5107421875 -60.7880859375 95.5 -202.463867188 280.370117188 -211.431640625 c 0
 287.263671875 -211.765625 287.560546875 -194.229492188 280.680664062 -193.895507812 c 0
 97.853515625 -185.026367188 10.015625 -46.1455078125 10.015625 86.810546875 c 0
335.787109375 113.126953125 m 2
 335.787109375 118.868164062 330.524414062 118.868164062 330.524414062 113.126953125 c 2
 330.524414062 -44.7685546875 l 2
 330.524414062 -50.509765625 335.787109375 -50.509765625 335.787109375 -44.7685546875 c 2
 335.787109375 113.126953125 l 2
254.209960938 -45.4287109375 m 1
 365.834960938 93.5732421875 365.766601562 291.270507812 253.690429688 430.221679688 c 0
 251.265625 433.228515625 240.629882812 435.495117188 227.893554688 435.495117188 c 0
 213.370117188 435.495117188 201.578125 432.546875 201.578125 428.916015625 c 2
 201.578125 -44.1044921875 l 1
 186.231445312 -63.037109375 168.958007812 -80.2578125 150.120117188 -95.451171875 c 0
 144.899414062 -99.6630859375 157.516601562 -103.978515625 175.26171875 -103.978515625 c 0
 187.07421875 -103.978515625 197.079101562 -102.028320312 200.403320312 -99.3466796875 c 0
 200.795898438 -99.0302734375 201.1875 -98.7138671875 201.578125 -98.3955078125 c 1
 201.578125 -202.663085938 l 2
 201.578125 -206.293945312 213.370117188 -209.2421875 227.893554688 -209.2421875 c 0
 242.41796875 -209.2421875 254.209960938 -206.293945312 254.209960938 -202.663085938 c 2
 254.209960938 -45.4287109375 l 1
254.209960938 341.504882812 m 1
 295.750976562 245.745117188 295.2734375 137.301757812 254.209960938 42.6435546875 c 1
 254.209960938 341.504882812 l 1
EndSplineSet
EndChar

StartChar: |.alt8
Encoding: 107 -1 106
Width: 77
VWidth: 0
Flags: HW
LayerCount: 2
Fore
SplineSet
-1.2763671875 -44.7685546875 m 2
 -1.2763671875 -46.583984375 4.6240234375 -48.0576171875 11.88671875 -48.0576171875 c 0
 19.0244140625 -48.0576171875 24.8427734375 -46.6337890625 25.0390625 -44.861328125 c 2
 77.681640625 428.916015625 l 2
 77.681640625 430.731445312 71.7802734375 432.206054688 64.5185546875 432.206054688 c 0
 57.380859375 432.206054688 51.5625 430.78125 51.365234375 429.008789062 c 2
 -1.2763671875 -44.7685546875 l 2
EndSplineSet
EndChar

StartChar: \.alt15
Encoding: 108 -1 107
Width: 301
VWidth: 0
Flags: HW
LayerCount: 2
Fore
SplineSet
73.703125 234.159179688 m 2
 64.076171875 246.995117188 45.3251953125 248.298828125 34.0234375 236.997070312 c 0
 24.6533203125 227.626953125 23.8330078125 212.923828125 31.5615234375 202.619140625 c 0
 167.198242188 21.7685546875 190.030273438 -8.857421875 191.91796875 -10.7451171875 c 0
 202.1875 -21.0146484375 218.864257812 -21.0146484375 229.133789062 -10.7451171875 c 0
 238.50390625 -1.3740234375 239.325195312 13.3291015625 231.596679688 23.6337890625 c 2
 73.703125 234.159179688 l 2
148.85546875 10.0966796875 m 0
 81.40625 10.0966796875 36.3984375 70.72265625 36.3984375 123.838867188 c 0
 36.3984375 203.096679688 128.048828125 269.168945312 208.25390625 215.770507812 c 0
 212.162109375 213.16796875 216.725585938 218.395507812 212.80078125 221.008789062 c 0
 127.700195312 277.666992188 28.87890625 208.829101562 28.87890625 123.838867188 c 0
 28.87890625 66.7529296875 77.5126953125 3.517578125 148.85546875 3.517578125 c 0
 225.349609375 3.517578125 298.954101562 75.6640625 266.750976562 166.729492188 c 0
 265.4921875 170.2890625 259.399414062 169.489257812 259.399414062 165.756835938 c 0
 259.399414062 165.328125 266.993164062 145.86328125 266.993164062 123.309570312 c 0
 266.993164062 57.189453125 208.231445312 10.0966796875 148.85546875 10.0966796875 c 0
EndSplineSet
EndChar

StartChar: 2.alt3
Encoding: 109 -1 108
Width: 314
VWidth: 0
Flags: HW
LayerCount: 2
Fore
SplineSet
201.596679688 -26.16015625 m 0
 188.8828125 -13.4462890625 167.435546875 -17.01953125 159.44921875 -32.9921875 c 2
 114.084960938 -123.720703125 l 1
 25.09375 -123.720703125 l 2
 1.7255859375 -123.720703125 -9.9892578125 -152.165039062 6.4853515625 -168.639648438 c 0
 11.62109375 -173.774414062 18.357421875 -176.341796875 25.09375 -176.341796875 c 0
 288.251953125 -176.341796875 288.251953125 -176.341796875 288.251953125 -176.341796875 c 2
 311.620117188 -176.341796875 323.333984375 -147.8984375 306.859375 -131.423828125 c 0
 301.724609375 -126.288085938 294.98828125 -123.720703125 288.251953125 -123.720703125 c 2
 172.940429688 -123.720703125 l 1
 206.528320312 -56.544921875 l 2
 211.456054688 -46.689453125 209.8125 -34.3759765625 201.596679688 -26.16015625 c 0
91.2060546875 -122.255859375 m 0
 174.151367188 -122.255859375 220.400390625 -51.6494140625 220.400390625 8.3623046875 c 0
 220.400390625 50.7509765625 198.817382812 93.181640625 140.362304688 115.974609375 c 0
 130.446289062 119.840820312 118.15625 122.461914062 104.041015625 122.461914062 c 0
 89.9267578125 122.461914062 77.63671875 119.840820312 67.720703125 115.974609375 c 0
 60.4521484375 113.140625 66.548828125 108.741210938 77.7255859375 108.741210938 c 0
 81.728515625 108.741210938 85.31640625 109.337890625 87.73046875 110.279296875 c 0
 99.2939453125 114.788085938 108.787109375 114.7890625 120.352539062 110.279296875 c 0
 170.97265625 90.5419921875 194.084960938 50.005859375 194.084960938 8.3623046875 c 0
 194.084960938 -56.90234375 141.055664062 -113.484375 91.2060546875 -113.484375 c 0
 78.9140625 -113.484375 59.3388671875 -109.384765625 36.6943359375 -95.3291015625 c 0
 30.2626953125 -91.3369140625 11.935546875 -92.880859375 11.935546875 -97.3994140625 c 0
 11.935546875 -98.1474609375 12.5 -98.8525390625 13.4931640625 -99.4697265625 c 0
 36.9228515625 -114.012695312 62.07421875 -122.255859375 91.2060546875 -122.255859375 c 0
38.25 376.284179688 m 2
 38.25 378.705078125 32.3544921875 380.669921875 25.0927734375 380.669921875 c 0
 17.830078125 380.669921875 11.9345703125 378.705078125 11.9345703125 376.284179688 c 2
 11.9345703125 271.020507812 l 2
 11.9345703125 268.600585938 17.830078125 266.634765625 25.0927734375 266.634765625 c 0
 32.3544921875 266.634765625 38.25 268.600585938 38.25 271.020507812 c 2
 38.25 376.284179688 l 2
EndSplineSet
EndChar

StartChar: glyph109
Encoding: 110 83 109
Width: 590
VWidth: 0
Flags: HW
LayerCount: 2
Fore
SplineSet
446.578125 -92.4384765625 m 1
 367.928710938 -201.518554688 212.469726562 -204.724609375 120.318359375 -112.573242188 c 0
 45.1513671875 -37.40625 26.828125 86.4921875 94.2431640625 181.600585938 c 1
 446.578125 -92.4384765625 l 1
83.1025390625 -149.7890625 m 0
 197.365234375 -264.051757812 389.793945312 -259.04296875 488.147460938 -124.76953125 c 1
 547.357421875 -170.822265625 l 2
 557.676757812 -178.849609375 572.620117188 -178.12109375 582.1015625 -168.639648438 c 0
 593.266601562 -157.474609375 592.157226562 -138.984375 579.629882812 -129.240234375 c 2
 514.955078125 -78.9375 l 1
 526.74609375 -52.95703125 534.421875 -24.552734375 537.071289062 5.5390625 c 0
 539.219726562 29.9462890625 509.504882812 43.72265625 492.254882812 26.4716796875 c 0
 487.7109375 21.927734375 485.176757812 16.1298828125 484.654296875 10.1875 c 0
 482.932617188 -9.3701171875 478.553710938 -28.0224609375 471.91015625 -45.4580078125 c 1
 105.946289062 239.181640625 l 2
 95.1259765625 247.596679688 79.318359375 246.344726562 70.0048828125 235.720703125 c 0
 -34.541015625 116.45703125 -15.3818359375 -51.3056640625 83.1025390625 -149.7890625 c 0
EndSplineSet
EndChar

StartChar: \.alt16
Encoding: 111 -1 110
Width: 350
VWidth: 0
Flags: HW
LayerCount: 2
Fore
SplineSet
131.14453125 119.703125 m 1
 110.952148438 119.703125 101.138671875 115.21484375 104.825195312 111.528320312 c 2
 157.455078125 58.896484375 l 2
 160.315429688 56.037109375 170.668945312 53.916015625 182.987304688 53.916015625 c 0
 198.586914062 53.916015625 210.82421875 57.3017578125 209.15234375 61.203125 c 2
 144.186523438 212.79296875 l 1
 146.2734375 213.116210938 158.48046875 215.190429688 156.46875 219.212890625 c 2
 51.205078125 429.739257812 l 2
 49.583984375 432.982421875 38.5029296875 435.495117188 25.09375 435.495117188 c 0
 9.4951171875 435.495117188 -2.7431640625 432.109375 -1.0712890625 428.208007812 c 2
 131.14453125 119.703125 l 1
258.059570312 432.352539062 m 0
 244.232421875 437.98046875 209.303710938 435.49609375 209.303710938 428.916015625 c 0
 209.303710938 427.657226562 210.721679688 426.48046875 213.178710938 425.479492188 c 0
 238.372070312 415.225585938 258.780273438 399.604492188 272.881835938 381.028320312 c 0
 290.50390625 357.815429688 298.653320312 330.083984375 298.653320312 302.23828125 c 0
 298.653320312 261.823242188 281.390625 221.064453125 252.888671875 193.430664062 c 0
 240.240234375 181.166992188 225.111328125 171.553710938 210.599609375 166.104492188 c 0
 198.451171875 161.543945312 189.814453125 160.926757812 187.325195312 160.926757812 c 0
 184.3671875 160.926757812 171.310546875 161.919921875 152.578125 169.282226562 c 0
 147.309570312 171.352539062 132.44921875 176.328125 125.39453125 186.91015625 c 0
 103.682617188 219.477539062 103.682617188 219.477539062 103.682617188 219.477539062 c 2
 101.606445312 222.591796875 90.767578125 224.96875 77.7255859375 224.96875 c 0
 62.2216796875 224.96875 50.0107421875 221.622070312 51.537109375 217.740234375 c 0
 56.517578125 205.067382812 64.0830078125 193.705078125 73.8583984375 184.166992188 c 1
 262.294921875 -98.4873046875 l 2
 264.37109375 -101.6015625 275.209960938 -103.978515625 288.252929688 -103.978515625 c 0
 304.490234375 -103.978515625 316.885742188 -100.325195312 314.209960938 -96.3115234375 c 2
 149.493164062 150.762695312 l 1
 164.145507812 148.329101562 211.04296875 142.532226562 254.439453125 158.825195312 c 0
 365.485351562 200.518554688 399.595703125 374.745117188 258.059570312 432.352539062 c 0
78.4716796875 87.078125 m 0
 78.4716796875 -80.794921875 21.8046875 -199.73046875 21.8046875 -202.663085938 c 0
 21.8046875 -205.1328125 25.7275390625 -206.2421875 27.6640625 -204.305664062 c 2
 290.822265625 58.853515625 l 2
 293.5078125 61.5390625 288.377929688 64.8330078125 285.682617188 62.1376953125 c 2
 33.564453125 -189.98046875 l 1
 72.486328125 -88.87109375 129.401367188 129.18359375 28.2216796875 377.100585938 c 0
 27.0732421875 379.9140625 21.8046875 379.247070312 21.8046875 376.284179688 c 0
 21.8046875 371.749023438 78.4716796875 256.583007812 78.4716796875 87.078125 c 0
EndSplineSet
EndChar

StartChar: glyph111
Encoding: 112 74 111
Width: 316
VWidth: 0
Flags: HW
LayerCount: 2
Fore
SplineSet
54.4267578125 431.665039062 m 2
 52.7509765625 433.899414062 50.0009765625 432.184570312 50.0009765625 428.916015625 c 0
 50.0009765625 427.83203125 50.322265625 426.854492188 50.8369140625 426.16796875 c 2
 207.89453125 216.756835938 l 1
 207.89453125 -150.032226562 l 2
 207.89453125 -154.953125 213.158203125 -154.953125 213.158203125 -150.032226562 c 2
 213.158203125 218.388671875 l 2
 213.158203125 219.473632812 212.8359375 220.451171875 212.321289062 221.137695312 c 2
 54.4267578125 431.665039062 l 2
264.890625 268.19140625 m 2
 267.484375 271.43359375 264.01953125 277.090820312 261.426757812 273.850585938 c 2
 50.900390625 10.693359375 l 2
 48.306640625 7.451171875 51.771484375 1.79296875 54.36328125 5.033203125 c 2
 264.890625 268.19140625 l 2
266.91796875 165.756835938 m 2
 266.91796875 170.063476562 259.399414062 170.063476562 259.399414062 165.756835938 c 2
 259.399414062 -44.7685546875 l 2
 259.399414062 -49.07421875 266.91796875 -49.07421875 266.91796875 -44.7685546875 c 2
 266.91796875 165.756835938 l 2
EndSplineSet
EndChar

StartChar: 4.alt1
Encoding: 113 -1 112
Width: 158
VWidth: 0
Flags: HW
LayerCount: 2
Fore
SplineSet
34.0234375 -221.270507812 m 0
 46.73828125 -233.984375 68.1845703125 -230.412109375 76.1708984375 -214.439453125 c 2
 128.802734375 -109.177734375 l 2
 133.73046875 -99.322265625 132.086914062 -87.0078125 123.872070312 -78.7919921875 c 0
 111.158203125 -66.078125 89.7109375 -69.6513671875 81.724609375 -85.6240234375 c 2
 29.0927734375 -190.885742188 l 2
 24.1650390625 -200.741210938 25.80859375 -213.055664062 34.0234375 -221.270507812 c 0
EndSplineSet
EndChar

StartChar: ;.alt1
Encoding: 114 -1 113
Width: 187
VWidth: 0
Flags: HW
LayerCount: 2
Fore
SplineSet
16.1494140625 -96.6435546875 m 2
 13.6748046875 -99.9423828125 26.28125 -101.455078125 28.7548828125 -98.15625 c 2
 146.475585938 58.8056640625 l 1
 15.873046875 -202.400390625 15.873046875 -202.400390625 15.873046875 -202.663085938 c 0
 15.873046875 -205.532226562 25.8994140625 -206.302734375 28.5634765625 -203.638671875 c 2
 133.827148438 -98.375 l 2
 137.020507812 -95.181640625 124.807617188 -93.220703125 121.604492188 -96.423828125 c 2
 42.9599609375 -175.068359375 l 1
 186.924804688 112.864257812 186.924804688 112.864257812 186.924804688 113.126953125 c 0
 186.924804688 116.125 176.193359375 116.75 174.043945312 113.883789062 c 2
 16.1494140625 -96.6435546875 l 2
184.545898438 109.318359375 m 0
 189.051757812 154.012695312 160.474609375 182.225585938 127.56640625 178.908203125 c 0
 125.21484375 178.670898438 123.330078125 172.869140625 123.330078125 165.7578125 c 0
 123.330078125 158.495117188 125.294921875 152.599609375 127.715820312 152.599609375 c 0
 127.94921875 152.599609375 129.841796875 152.84765625 132.63671875 152.84765625 c 0
 146.852539062 152.84765625 159.61328125 146.221679688 167.677734375 136.666015625 c 0
 167.77734375 136.547851562 177.00390625 125.432617188 176.147460938 116.935546875 c 0
 173.905273438 94.6875 148.87109375 70.12109375 110.8046875 70.12109375 c 0
 79.783203125 70.12109375 45.400390625 87.3564453125 24.6953125 124.43359375 c 0
 12.7265625 145.866210938 8.63671875 166.2734375 8.63671875 182.34375 c 0
 8.63671875 235.918945312 52.69921875 300.352539062 127.916015625 310.509765625 c 0
 130.244140625 310.82421875 132.1015625 316.592773438 132.1015625 323.654296875 c 0
 132.1015625 331.129882812 130.020507812 337.13671875 127.515625 336.797851562 c 0
 77.5966796875 330.057617188 38.619140625 299.857421875 17.37109375 257.9453125 c 0
 6.8359375 237.165039062 -0.1357421875 211.797851562 -0.1357421875 182.34375 c 0
 -0.1357421875 107.23828125 46.9443359375 43.8046875 110.8046875 43.8046875 c 0
 120.227539062 43.8046875 178.202148438 46.3740234375 184.545898438 109.318359375 c 0
75.8095703125 231.368164062 m 2
 73.1337890625 232.705078125 70.6982421875 226.508789062 70.6982421875 218.388671875 c 0
 70.6982421875 211.868164062 72.283203125 206.448242188 74.3583984375 205.41015625 c 0
 179.98046875 152.599609375 179.98046875 152.599609375 180.346679688 152.599609375 c 0
 185.659179688 152.599609375 186.294921875 176.124023438 181.071289062 178.736328125 c 2
 75.8095703125 231.368164062 l 2
EndSplineSet
EndChar

StartChar: V.alt1
Encoding: 115 -1 114
Width: 577
VWidth: 0
Flags: HW
LayerCount: 2
Fore
SplineSet
374.90625 -168.638671875 m 0
 388.2734375 -182.005859375 410.977539062 -177.240234375 417.943359375 -159.826171875 c 2
 523.20703125 103.330078125 l 2
 528.114257812 115.59765625 523.169921875 129.684570312 511.55859375 136.135742188 c 2
 37.873046875 399.293945312 l 2
 27.8623046875 404.856445312 14.982421875 403.388671875 6.4853515625 394.892578125 c 0
 -5.88671875 382.51953125 -2.90234375 361.727539062 12.314453125 353.2734375 c 2
 465.731445312 101.375 l 1
 369.0859375 -140.234375 l 2
 365.29296875 -149.716796875 367.233398438 -160.965820312 374.90625 -168.638671875 c 0
254.228515625 289.62890625 m 0
 241.514648438 302.34375 220.067382812 298.770507812 212.081054688 282.797851562 c 2
 106.817382812 72.2724609375 l 2
 101.889648438 62.4169921875 103.533203125 50.1025390625 111.749023438 41.8876953125 c 0
 124.462890625 29.1728515625 145.91015625 32.74609375 153.896484375 48.71875 c 2
 259.16015625 259.244140625 l 2
 264.087890625 269.099609375 262.444335938 281.4140625 254.228515625 289.62890625 c 0
368.219726562 -157.291992188 m 2
 373.692382812 -176.447265625 397.948242188 -182.8125 412.123046875 -168.638671875 c 0
 419.122070312 -161.639648438 421.3515625 -151.6640625 418.809570312 -142.76953125 c 2
 328.297851562 174.024414062 l 1
 541.614257812 88.6962890625 l 2
 551.096679688 84.904296875 562.345703125 86.84375 570.018554688 94.517578125 c 0
 583.385742188 107.884765625 578.620117188 130.588867188 561.206054688 137.5546875 c 2
 298.047851562 242.819335938 l 2
 277.82421875 250.908203125 256.950195312 232.15234375 262.956054688 211.12890625 c 2
 368.219726562 -157.291992188 l 2
EndSplineSet
EndChar

StartChar: GQ)
Encoding: 117 -1 115
Width: 474
VWidth: 0
Flags: HW
LayerCount: 2
Fore
SplineSet
179.145507812 323.654296875 m 2
 179.145507812 329.395507812 161.6015625 329.395507812 161.6015625 323.654296875 c 2
 161.6015625 60.4951171875 l 2
 161.6015625 54.75390625 179.145507812 54.75390625 179.145507812 60.4951171875 c 2
 179.145507812 323.654296875 l 2
312.174804688 608.578125 m 0
 102.451171875 608.578125 -188.977539062 378.283203125 164.426757812 215.16796875 c 0
 171.302734375 211.994140625 198.735351562 201.220703125 228.952148438 215.16796875 c 0
 234.801757812 217.8671875 230.936523438 222.776367188 223.005859375 222.776367188 c 0
 215.877929688 222.776367188 211.1484375 216.99609375 196.689453125 216.99609375 c 0
 190.328125 216.99609375 183.4375 218.329101562 176.3203125 221.614257812 c 0
 -166.265625 379.736328125 119.772460938 599.806640625 312.174804688 599.806640625 c 0
 388.92578125 599.806640625 456.69140625 564.0703125 456.69140625 463.875 c 0
 456.69140625 397.366210938 424.758789062 325.064453125 424.758789062 323.653320312 c 0
 424.758789062 318.41796875 440.106445312 317.677734375 442.135742188 322.796875 c 0
 464.450195312 379.095703125 474.235351562 425.72265625 474.235351562 463.875 c 0
 474.235351562 565.036132812 404.142578125 608.578125 312.174804688 608.578125 c 0
EndSplineSet
Ligature2: "liga-1" G Q )
EndChar

StartChar: CO
Encoding: 118 -1 116
Width: 887
VWidth: 0
Flags: HW
LayerCount: 2
Fore
SplineSet
657.620117188 -126.333007812 m 0
 844.819335938 -99.3505859375 964.19921875 258.4765625 830.30859375 392.368164062 c 0
 770.8671875 451.809570312 670.255859375 460.577148438 529.93359375 400.470703125 c 0
 512.938476562 393.19140625 508.528320312 370.853515625 521.706054688 357.67578125 c 0
 529.537109375 349.844726562 541.09375 347.985351562 550.694335938 352.09765625 c 0
 683.471679688 408.971679688 755.884765625 392.359375 793.092773438 355.151367188 c 0
 872.958984375 275.28515625 829.38671875 67.9365234375 733.86328125 -27.587890625 c 0
 687.260742188 -74.1904296875 614.978515625 -108.66796875 528.376953125 -22.06640625 c 0
 505.548828125 0.7626953125 481.7265625 32.1943359375 457.860351562 73.626953125 c 0
 438.37109375 107.461914062 453.63671875 141.352539062 479.23828125 191.0234375 c 0
 500.77734375 232.813476562 524.420898438 278.6875 513.384765625 329.291015625 c 0
 452.323242188 609.274414062 232.802734375 587.626953125 96.6767578125 451.5 c 0
 -39.4482421875 315.375976562 -61.1005859375 95.853515625 218.884765625 34.7919921875 c 0
 244.442382812 29.2177734375 261.5546875 60.6796875 243.131835938 79.103515625 c 0
 239.438476562 82.796875 234.916015625 85.162109375 230.162109375 86.19921875 c 0
 -18.669921875 140.466796875 37.2919921875 317.68359375 133.892578125 414.284179688 c 0
 230.491210938 510.8828125 407.708984375 566.848632812 461.977539062 318.014648438 c 0
 478.745117188 241.135742188 352.681640625 150.760742188 412.23828125 47.3642578125 c 0
 433.776367188 9.9716796875 523.805664062 -145.62109375 657.620117188 -126.333007812 c 0
460.0078125 262.670898438 m 2
 468.727539062 288.830078125 435.8984375 309.0859375 416.44140625 289.62890625 c 0
 413.458007812 286.645507812 411.340820312 283.122070312 410.090820312 279.372070312 c 2
 357.459960938 121.4765625 l 2
 348.740234375 95.3173828125 381.569335938 75.0615234375 401.026367188 94.5185546875 c 0
 404.009765625 97.501953125 406.125976562 101.025390625 407.375976562 104.775390625 c 2
 460.0078125 262.670898438 l 2
331.52734375 374.05078125 m 2
 335.184570312 375.879882812 331.693359375 380.340820312 328.046875 378.517578125 c 2
 222.783203125 325.88671875 l 2
 219.125976562 324.057617188 222.6171875 319.596679688 226.263671875 321.419921875 c 2
 331.52734375 374.05078125 l 2
EndSplineSet
Ligature2: "liga-1" C O
EndChar

StartChar: glyph117
Encoding: 119 80 117
Width: 482
VWidth: 0
Flags: HW
LayerCount: 2
Fore
SplineSet
58.185546875 385.034179688 m 2
 52.751953125 385.034179688 53.115234375 368.290039062 57.642578125 367.53515625 c 2
 372.201171875 315.110351562 l 1
 476.5234375 106.46484375 l 2
 480.254882812 99.001953125 485.155273438 112.302734375 481.412109375 119.7890625 c 2
 376.1484375 330.31640625 l 2
 375.555664062 331.502929688 374.802734375 332.265625 373.975585938 332.403320312 c 2
 58.185546875 385.034179688 l 2
210.1640625 -96.048828125 m 2
 205.745117188 -98.994140625 217.012695312 -101.712890625 221.455078125 -98.7509765625 c 2
 379.349609375 6.5126953125 l 2
 383.768554688 9.4580078125 372.500976562 12.1767578125 368.05859375 9.21484375 c 2
 210.1640625 -96.048828125 l 2
-1.22265625 8.2568359375 m 1
 -1.22265625 4.0283203125 10.7216796875 4.623046875 11.7890625 7.470703125 c 0
 169.756835938 428.717773438 169.756835938 428.717773438 169.756835938 428.916015625 c 0
 169.756835938 432.127929688 157.859375 432.475585938 156.671875 429.30859375 c 2
 -1.22265625 8.2568359375 l 1
EndSplineSet
EndChar

StartChar: i.alt1
Encoding: 120 -1 118
Width: 582
VWidth: 0
Flags: HW
LayerCount: 2
Fore
SplineSet
346.592773438 -17.0947265625 m 2
 360.66796875 -12.40234375 368.100585938 3.1103515625 362.89453125 17.078125 c 1
 406.450195312 38.8564453125 406.450195312 38.8564453125 409.481445312 41.8876953125 c 0
 419.751953125 52.1572265625 419.751953125 68.8330078125 409.481445312 79.103515625 c 0
 401.266601562 87.318359375 388.952148438 88.9619140625 379.096679688 84.0341796875 c 2
 168.5703125 -21.2294921875 l 2
 152.598632812 -29.2158203125 149.025390625 -50.662109375 161.739257812 -63.376953125 c 0
 169.026367188 -70.6630859375 179.538085938 -72.7802734375 188.698242188 -69.7265625 c 2
 346.592773438 -17.0947265625 l 2
77.0625 161.282226562 m 0
 80.26171875 164.0625 78.8349609375 171.020507812 75.083984375 171.020507812 c 0
 74.3583984375 171.020507812 73.6796875 170.731445312 73.10546875 170.232421875 c 0
 -25.2119140625 84.7783203125 -25.208984375 -69.0546875 73.10546875 -154.506835938 c 0
 306.545898438 -357.40625 582.272460938 -143.786132812 582.272460938 85.3037109375 c 0
 582.272460938 172.9921875 541.659179688 261.426757812 445.170898438 328.373046875 c 0
 442.690429688 330.09375 439.74609375 327.557617188 439.74609375 323.654296875 c 0
 439.74609375 321.5859375 440.599609375 319.795898438 441.83984375 318.935546875 c 0
 784.625976562 81.1015625 391.833984375 -419.147460938 77.0625 -145.556640625 c 0
 -16.521484375 -64.2158203125 -16.5224609375 79.94140625 77.0625 161.282226562 c 0
EndSplineSet
EndChar

StartChar: \.alt17
Encoding: 121 -1 119
Width: 156
VWidth: 0
Flags: HW
LayerCount: 2
Fore
SplineSet
105.928710938 -159.827148438 m 2
 112.89453125 -177.241210938 135.598632812 -182.006835938 148.965820312 -168.639648438 c 0
 156.638671875 -160.966796875 158.579101562 -149.717773438 154.786132812 -140.235351562 c 2
 49.5224609375 122.921875 l 2
 42.5576171875 140.3359375 19.853515625 145.1015625 6.4853515625 131.734375 c 0
 -1.1875 124.061523438 -3.1279296875 112.8125 0.6650390625 103.331054688 c 2
 105.928710938 -159.827148438 l 2
EndSplineSet
EndChar

StartChar: J.alt1
Encoding: 122 -1 120
Width: 266
VWidth: 0
Flags: HW
LayerCount: 2
Fore
SplineSet
107.33984375 -19.5576171875 m 2
 105.66015625 -14.5166015625 103.952148438 -27.125 103.952148438 -44.7685546875 c 0
 103.952148438 -56.6640625 104.743164062 -66.7265625 105.827148438 -69.9794921875 c 2
 158.458984375 -227.874023438 l 2
 160.139648438 -232.915039062 161.84765625 -220.307617188 161.84765625 -202.663085938 c 0
 161.84765625 -190.767578125 161.056640625 -180.705078125 159.97265625 -177.453125 c 2
 107.33984375 -19.5576171875 l 2
-1.3115234375 -150.032226562 m 0
 -1.3115234375 -164.934570312 -0.0703125 -176.92578125 1.4267578125 -176.326171875 c 2
 264.584960938 -71.0625 l 2
 265.98828125 -70.501953125 267.110351562 -58.9345703125 267.110351562 -44.7685546875 c 0
 267.110351562 -29.8662109375 265.869140625 -17.875 264.372070312 -18.4736328125 c 2
 1.2138671875 -123.737304688 l 2
 -0.189453125 -124.298828125 -1.3115234375 -135.865234375 -1.3115234375 -150.032226562 c 0
EndSplineSet
EndChar

StartChar: glyph121
Encoding: 124 68 121
Width: 260
VWidth: 0
Flags: HW
LayerCount: 2
Fore
SplineSet
90.6171875 -78.7919921875 m 0
 77.044921875 -92.365234375 82.2041015625 -115.465820312 100.068359375 -122.075195312 c 0
 154.14453125 -142.083007812 201.891601562 -110.130859375 222.07421875 -89.94921875 c 0
 306.938476562 -5.0849609375 240.73828125 157.616210938 105.646484375 139.193359375 c 0
 84.19140625 136.267578125 75.2900390625 109.844726562 90.6171875 94.517578125 c 0
 96.6640625 88.470703125 104.931640625 85.984375 112.805664062 87.0576171875 c 0
 200.073242188 98.958984375 232.651367188 -4.939453125 184.857421875 -52.7333984375 c 0
 181.256835938 -56.333984375 151.288085938 -84.900390625 118.3828125 -72.7255859375 c 0
 109.0390625 -69.2685546875 98.119140625 -71.291015625 90.6171875 -78.7919921875 c 0
52.2080078125 112.856445312 m 1
 52.2080078125 -123.53515625 l 1
 36.4482421875 18.2998046875 l 1
 52.2080078125 112.856445312 l 1
-0.3798828125 -149.495117188 m 2
 -1.193359375 -154.377929688 7.494140625 -155.426757812 8.3037109375 -150.56640625 c 2
 31.1611328125 -13.423828125 l 1
 52.2275390625 -203.0234375 l 2
 52.7470703125 -207.697265625 60.9794921875 -207.37109375 60.9794921875 -202.6640625 c 2
 60.9794921875 165.756835938 l 2
 60.9794921875 170.361328125 53.009765625 170.8359375 52.251953125 166.29296875 c 2
 32.9033203125 50.203125 l 1
 8.328125 271.381835938 l 2
 7.80859375 276.055664062 -0.423828125 275.729492188 -0.423828125 271.021484375 c 0
 -0.423828125 270.840820312 -0.423828125 270.840820312 27.6162109375 18.4794921875 c 1
 -0.3798828125 -149.495117188 l 2
EndSplineSet
EndChar

StartChar: VV
Encoding: 125 -1 122
Width: 504
VWidth: 0
Flags: HW
LayerCount: 2
Fore
SplineSet
103.76953125 139.446289062 m 1
 131.305664062 139.446289062 139.06640625 169.170898438 123.872070312 184.365234375 c 0
 118.737304688 189.5 112 192.068359375 105.263671875 192.068359375 c 2
 52.6318359375 192.068359375 l 2
 31.197265625 192.068359375 18.88671875 167.71875 31.201171875 150.479492188 c 0
 295.626953125 -219.715820312 295.626953125 -219.715820312 297.181640625 -221.270507812 c 0
 311.01171875 -235.100585938 334.607421875 -229.434570312 340.748046875 -211.013671875 c 2
 446.010742188 104.775390625 l 2
 454.73046875 130.934570312 421.901367188 151.19140625 402.444335938 131.734375 c 0
 399.4609375 128.750976562 397.344726562 125.227539062 396.094726562 121.4765625 c 2
 307.166015625 -145.30859375 l 1
 103.76953125 139.446289062 l 1
134.35546875 153.981445312 m 2
 142.341796875 138.008789062 163.7890625 134.435546875 176.502929688 147.150390625 c 0
 184.717773438 155.365234375 186.362304688 167.6796875 181.434570312 177.53515625 c 2
 128.802734375 282.797851562 l 2
 116.5234375 307.356445312 78.953125 298.603515625 78.953125 271.021484375 c 2
 78.953125 -202.662109375 l 2
 78.953125 -226.030273438 107.397460938 -237.745117188 123.872070312 -221.270507812 c 0
 129.006835938 -216.135742188 131.57421875 -209.399414062 131.57421875 -202.662109375 c 2
 131.57421875 159.543945312 l 1
 134.35546875 153.981445312 l 2
469.298828125 60.4951171875 m 2
 469.298828125 56.1884765625 478.0703125 56.1884765625 478.0703125 60.4951171875 c 2
 478.0703125 165.7578125 l 2
 478.0703125 170.063476562 469.298828125 170.063476562 469.298828125 165.7578125 c 2
 469.298828125 60.4951171875 l 2
EndSplineSet
Ligature2: "liga-1" V V
EndChar

StartChar: glyph123
Encoding: 126 114 123
Width: 261
VWidth: 0
Flags: HW
LayerCount: 2
Fore
SplineSet
51.9287109375 -207.854492188 m 2
 56.025390625 -228.33984375 81.51171875 -236.09375 96.333984375 -221.271484375 c 0
 102.794921875 -214.810546875 105.19140625 -205.814453125 103.522460938 -197.47265625 c 2
 61.4501953125 12.888671875 l 1
 223.84375 -68.3076171875 l 2
 233.69921875 -73.2353515625 246.013671875 -71.591796875 254.228515625 -63.376953125 c 0
 266.943359375 -50.662109375 263.370117188 -29.2158203125 247.397460938 -21.2294921875 c 2
 36.8701171875 84.0341796875 l 2
 17.427734375 93.7548828125 -5.0048828125 76.8134765625 -0.703125 55.3037109375 c 2
 51.9287109375 -207.854492188 l 2
EndSplineSet
EndChar

StartChar: \.alt18
Encoding: 127 -1 124
Width: 332
VWidth: 0
Flags: HW
LayerCount: 2
Fore
SplineSet
165.819335938 205.231445312 m 2
 170.66015625 205.231445312 174.590820312 211.126953125 174.590820312 218.388671875 c 0
 174.590820312 225.651367188 170.66015625 231.546875 165.819335938 231.546875 c 2
 7.9248046875 231.546875 l 2
 3.083984375 231.546875 -0.8466796875 225.651367188 -0.8466796875 218.388671875 c 0
 -0.8466796875 211.126953125 3.083984375 205.231445312 7.9248046875 205.231445312 c 0
 165.819335938 205.231445312 165.819335938 205.231445312 165.819335938 205.231445312 c 2
120.715820312 435.671875 m 2
 116.161132812 447.057617188 104.416015625 442.147460938 104.416015625 428.916015625 c 0
 104.416015625 426.447265625 104.870117188 424.135742188 105.66015625 422.16015625 c 2
 316.186523438 -104.155273438 l 2
 320.741210938 -115.541015625 332.486328125 -110.630859375 332.486328125 -97.400390625 c 0
 332.486328125 -94.9306640625 332.03125 -92.6201171875 331.241210938 -90.64453125 c 2
 120.715820312 435.671875 l 2
EndSplineSet
EndChar

StartChar: glyph125
Encoding: 128 54 125
Width: 669
VWidth: 0
Flags: HW
LayerCount: 2
Fore
SplineSet
472.993164062 189.5546875 m 0
 471.458007812 188.018554688 467.473632812 184.419921875 467.419921875 184.366210938 c 0
 457.149414062 174.096679688 457.149414062 157.419921875 467.419921875 147.150390625 c 0
 477.237304688 137.33203125 492.91015625 136.900390625 503.244140625 145.854492188 c 0
 563.44921875 198.022460938 563.44921875 291.387695312 503.243164062 343.557617188 c 0
 425.579101562 410.853515625 355.8359375 448.498046875 292.799804688 461.760742188 c 0
 213.205078125 478.508789062 146.522460938 454.349609375 98.64453125 406.47265625 c 0
 -35.4716796875 272.356445312 -34.0673828125 -47.5078125 98.64453125 -180.219726562 c 0
 153.306640625 -234.880859375 283.022460938 -308.126953125 503.243164062 -117.3046875 c 0
 514.828125 -107.265625 515.399414062 -89.556640625 504.634765625 -78.7919921875 c 0
 494.81640625 -68.974609375 479.14453125 -68.5419921875 468.810546875 -77.49609375 c 0
 376.759765625 -157.258789062 236.297851562 -243.440429688 135.861328125 -143.00390625 c 0
 24.0380859375 -31.1806640625 22.7236328125 256.119140625 135.861328125 369.255859375 c 0
 172.401367188 405.796875 219.1171875 423.483398438 281.901367188 410.272460938 c 0
 332.768554688 399.5703125 395.4765625 367.293945312 468.810546875 303.749023438 c 0
 503.362304688 273.80859375 504.625976562 221.1875 472.993164062 189.5546875 c 0
565.494140625 -144.840820312 m 2
 560.409179688 -170.267578125 591.639648438 -186.899414062 609.899414062 -168.639648438 c 0
 613.708984375 -164.830078125 616.10546875 -160.140625 617.088867188 -155.22265625 c 2
 669.719726562 107.934570312 l 2
 674.8046875 133.361328125 643.57421875 149.993164062 625.314453125 131.733398438 c 0
 621.505859375 127.924804688 619.109375 123.234375 618.125 118.31640625 c 2
 565.494140625 -144.840820312 l 2
EndSplineSet
EndChar

StartChar: !.alt1
Encoding: 129 -1 126
Width: 188
VWidth: 0
Flags: HW
LayerCount: 2
Fore
SplineSet
131.583007812 376.284179688 m 2
 131.583007812 377.897460938 119.786132812 379.208007812 105.26171875 379.208007812 c 0
 90.9033203125 379.208007812 79.2158203125 377.927734375 78.951171875 376.338867188 c 2
 26.3115234375 60.4951171875 l 2
 26.3115234375 58.8818359375 38.107421875 57.5712890625 52.6318359375 57.5712890625 c 0
 66.990234375 57.5712890625 78.677734375 58.8515625 78.943359375 60.4404296875 c 2
 131.583007812 376.284179688 l 2
105.262695312 -158.803710938 m 2
 111.00390625 -158.803710938 111.00390625 -141.259765625 105.262695312 -141.259765625 c 2
 52.6318359375 -141.259765625 l 2
 46.8896484375 -141.259765625 46.8896484375 -158.803710938 52.6318359375 -158.803710938 c 2
 105.262695312 -158.803710938 l 2
162.280273438 271.020507812 m 2
 162.280273438 279.62890625 156.639648438 283.069335938 154.2421875 275.877929688 c 2
 48.9794921875 -39.9111328125 l 2
 45.802734375 -49.44140625 53.08984375 -59.2060546875 56.283203125 -49.625 c 2
 153.508789062 242.049804688 l 1
 153.508789062 -97.400390625 l 2
 153.508789062 -108.883789062 162.280273438 -108.883789062 162.280273438 -97.400390625 c 2
 162.280273438 271.020507812 l 2
EndSplineSet
EndChar

StartChar: glyph127
Encoding: 130 42 127
Width: 428
VWidth: 0
Flags: HW
LayerCount: 2
Fore
SplineSet
163.2734375 273.591796875 m 2
 160.415039062 275.306640625 156.150390625 273.767578125 156.150390625 271.021484375 c 0
 156.150390625 269.982421875 156.794921875 269.0546875 157.799804688 268.452148438 c 2
 420.95703125 110.556640625 l 2
 424.010742188 108.724609375 428.533203125 110.616210938 428.045898438 113.538085938 c 2
 375.4140625 429.327148438 l 2
 374.744140625 433.345703125 366.676757812 432.978515625 366.676757812 428.916015625 c 2
 366.676757812 376.284179688 l 2
 366.676757812 372.080078125 375.154296875 371.921875 375.442382812 376.112304688 c 1
 418.001953125 120.752929688 l 1
 163.2734375 273.591796875 l 2
156.150390625 323.65234375 m 2
 156.150390625 319.345703125 164.922851562 319.345703125 164.922851562 323.65234375 c 2
 164.922851562 358.142578125 l 1
 366.954101562 -45.921875 l 2
 368.969726562 -49.9521484375 377.186523438 -47.646484375 375.170898438 -43.6142578125 c 2
 164.64453125 377.438476562 l 2
 162.948242188 380.831054688 156.150390625 379.91015625 156.150390625 376.284179688 c 2
 156.150390625 323.65234375 l 2
157.247070312 165.7578125 m 0
 157.247070312 148.630859375 159.265625 136.0859375 161.3359375 140.225585938 c 2
 266.598632812 350.751953125 l 2
 268.029296875 353.611328125 269.088867188 363.96484375 269.088867188 376.284179688 c 0
 269.088867188 391.741210938 267.42578125 403.936523438 265.489257812 402.484375 c 2
 55.3251953125 244.860351562 l 1
 2.8486328125 297.336914062 2.8486328125 297.336914062 2.6416015625 297.336914062 c 0
 0.826171875 297.336914062 -0.6474609375 285.544921875 -0.6474609375 271.020507812 c 0
 -0.6474609375 257.611328125 0.6083984375 246.53125 2.23046875 244.909179688 c 0
 55.06640625 192.073242188 55.06640625 192.073242188 55.2734375 192.073242188 c 0
 55.4296875 192.073242188 55.4296875 192.073242188 222.94921875 317.712890625 c 1
 159.737304688 191.290039062 l 2
 158.306640625 188.4296875 157.247070312 178.076171875 157.247070312 165.7578125 c 0
EndSplineSet
EndChar

StartChar: ).alt1
Encoding: 131 -1 128
Width: 263
VWidth: 0
Flags: HW
LayerCount: 2
Fore
SplineSet
164.379882812 -221.271484375 m 0
 177.528320312 -234.420898438 199.811523438 -230.063476562 207.137695312 -213.129882812 c 0
 237.182617188 -143.6796875 255.666992188 -69.7578125 261.842773438 5.701171875 c 0
 274.440429688 159.625 235.985351562 313.356445312 152.502929688 443.140625 c 0
 143.438476562 457.233398438 123.614257812 459.388671875 111.75 447.524414062 c 0
 102.838867188 438.61328125 101.659179688 424.87890625 108.211914062 414.69140625 c 0
 185.509765625 294.5234375 221.04296875 152.306640625 209.3984375 10.025390625 c 0
 203.694335938 -59.6689453125 186.620117188 -127.978515625 158.837890625 -192.197265625 c 0
 154.677734375 -201.814453125 156.524414062 -213.416992188 164.379882812 -221.271484375 c 0
136.6953125 -43.5361328125 m 1
 48.3232421875 354.133789062 l 1
 225.065429688 -87.7216796875 l 1
 136.6953125 -43.5361328125 l 1
230.701171875 -99.3408203125 m 2
 235.083984375 -101.532226562 243.25 -99.76953125 242.096679688 -96.884765625 c 2
 31.5712890625 429.430664062 l 2
 30.123046875 433.051757812 17.728515625 432.30859375 18.546875 428.625976562 c 2
 123.810546875 -45.0576171875 l 2
 123.950195312 -45.6884765625 124.541992188 -46.2607421875 125.439453125 -46.708984375 c 2
 230.701171875 -99.3408203125 l 2
77.728515625 -155.294921875 m 0
 92.251953125 -155.294921875 104.043945312 -152.936523438 104.037109375 -149.913085938 c 2
 51.4013671875 323.772460938 l 2
 51.0849609375 326.623046875 39.41796875 328.916992188 25.0927734375 328.916992188 c 0
 10.568359375 328.916992188 -1.2236328125 326.55859375 -1.216796875 323.53515625 c 2
 51.4189453125 -150.150390625 l 2
 51.7353515625 -153.000976562 63.4033203125 -155.294921875 77.728515625 -155.294921875 c 0
EndSplineSet
EndChar

StartChar: @)
Encoding: 132 -1 129
Width: 599
VWidth: 0
Flags: HW
LayerCount: 2
Fore
SplineSet
241.396484375 -102.663085938 m 1
 372.974609375 -102.663085938 l 2
 387.499023438 -102.663085938 399.291015625 -100.3046875 399.291015625 -97.3994140625 c 0
 399.291015625 -94.4951171875 387.499023438 -92.13671875 372.974609375 -92.13671875 c 2
 241.396484375 -92.13671875 l 1
 241.396484375 60.4951171875 l 2
 241.396484375 63.400390625 229.60546875 65.7587890625 215.081054688 65.7587890625 c 0
 201.153320312 65.7587890625 189.737304688 63.58984375 188.82421875 60.849609375 c 0
 136.133789062 -97.2216796875 136.133789062 -97.2216796875 136.133789062 -97.3994140625 c 0
 136.133789062 -100.3046875 147.92578125 -102.663085938 162.44921875 -102.663085938 c 2
 188.765625 -102.663085938 l 1
 188.765625 -202.663085938 l 2
 188.765625 -205.567382812 200.556640625 -207.92578125 215.081054688 -207.92578125 c 0
 229.60546875 -207.92578125 241.396484375 -205.567382812 241.396484375 -202.663085938 c 2
 241.396484375 -102.663085938 l 1
267.712890625 371.020507812 m 0
 283.135742188 371.020507812 290.021484375 373.892578125 310.018554688 373.892578125 c 0
 327.029296875 373.892578125 351.00390625 370.8125 377.043945312 361.534179688 c 0
 570.353515625 292.653320312 615.254882812 -6.509765625 421.01171875 -118.544921875 c 0
 400.151367188 -130.577148438 376.651367188 -140.234375 351.857421875 -146.891601562 c 0
 325.263671875 -154.032226562 304.4609375 -155.9453125 291.732421875 -155.9453125 c 0
 251.189453125 -155.9453125 190.703125 -138.002929688 139.477539062 -88.203125 c 0
 7.4140625 40.1865234375 13.2919921875 299.078125 237.640625 373.57421875 c 0
 248.133789062 377.05859375 235.520507812 381.546875 215.081054688 381.546875 c 0
 205.51171875 381.546875 197.127929688 380.5234375 192.521484375 378.994140625 c 0
 130.502929688 358.400390625 86.6220703125 326.46875 55.671875 287.989257812 c 0
 -57.0546875 147.838867188 6.966796875 -84.51953125 179.345703125 -148.110351562 c 0
 193.646484375 -153.38671875 231.280273438 -166.471679688 291.732421875 -166.471679688 c 0
 359.903320312 -166.471679688 422.848632812 -149.622070312 470.75390625 -121.990234375 c 0
 498.203125 -106.158203125 520.72265625 -86.96875 538.9375 -65.384765625 c 0
 579.909179688 -16.8349609375 599 43.859375 599 104.7734375 c 0
 599 180.98828125 569.170898438 257.446289062 513.5703125 310.8046875 c 0
 452.88671875 369.041015625 378.770507812 384.418945312 310.018554688 384.418945312 c 0
 290.166015625 384.418945312 270.974609375 383.04296875 253.147460938 380.666992188 c 0
 231.565429688 377.791015625 241.88671875 371.020507812 267.712890625 371.020507812 c 0
213.220703125 222.110351562 m 2
 210.78515625 217.239257812 214.50390625 209.79296875 216.94140625 214.66796875 c 2
 322.204101562 425.1953125 l 2
 324.639648438 430.065429688 320.920898438 437.512695312 318.483398438 432.63671875 c 2
 213.220703125 222.110351562 l 2
EndSplineSet
Ligature2: "liga-1" @ )
EndChar

StartChar: glyph130
Encoding: 133 78 130
Width: 353
VWidth: 0
Flags: HW
LayerCount: 2
Fore
SplineSet
87.3740234375 178.811523438 m 2
 78.798828125 193.818359375 58.1875 196.643554688 45.91015625 184.366210938 c 0
 37.3359375 175.791992188 35.919921875 162.752929688 41.662109375 152.705078125 c 2
 252.189453125 -215.715820312 l 2
 263.430664062 -235.389648438 292.861328125 -232.4375 300.002929688 -211.012695312 c 2
 352.6328125 -53.119140625 l 2
 353.53515625 -50.4140625 353.985351562 -47.591796875 353.985351562 -44.7685546875 c 2
 353.986328125 218.389648438 l 2
 353.986328125 241.7578125 325.541992188 253.47265625 309.067382812 236.998046875 c 0
 303.932617188 231.86328125 301.365234375 225.126953125 301.365234375 218.390625 c 2
 301.364257812 -40.4755859375 l 1
 268.692382812 -138.494140625 l 1
 87.3740234375 178.811523438 l 2
157.45703125 111.973632812 m 2
 163.502929688 107.943359375 188.155273438 110.248046875 182.106445312 114.280273438 c 2
 24.2109375 219.54296875 l 2
 19.12109375 222.936523438 -1.271484375 222.014648438 -1.271484375 218.389648438 c 2
 -1.271484375 113.126953125 l 2
 -1.271484375 112.6796875 -0.9130859375 112.252929688 -0.2646484375 111.864257812 c 2
 262.893554688 -46.03125 l 2
 269.51953125 -50.0068359375 293.818359375 -47.478515625 287.197265625 -43.505859375 c 2
 25.044921875 113.786132812 l 1
 25.044921875 200.248046875 l 1
 157.45703125 111.973632812 l 2
EndSplineSet
EndChar

StartChar: S.alt1
Encoding: 134 -1 131
Width: 419
VWidth: 0
Flags: HW
LayerCount: 2
Fore
SplineSet
387.100585938 -17.658203125 m 2
 412.86328125 -24.099609375 430.833984375 7.759765625 412.123046875 26.4716796875 c 0
 408.630859375 29.962890625 404.3984375 32.267578125 399.928710938 33.3857421875 c 2
 189.403320312 86.017578125 l 2
 163.639648438 92.4580078125 145.668945312 60.5986328125 164.380859375 41.8876953125 c 0
 167.872070312 38.3955078125 172.10546875 36.0908203125 176.57421875 34.9736328125 c 2
 387.100585938 -17.658203125 l 2
21.34765625 -176.619140625 m 2
 -0.0087890625 -179.669921875 -8.7900390625 -205.99609375 6.4853515625 -221.271484375 c 0
 12.5751953125 -227.361328125 20.9169921875 -229.83984375 28.83984375 -228.708007812 c 2
 397.260742188 -176.075195312 l 2
 410.149414062 -174.233398438 419.825195312 -163.189453125 419.825195312 -150.030273438 c 2
 419.825195312 7.86328125 l 2
 419.825195312 14.599609375 417.2578125 21.3369140625 412.123046875 26.4716796875 c 2
 306.859375 131.734375 l 2
 296.58984375 142.004882812 279.9140625 142.004882812 269.643554688 131.734375 c 0
 259.373046875 121.463867188 259.373046875 104.788085938 269.643554688 94.5185546875 c 2
 367.204101562 -3.0419921875 l 1
 367.204101562 -127.209960938 l 1
 21.34765625 -176.619140625 l 2
281.23046875 -101.342773438 m 2
 288.129882812 -108.241210938 302.157226562 -100.341796875 295.274414062 -93.458984375 c 2
 154.223632812 47.5927734375 l 1
 324.38671875 5.05078125 338.916992188 1.2841796875 340.8828125 1.2841796875 c 0
 350.729492188 1.2841796875 352.985351562 11.7734375 343.655273438 14.1064453125 c 2
 133.129882812 66.73828125 l 2
 125.041992188 68.7607421875 118.211914062 61.6767578125 123.3359375 56.5537109375 c 2
 281.23046875 -101.342773438 l 2
EndSplineSet
EndChar

StartChar: "+IBgA-D"
Encoding: 135 -1 132
Width: 483
VWidth: 0
Flags: HW
LayerCount: 2
Fore
SplineSet
457.743164062 7.482421875 m 0
 525.978515625 161.73828125 463.69140625 401.232421875 268.967773438 401.232421875 c 0
 240.770507812 401.232421875 209.874023438 396.158203125 176.318359375 385.012695312 c 0
 144.948242188 374.592773438 120.98046875 354.123046875 105.58984375 328.236328125 c 0
 93.4560546875 307.826171875 85.8828125 282.87109375 85.8828125 253.903320312 c 0
 85.8828125 215.286132812 99.0625 182.735351562 123.159179688 157.390625 c 0
 126.443359375 153.935546875 128.028320312 170.668945312 124.743164062 174.125 c 0
 100.495117188 199.629882812 91.1455078125 230.224609375 91.1455078125 253.903320312 c 0
 91.1455078125 297.090820312 119.983398438 348.668945312 176.845703125 367.555664062 c 0
 210.240234375 378.6484375 240.962890625 383.688476562 268.967773438 383.688476562 c 0
 362.047851562 383.688476562 425.046875 327.663085938 456.216796875 254.625976562 c 0
 520.1875 104.729492188 449.565429688 -111.91796875 248.299804688 -111.91796875 c 0
 211.46875 -111.91796875 170.134765625 -104.7421875 124.228515625 -88.6767578125 c 0
 80.4736328125 -73.36328125 47.857421875 -44.296875 27.7919921875 -9.734375 c 0
 13.5234375 14.84375 -10.5546875 70.9619140625 16.6494140625 137.377929688 c 0
 27.5068359375 163.883789062 45.806640625 189.2890625 71.92578125 209.8515625 c 0
 75.26953125 212.484375 74.0732421875 229.572265625 70.712890625 226.926757812 c 0
 38.93359375 201.907226562 18.056640625 169.975585938 7.3017578125 133.819335938 c 0
 -6.259765625 88.2275390625 -5.232421875 27.4013671875 25.380859375 -25.330078125 c 0
 46.3837890625 -61.5078125 79.5078125 -90.6669921875 123.673828125 -106.124023438 c 0
 169.744140625 -122.247070312 211.259765625 -129.461914062 248.299804688 -129.461914062 c 0
 353.627929688 -129.461914062 422.81640625 -71.4775390625 457.743164062 7.482421875 c 0
224.828125 -44.767578125 m 2
 224.828125 -48.212890625 233.600585938 -48.212890625 233.600585938 -44.767578125 c 2
 233.600585938 323.653320312 l 2
 233.600585938 326.651367188 226.446289062 327.276367188 225.012695312 324.41015625 c 0
 119.565429688 113.514648438 119.565429688 113.514648438 119.565429688 113.126953125 c 0
 119.565429688 110.12890625 126.719726562 109.50390625 128.15234375 112.370117188 c 2
 224.828125 305.721679688 l 1
 224.828125 -44.767578125 l 2
226.409179688 321.630859375 m 2
 230.813476562 319.428710938 236.438476562 323.465820312 232.01953125 325.67578125 c 2
 126.755859375 378.307617188 l 2
 123.999023438 379.686523438 119.787109375 378.583007812 119.573242188 376.4453125 c 2
 75.705078125 -62.23046875 l 1
 75.705078125 7.8642578125 l 2
 75.705078125 11.3095703125 66.93359375 11.3095703125 66.93359375 7.8642578125 c 2
 66.93359375 -150.030273438 l 2
 66.93359375 -153.379882812 75.36328125 -153.52734375 75.697265625 -150.189453125 c 2
 127.809570312 370.930664062 l 1
 226.409179688 321.630859375 l 2
EndSplineSet
Ligature2: "liga-1" ‘ D
EndChar

StartChar: (Y
Encoding: 136 -1 133
Width: 511
VWidth: 0
Flags: HW
LayerCount: 2
Fore
SplineSet
313.232421875 402.5390625 m 0
 -14.52734375 424.078125 -78.9384765625 54.2705078125 88.2001953125 -112.868164062 c 0
 152.375 -177.043945312 250.030273438 -208.2578125 371.048828125 -175.419921875 c 0
 390.428710938 -170.161132812 397.014648438 -145.702148438 382.734375 -131.422851562 c 0
 375.823242188 -124.51171875 366.01171875 -122.250976562 357.203125 -124.641601562 c 0
 252.02734375 -153.1796875 176.04296875 -126.279296875 125.416015625 -75.65234375 c 0
 -6.0810546875 55.845703125 29.0712890625 368.477539062 309.755859375 350.03125 c 0
 468.21484375 339.6171875 488.272460938 180.084960938 423.958007812 115.770507812 c 0
 408.440429688 100.252929688 387.924804688 89.505859375 361.3046875 86.6552734375 c 0
 317.366210938 81.9501953125 280.31640625 118.998046875 285.022460938 162.935546875 c 0
 287.657226562 187.541015625 257.67578125 201.787109375 240.25390625 184.365234375 c 0
 235.836914062 179.948242188 233.3203125 174.346679688 232.702148438 168.579101562 c 0
 228.5625 129.931640625 242.854492188 94.2158203125 267.717773438 69.3525390625 c 0
 324.171875 12.8974609375 411.94921875 29.3291015625 461.174804688 78.5537109375 c 0
 559.456054688 176.8359375 514.46875 389.3125 313.232421875 402.5390625 c 0
EndSplineSet
Ligature2: "liga-1" ( Y
EndChar

StartChar: y.alt2
Encoding: 137 -1 134
Width: 368
VWidth: 0
Flags: HW
LayerCount: 2
Fore
SplineSet
102.338867188 -150.032226562 m 0
 102.338867188 -164.555664062 103.6484375 -176.34765625 105.262695312 -176.34765625 c 2
 263.158203125 -176.34765625 l 2
 264.771484375 -176.34765625 266.08203125 -164.555664062 266.08203125 -150.032226562 c 0
 266.08203125 -137.473632812 265.102539062 -126.958007812 263.793945312 -124.341796875 c 2
 218.900390625 -34.5546875 l 1
 316.194335938 87.0625 l 2
 317.616210938 88.83984375 318.712890625 99.83984375 318.712890625 113.126953125 c 0
 318.712890625 129.06640625 317.145507812 141.393554688 315.383789062 139.19140625 c 2
 202.549804688 -1.8515625 l 1
 53.267578125 296.7109375 l 2
 51.4453125 300.356445312 49.7080078125 287.854492188 49.7080078125 271.020507812 c 0
 49.7080078125 258.462890625 50.6875 247.947265625 51.99609375 245.331054688 c 2
 185.95703125 -22.591796875 l 1
 104.857421875 -123.966796875 l 2
 103.435546875 -125.745117188 102.338867188 -136.745117188 102.338867188 -150.032226562 c 0
236.51953125 -123.715820312 m 1
 147.572265625 -123.715820312 l 1
 202.30859375 -55.294921875 l 1
 236.51953125 -123.715820312 l 1
265.963867188 374.262695312 m 2
 269.10546875 375.833984375 267.23046875 378.916992188 263.159179688 378.916992188 c 0
 262.091796875 378.916992188 261.114257812 378.688476562 260.353515625 378.307617188 c 2
 155.088867188 325.67578125 l 2
 154.625976562 325.444335938 153.365234375 324.694335938 153.520507812 323.454101562 c 2
 206.153320312 -97.5986328125 l 2
 206.58203125 -101.025390625 215.331054688 -100.64453125 214.900390625 -97.2001953125 c 2
 162.436523438 322.5 l 1
 265.963867188 374.262695312 l 2
258.95703125 -44.0107421875 m 2
 257.307617188 -47.310546875 265.7109375 -48.822265625 267.360351562 -45.5234375 c 0
 320.174804688 60.1064453125 320.174804688 60.1064453125 320.174804688 60.4951171875 c 0
 320.174804688 60.9892578125 319.948242188 61.451171875 319.552734375 61.845703125 c 2
 64.8193359375 316.580078125 l 1
 208.401367188 268.719726562 l 2
 213.407226562 267.05078125 217.684570312 271.646484375 212.65234375 273.323242188 c 2
 54.7568359375 325.955078125 l 2
 50.875 327.25 46.580078125 324.58984375 48.8681640625 322.302734375 c 2
 311.03125 60.138671875 l 1
 258.95703125 -44.0107421875 l 2
EndSplineSet
EndChar

StartChar: @.alt1
Encoding: 138 -1 135
Width: 520
VWidth: 0
Flags: HW
LayerCount: 2
Fore
SplineSet
422.385742188 -208.678710938 m 0
 564.919921875 -81.994140625 451.49609375 158.055664062 262.822265625 119.671875 c 0
 258.748046875 118.842773438 259.051757812 106.547851562 263.158203125 106.547851562 c 0
 263.551757812 106.547851562 280.890625 110.59375 302.469726562 110.59375 c 0
 456.00390625 110.59375 546.614257812 -83.8642578125 419.719726562 -196.6484375 c 0
 242.54296875 -354.12109375 40.5615234375 -187.275390625 40.5615234375 -23.515625 c 0
 40.5615234375 41.6455078125 73.1748046875 111.095703125 158.7890625 159.424804688 c 0
 162.416992188 161.47265625 161.672851562 172.3359375 157.89453125 172.3359375 c 0
 157.584960938 172.3359375 157.28515625 172.25 157 172.08984375 c 0
 -81.193359375 37.6298828125 64.96484375 -273.00390625 268.243164062 -273.00390625 c 0
 318.211914062 -273.00390625 371.344726562 -254.043945312 422.385742188 -208.678710938 c 0
318.114257812 380.935546875 m 2
 315.0703125 387.0234375 310.416015625 377.727539062 313.463867188 371.6328125 c 2
 416.401367188 165.7578125 l 1
 260.83203125 -145.380859375 l 2
 257.7890625 -151.46875 262.436523438 -160.77734375 265.483398438 -154.682617188 c 2
 423.377929688 161.106445312 l 2
 424.663085938 163.676757812 424.663085938 167.837890625 423.377929688 170.408203125 c 2
 318.114257812 380.935546875 l 2
EndSplineSet
EndChar

StartChar: glyph136
Encoding: 139 8216 136
Width: 158
VWidth: 0
Flags: HW
LayerCount: 2
Fore
SplineSet
92.6083984375 59.4619140625 m 2
 97.33203125 54.73828125 122.654296875 56.7900390625 117.916015625 61.5283203125 c 2
 65.28515625 114.16015625 l 2
 60.5615234375 118.883789062 35.2392578125 116.83203125 39.978515625 112.09375 c 2
 92.6083984375 59.4619140625 l 2
EndSplineSet
EndChar

StartChar: Li
Encoding: 140 -1 137
Width: 526
VWidth: 0
Flags: HW
LayerCount: 2
Fore
SplineSet
467.270507812 -122.921875 m 2
 493.033203125 -129.362304688 511.00390625 -97.5029296875 492.29296875 -78.791015625 c 0
 488.80078125 -75.2998046875 484.568359375 -72.9951171875 480.098632812 -71.8779296875 c 2
 86.4853515625 26.525390625 l 1
 116.622070312 111.38671875 165.348632812 188.627929688 229.133789062 252.413085938 c 0
 299.46484375 322.744140625 386.153320312 374.766601562 481.377929688 403.748046875 c 0
 500.245117188 409.490234375 506.331054688 433.486328125 492.29296875 447.524414062 c 0
 485.1796875 454.63671875 474.994140625 456.823242188 465.9921875 454.083984375 c 0
 255.833984375 390.122070312 91.388671875 225.592773438 27.4638671875 15.556640625 c 0
 23.0712890625 1.1220703125 31.6728515625 -14.0224609375 46.2177734375 -17.658203125 c 2
 467.270507812 -122.921875 l 2
482.286132812 112.08984375 m 2
 484.541015625 118.856445312 467.331054688 120.90625 465.083007812 114.162109375 c 0
 412.280273438 -44.2431640625 412.280273438 -44.2431640625 412.280273438 -44.7685546875 c 0
 412.280273438 -51.044921875 427.609375 -51.9404296875 429.654296875 -45.8046875 c 2
 482.286132812 112.08984375 l 2
EndSplineSet
Ligature2: "liga-1" L i
EndChar

StartChar: glyph138
Encoding: 141 81 138
Width: 595
VWidth: 0
Flags: HW
LayerCount: 2
Fore
SplineSet
511.35546875 208.0546875 m 0
 549.318359375 118.962890625 476.783203125 22.509765625 380.811523438 33.986328125 c 0
 356.081054688 36.9443359375 341.524414062 6.7890625 359.057617188 -10.7451171875 c 0
 363.391601562 -15.0791015625 368.8671875 -17.583984375 374.51953125 -18.259765625 c 0
 510.693359375 -34.5439453125 613.456054688 102.729492188 559.767578125 228.723632812 c 0
 452.234375 481.081054688 135.443359375 379.321289062 97.0927734375 179.15234375 c 0
 76.7958984375 73.2119140625 147.140625 -9.353515625 148.532226562 -10.7451171875 c 0
 158.227539062 -20.4404296875 173.633789062 -20.982421875 183.967773438 -12.37109375 c 2
 492.271484375 244.547851562 l 1
 499.182617188 233.713867188 505.588867188 221.5859375 511.35546875 208.0546875 c 0
172.857421875 46.884765625 m 1
 62.0380859375 236.369140625 321.981445312 405.836914062 458.372070312 284.814453125 c 1
 172.857421875 46.884765625 l 1
69.201171875 371.458007812 m 0
 75.5146484375 381.014648438 60.8994140625 390.717773438 54.552734375 381.110351562 c 0
 28.7685546875 342.08203125 -9.0029296875 265.98828125 0.51171875 164.926757812 c 0
 16.28515625 -2.6142578125 138.060546875 -129.96875 288.426757812 -165.50390625 c 1
 60.779296875 -193.959960938 l 2
 49.421875 -195.37890625 51.544921875 -212.795898438 62.9736328125 -211.3671875 c 2
 354.275390625 -174.954101562 l 1
 397.848632812 -177.258789062 442.111328125 -171.885742188 485.529296875 -158.411132812 c 0
 495.59375 -155.288085938 492.338867188 -140.014648438 481.83203125 -141.328125 c 2
 353.654296875 -157.350585938 l 1
 183.377929688 -147.6015625 35.109375 -15.3837890625 17.978515625 166.587890625 c 0
 13.83984375 210.540039062 16.1279296875 291.123046875 69.201171875 371.458007812 c 0
168.963867188 368.060546875 m 1
 409.263671875 449.208984375 588.806640625 254.348632812 588.806640625 66.3818359375 c 0
 588.806640625 -26.8994140625 543.276367188 -128.416992188 429.599609375 -194.08984375 c 0
 389.997070312 -216.96875 347.330078125 -227.61328125 305.509765625 -227.61328125 c 0
 244.41015625 -227.61328125 185.100585938 -204.8515625 139.825195312 -164.783203125 c 0
 103.537109375 -132.66796875 76.580078125 -89.4111328125 64.64453125 -40.025390625 c 0
 62.3076171875 -30.3583984375 56.7802734375 -39.873046875 59.1103515625 -49.51171875 c 0
 99.724609375 -217.556640625 286.372070312 -294.787109375 430.997070312 -211.236328125 c 0
 506.938476562 -167.364257812 554.25390625 -107.296875 577.779296875 -39.8349609375 c 0
 589.5625 -6.0458984375 595.385742188 29.970703125 595.385742188 66.3818359375 c 0
 595.385742188 273.030273438 409.069335938 467.830078125 166.717773438 384.984375 c 0
 165.798828125 384.670898438 164.998046875 383.342773438 164.477539062 381.435546875 c 2
 6.5830078125 -197.51171875 l 2
 5.0107421875 -203.278320312 6.56640625 -211.435546875 9.2451171875 -211.435546875 c 0
 10.3388671875 -211.435546875 11.30859375 -210.008789062 11.9072265625 -207.815429688 c 2
 168.963867188 368.060546875 l 1
EndSplineSet
EndChar

StartChar: @2
Encoding: 142 -1 139
Width: 893
VWidth: 0
Flags: HW
LayerCount: 2
Fore
SplineSet
620.643554688 -89.8896484375 m 0
 807.263671875 -111.181640625 894.38671875 -23.6396484375 894.38671875 103 c 0
 894.38671875 178.052734375 862.849609375 259.45703125 812.473632812 317.26171875 c 0
 786.225585938 347.379882812 733.280273438 396.016601562 655.047851562 396.016601562 c 0
 580.639648438 396.016601562 515.750976562 351.9765625 459.203125 277.189453125 c 0
 456.431640625 273.5234375 473.228515625 272.1171875 475.99609375 275.776367188 c 0
 510.973632812 322.03515625 546.541992188 352.661132812 580.568359375 370.44140625 c 0
 634.154296875 398.443359375 680.232421875 393.690429688 720.474609375 374.626953125 c 0
 869.873046875 303.852539062 948.587890625 26.0302734375 789.166992188 -61.4091796875 c 0
 751.828125 -81.8896484375 700.108398438 -92.853515625 626.247070312 -84.4267578125 c 0
 590.322265625 -80.328125 562.51953125 -62.0712890625 542.45703125 -33.978515625 c 0
 494.5625 33.0830078125 491.076171875 148.138671875 446.303710938 219.7265625 c 0
 429.15625 247.143554688 406.306640625 268.662109375 369.15625 278.724609375 c 0
 321.25 291.69921875 158.171875 332.443359375 63.4541015625 242.573242188 c 0
 -71.6337890625 114.399414062 21.474609375 -198.326171875 189.4765625 -284.649414062 c 0
 217.24609375 -298.91796875 248.540039062 -307.926757812 283.920898438 -307.926757812 c 0
 380.6875 -307.926757812 461.361328125 -239.528320312 527.999023438 -139.735351562 c 0
 530.463867188 -136.04296875 513.5546875 -134.794921875 511.095703125 -138.477539062 c 0
 466.938476562 -204.60546875 422.068359375 -248.265625 378.94140625 -273.698242188 c 0
 344.159179688 -294.209960938 311.639648438 -302.155273438 283.920898438 -302.155273438 c 0
 258.145507812 -302.155273438 230.8671875 -295.311523438 204.014648438 -281.513671875 c 0
 39.4853515625 -196.975585938 -53.669921875 114.026367188 79.796875 240.662109375 c 0
 132.233398438 290.4140625 218.698242188 312.0390625 358.248046875 274.2421875 c 0
 476.055664062 242.334960938 459.84765625 56.763671875 525.610351562 -35.318359375 c 0
 545.596679688 -63.3037109375 573.282226562 -84.4853515625 620.643554688 -89.8896484375 c 0
580.155273438 328.431640625 m 2
 580.155273438 332.209960938 562.838867188 332.209960938 562.838867188 328.431640625 c 2
 562.838867188 34.1005859375 l 1
 528.200195312 380.478515625 l 2
 527.845703125 384.022460938 511.989257812 384.193359375 510.932617188 380.670898438 c 0
 355.043945312 -138.9609375 355.043945312 -138.9609375 355.043945312 -139.106445312 c 0
 355.043945312 -142.711914062 371.243164062 -142.974609375 372.31640625 -139.396484375 c 2
 515.225585938 336.96875 l 1
 562.84375 -139.204101562 l 2
 563.215820312 -142.916992188 580.155273438 -142.826171875 580.155273438 -139.106445312 c 2
 580.155273438 328.431640625 l 2
740.288085938 431.91015625 m 2
 741.59765625 438.455078125 717.099609375 439.607421875 714.518554688 433.155273438 c 0
 506.560546875 -86.740234375 506.560546875 -86.740234375 506.560546875 -87.1572265625 c 0
 506.560546875 -91.2294921875 517.823242188 -93.71484375 526.416992188 -91.56640625 c 2
 613.908203125 -69.693359375 l 1
 610.458007812 -86.947265625 610.458007812 -86.947265625 610.458007812 -87.1572265625 c 0
 610.458007812 -93.708984375 635.087890625 -94.091796875 636.390625 -87.576171875 c 2
 641.338867188 -62.8359375 l 1
 734.211914062 -39.6171875 l 2
 745.225585938 -36.8642578125 740.28125 -30.013671875 727.342773438 -30.013671875 c 0
 724.821289062 -30.013671875 722.466796875 -30.3017578125 720.473632812 -30.80078125 c 2
 643.91796875 -49.939453125 l 1
 740.288085938 431.91015625 l 2
536.885742188 -76.697265625 m 1
 688.129882812 301.413085938 l 1
 616.48828125 -56.796875 l 1
 536.885742188 -76.697265625 l 1
EndSplineSet
Ligature2: "liga-1" @ 2
EndChar

StartChar: \.alt19
Encoding: 143 -1 140
Width: 485
VWidth: 0
Flags: HW
LayerCount: 2
Fore
SplineSet
60.9326171875 -34.5830078125 m 0
 60.9326171875 -124.0390625 130.501953125 -220.721679688 243.333007812 -220.721679688 c 0
 270.072265625 -220.721679688 296.590820312 -215.262695312 322.622070312 -204.49609375 c 0
 329.815429688 -201.520507812 316.176757812 -197.84375 308.956054688 -200.830078125 c 0
 284.50390625 -210.944335938 262.3671875 -214.874023438 243.333007812 -214.874023438 c 0
 205.899414062 -214.874023438 167.642578125 -198.940429688 137.727539062 -170.7734375 c 0
 60.6083984375 -98.162109375 47.994140625 42.0126953125 165.545898438 111.697265625 c 0
 194.977539062 129.143554688 222.975585938 135.654296875 246.294921875 135.654296875 c 0
 280.58984375 135.654296875 317.705078125 121.194335938 347.44140625 94.984375 c 0
 412.533203125 37.611328125 436.517578125 -68.1220703125 360.05078125 -149.154296875 c 0
 356.606445312 -152.803710938 373.344726562 -154.559570312 376.790039062 -150.908203125 c 0
 410.817382812 -114.850585938 425.259765625 -74.13671875 425.259765625 -34.8173828125 c 0
 425.259765625 53.5029296875 351 141.502929688 246.294921875 141.502929688 c 0
 212.581054688 141.502929688 180.4921875 132.48828125 150.2421875 114.556640625 c 0
 86.97265625 77.05078125 60.9326171875 20.9658203125 60.9326171875 -34.5830078125 c 0
156.130859375 259.069335938 m 1
 314.424804688 140.34765625 l 1
 346.387695312 -83.3935546875 l 1
 156.130859375 259.069335938 l 1
369.462890625 -174.997070312 m 1
 372.598632812 -166.612304688 372.36328125 -130.149414062 369.14453125 -124.356445312 c 2
 359.834960938 -107.59765625 l 1
 317.953125 185.567382812 l 2
 317.448242188 189.10546875 316.805664062 191.427734375 316.099609375 191.95703125 c 0
 105.418945312 349.969726562 105.418945312 349.969726562 105.262695312 349.969726562 c 0
 103.447265625 349.969726562 101.973632812 338.177734375 101.973632812 323.654296875 c 0
 101.973632812 311.120117188 103.071289062 300.62109375 104.538085938 297.978515625 c 2
 356.763671875 -156.028320312 l 1
 366.256835938 -222.473632812 l 2
 368.375 -237.301757812 371.709960938 -225.155273438 371.709960938 -202.663085938 c 0
 371.709960938 -194.767578125 371.274414062 -187.678710938 370.584960938 -182.853515625 c 2
 369.462890625 -174.997070312 l 1
EndSplineSet
EndChar

StartChar: glyph141
Encoding: 144 102 141
Width: 156
VWidth: 0
Flags: HW
LayerCount: 2
Fore
SplineSet
51.4267578125 -149.89453125 m 2
 50.8935546875 -152.028320312 62.865234375 -153.791015625 77.7255859375 -153.791015625 c 0
 91.9306640625 -153.791015625 103.521484375 -152.1796875 104.024414062 -150.16796875 c 0
 156.672851562 60.4267578125 156.672851562 60.4267578125 156.672851562 60.4951171875 c 0
 156.672851562 62.5703125 144.881835938 64.2548828125 130.357421875 64.2548828125 c 0
 116.471679688 64.2548828125 105.083007812 62.71484375 104.109375 60.7666015625 c 2
 53.2216796875 -41.0087890625 l 1
 25.09375 -41.0087890625 l 2
 10.5693359375 -41.0087890625 -1.2216796875 -42.693359375 -1.2216796875 -44.7685546875 c 0
 -1.2216796875 -46.84375 10.5693359375 -48.5283203125 25.09375 -48.5283203125 c 2
 76.7685546875 -48.5283203125 l 1
 51.4267578125 -149.89453125 l 2
EndSplineSet
EndChar

